<?xml version="1.0" encoding="utf-8" standalone="no"?>
<!DOCTYPE svg PUBLIC "-//W3C//DTD SVG 1.1//EN"
  "http://www.w3.org/Graphics/SVG/1.1/DTD/svg11.dtd">
<svg xmlns:xlink="http://www.w3.org/1999/xlink" width="288pt" height="288pt" viewBox="0 0 288 288" xmlns="http://www.w3.org/2000/svg" version="1.1">
 <metadata>
  <rdf:RDF xmlns:dc="http://purl.org/dc/elements/1.1/" xmlns:cc="http://creativecommons.org/ns#" xmlns:rdf="http://www.w3.org/1999/02/22-rdf-syntax-ns#">
   <cc:Work>
    <dc:type rdf:resource="http://purl.org/dc/dcmitype/StillImage"/>
    <dc:date>2024-08-20T00:32:45.365941</dc:date>
    <dc:format>image/svg+xml</dc:format>
    <dc:creator>
     <cc:Agent>
      <dc:title>Matplotlib v3.7.2, https://matplotlib.org/</dc:title>
     </cc:Agent>
    </dc:creator>
   </cc:Work>
  </rdf:RDF>
 </metadata>
 <defs>
  <style type="text/css">*{stroke-linejoin: round; stroke-linecap: butt}</style>
 </defs>
 <g id="figure_1">
  <g id="patch_1">
   <path d="M 0 288 
L 288 288 
L 288 0 
L 0 0 
z
" style="fill: #ffffff"/>
  </g>
  <g id="axes_1">
   <g id="patch_2">
    <path d="M 63.2 82.013333 
L 276.680952 82.013333 
L 276.680952 10.8 
L 63.2 10.8 
z
" style="fill: #ffffff"/>
   </g>
   <g id="patch_3">
    <path d="M 63.2 78.776364 
L 280.069539 78.776364 
L 280.069539 56.686098 
L 63.2 56.686098 
z
" clip-path="url(#p911f2188d8)" style="fill: #ff0000; opacity: 0.2"/>
   </g>
   <g id="matplotlib.axis_1"/>
   <g id="matplotlib.axis_2">
    <g id="ytick_1">
     <g id="line2d_1">
      <defs>
       <path id="m63cd5bf166" d="M 0 0 
L -3.5 0 
" style="stroke: #000000; stroke-width: 0.8"/>
      </defs>
      <g>
       <use xlink:href="#m63cd5bf166" x="63.2" y="67.731231" style="stroke: #000000; stroke-width: 0.8"/>
      </g>
     </g>
     <g id="text_1">
      <!-- 0 -->
      <g transform="translate(49.8375 71.530449) scale(0.1 -0.1)">
       <defs>
        <path id="DejaVuSans-30" d="M 2034 4250 
Q 1547 4250 1301 3770 
Q 1056 3291 1056 2328 
Q 1056 1369 1301 889 
Q 1547 409 2034 409 
Q 2525 409 2770 889 
Q 3016 1369 3016 2328 
Q 3016 3291 2770 3770 
Q 2525 4250 2034 4250 
z
M 2034 4750 
Q 2819 4750 3233 4129 
Q 3647 3509 3647 2328 
Q 3647 1150 3233 529 
Q 2819 -91 2034 -91 
Q 1250 -91 836 529 
Q 422 1150 422 2328 
Q 422 3509 836 4129 
Q 1250 4750 2034 4750 
z
" transform="scale(0.015625)"/>
       </defs>
       <use xlink:href="#DejaVuSans-30"/>
      </g>
     </g>
    </g>
    <g id="ytick_2">
     <g id="line2d_2">
      <g>
       <use xlink:href="#m63cd5bf166" x="63.2" y="23.550699" style="stroke: #000000; stroke-width: 0.8"/>
      </g>
     </g>
     <g id="text_2">
      <!-- 20 -->
      <g transform="translate(43.475 27.349918) scale(0.1 -0.1)">
       <defs>
        <path id="DejaVuSans-32" d="M 1228 531 
L 3431 531 
L 3431 0 
L 469 0 
L 469 531 
Q 828 903 1448 1529 
Q 2069 2156 2228 2338 
Q 2531 2678 2651 2914 
Q 2772 3150 2772 3378 
Q 2772 3750 2511 3984 
Q 2250 4219 1831 4219 
Q 1534 4219 1204 4116 
Q 875 4013 500 3803 
L 500 4441 
Q 881 4594 1212 4672 
Q 1544 4750 1819 4750 
Q 2544 4750 2975 4387 
Q 3406 4025 3406 3419 
Q 3406 3131 3298 2873 
Q 3191 2616 2906 2266 
Q 2828 2175 2409 1742 
Q 1991 1309 1228 531 
z
" transform="scale(0.015625)"/>
       </defs>
       <use xlink:href="#DejaVuSans-32"/>
       <use xlink:href="#DejaVuSans-30" x="63.623047"/>
      </g>
     </g>
    </g>
    <g id="text_3">
     <!-- $\theta$ [$^\circ$] -->
     <g transform="translate(37.395313 58.706667) rotate(-90) scale(0.1 -0.1)">
      <defs>
       <path id="DejaVuSans-Oblique-3b8" d="M 2913 2219 
L 925 2219 
Q 791 1284 928 888 
Q 1100 400 1566 400 
Q 2034 400 2391 891 
Q 2703 1322 2913 2219 
z
M 3009 2750 
Q 3094 3638 2984 3950 
Q 2813 4444 2353 4444 
Q 1875 4444 1525 3956 
Q 1250 3563 1034 2750 
L 3009 2750 
z
M 2444 4913 
Q 3194 4913 3494 4250 
Q 3794 3591 3566 2422 
Q 3341 1256 2781 594 
Q 2225 -72 1475 -72 
Q 722 -72 425 594 
Q 128 1256 353 2422 
Q 581 3591 1134 4250 
Q 1691 4913 2444 4913 
z
" transform="scale(0.015625)"/>
       <path id="DejaVuSans-20" transform="scale(0.015625)"/>
       <path id="DejaVuSans-5b" d="M 550 4863 
L 1875 4863 
L 1875 4416 
L 1125 4416 
L 1125 -397 
L 1875 -397 
L 1875 -844 
L 550 -844 
L 550 4863 
z
" transform="scale(0.015625)"/>
       <path id="DejaVuSans-2218" d="M 2003 2603 
Q 1753 2603 1581 2429 
Q 1409 2256 1409 2006 
Q 1409 1759 1581 1589 
Q 1753 1419 2003 1419 
Q 2253 1419 2425 1589 
Q 2597 1759 2597 2006 
Q 2597 2253 2423 2428 
Q 2250 2603 2003 2603 
z
M 2003 3006 
Q 2203 3006 2387 2929 
Q 2572 2853 2706 2709 
Q 2850 2569 2922 2390 
Q 2994 2212 2994 2006 
Q 2994 1594 2705 1308 
Q 2416 1022 1997 1022 
Q 1575 1022 1294 1303 
Q 1013 1584 1013 2006 
Q 1013 2425 1300 2715 
Q 1588 3006 2003 3006 
z
" transform="scale(0.015625)"/>
       <path id="DejaVuSans-5d" d="M 1947 4863 
L 1947 -844 
L 622 -844 
L 622 -397 
L 1369 -397 
L 1369 4416 
L 622 4416 
L 622 4863 
L 1947 4863 
z
" transform="scale(0.015625)"/>
      </defs>
      <use xlink:href="#DejaVuSans-Oblique-3b8" transform="translate(0 0.234375)"/>
      <use xlink:href="#DejaVuSans-20" transform="translate(61.181641 0.234375)"/>
      <use xlink:href="#DejaVuSans-5b" transform="translate(92.96875 0.234375)"/>
      <use xlink:href="#DejaVuSans-2218" transform="translate(146.577148 38.515625) scale(0.7)"/>
      <use xlink:href="#DejaVuSans-5d" transform="translate(206.767578 0.234375)"/>
     </g>
    </g>
   </g>
   <g id="line2d_3">
    <path d="M 63.2 45.635663 
L 66.588587 45.635663 
L 69.977173 45.625049 
L 73.36576 45.609112 
L 76.754346 45.58783 
L 80.142933 45.561182 
L 83.531519 45.529139 
L 86.920106 45.491665 
L 90.308692 45.448724 
L 93.697279 45.40027 
L 97.085865 45.346255 
L 100.474452 45.286625 
L 103.863039 45.221319 
L 107.251625 45.150273 
L 110.640212 45.073418 
L 114.028798 44.990677 
L 117.417385 44.901969 
L 120.805971 44.807209 
L 124.194558 44.690592 
L 127.583144 44.552028 
L 130.971731 44.391405 
L 134.360317 44.224302 
L 137.748904 44.034848 
L 141.137491 43.822885 
L 144.526077 43.588233 
L 147.914664 43.33069 
L 151.30325 43.050034 
L 154.691837 42.746023 
L 158.080423 42.41839 
L 161.46901 42.066849 
L 164.857596 41.706803 
L 168.246183 41.322201 
L 171.634769 40.912705 
L 175.023356 40.477954 
L 178.411943 40.017563 
L 181.800529 39.531123 
L 185.189116 39.018204 
L 188.577702 38.494061 
L 191.966289 37.942497 
L 195.354875 37.36302 
L 198.743462 36.755118 
L 202.132048 36.11825 
L 205.520635 35.45185 
L 208.909221 34.771038 
L 212.297808 34.059477 
L 215.686395 33.316537 
L 219.074981 32.54156 
L 222.463568 31.733859 
L 225.852154 30.892721 
L 229.240741 30.017404 
L 232.629327 29.122846 
L 236.017914 28.192529 
L 239.4065 27.225635 
L 242.795087 26.221317 
L 246.183673 25.178696 
L 249.57226 24.096863 
L 252.960847 22.990588 
L 256.349433 21.843178 
L 259.73802 20.653641 
L 263.126606 19.42095 
L 266.515193 18.144048 
L 269.903779 16.821841 
L 273.292366 15.453202 
L 276.680952 14.03697 
" clip-path="url(#p911f2188d8)" style="fill: none; stroke: #0000ff; stroke-width: 1.5; stroke-linecap: square"/>
    <defs>
     <path id="m817a27ce73" d="M -3 0 
L 3 0 
M 0 3 
L 0 -3 
" style="stroke: #0000ff"/>
    </defs>
    <g clip-path="url(#p911f2188d8)">
     <use xlink:href="#m817a27ce73" x="63.2" y="45.635663" style="fill: #0000ff; stroke: #0000ff"/>
     <use xlink:href="#m817a27ce73" x="66.588587" y="45.635663" style="fill: #0000ff; stroke: #0000ff"/>
     <use xlink:href="#m817a27ce73" x="69.977173" y="45.625049" style="fill: #0000ff; stroke: #0000ff"/>
     <use xlink:href="#m817a27ce73" x="73.36576" y="45.609112" style="fill: #0000ff; stroke: #0000ff"/>
     <use xlink:href="#m817a27ce73" x="76.754346" y="45.58783" style="fill: #0000ff; stroke: #0000ff"/>
     <use xlink:href="#m817a27ce73" x="80.142933" y="45.561182" style="fill: #0000ff; stroke: #0000ff"/>
     <use xlink:href="#m817a27ce73" x="83.531519" y="45.529139" style="fill: #0000ff; stroke: #0000ff"/>
     <use xlink:href="#m817a27ce73" x="86.920106" y="45.491665" style="fill: #0000ff; stroke: #0000ff"/>
     <use xlink:href="#m817a27ce73" x="90.308692" y="45.448724" style="fill: #0000ff; stroke: #0000ff"/>
     <use xlink:href="#m817a27ce73" x="93.697279" y="45.40027" style="fill: #0000ff; stroke: #0000ff"/>
     <use xlink:href="#m817a27ce73" x="97.085865" y="45.346255" style="fill: #0000ff; stroke: #0000ff"/>
     <use xlink:href="#m817a27ce73" x="100.474452" y="45.286625" style="fill: #0000ff; stroke: #0000ff"/>
     <use xlink:href="#m817a27ce73" x="103.863039" y="45.221319" style="fill: #0000ff; stroke: #0000ff"/>
     <use xlink:href="#m817a27ce73" x="107.251625" y="45.150273" style="fill: #0000ff; stroke: #0000ff"/>
     <use xlink:href="#m817a27ce73" x="110.640212" y="45.073418" style="fill: #0000ff; stroke: #0000ff"/>
     <use xlink:href="#m817a27ce73" x="114.028798" y="44.990677" style="fill: #0000ff; stroke: #0000ff"/>
     <use xlink:href="#m817a27ce73" x="117.417385" y="44.901969" style="fill: #0000ff; stroke: #0000ff"/>
     <use xlink:href="#m817a27ce73" x="120.805971" y="44.807209" style="fill: #0000ff; stroke: #0000ff"/>
     <use xlink:href="#m817a27ce73" x="124.194558" y="44.690592" style="fill: #0000ff; stroke: #0000ff"/>
     <use xlink:href="#m817a27ce73" x="127.583144" y="44.552028" style="fill: #0000ff; stroke: #0000ff"/>
     <use xlink:href="#m817a27ce73" x="130.971731" y="44.391405" style="fill: #0000ff; stroke: #0000ff"/>
     <use xlink:href="#m817a27ce73" x="134.360317" y="44.224302" style="fill: #0000ff; stroke: #0000ff"/>
     <use xlink:href="#m817a27ce73" x="137.748904" y="44.034848" style="fill: #0000ff; stroke: #0000ff"/>
     <use xlink:href="#m817a27ce73" x="141.137491" y="43.822885" style="fill: #0000ff; stroke: #0000ff"/>
     <use xlink:href="#m817a27ce73" x="144.526077" y="43.588233" style="fill: #0000ff; stroke: #0000ff"/>
     <use xlink:href="#m817a27ce73" x="147.914664" y="43.33069" style="fill: #0000ff; stroke: #0000ff"/>
     <use xlink:href="#m817a27ce73" x="151.30325" y="43.050034" style="fill: #0000ff; stroke: #0000ff"/>
     <use xlink:href="#m817a27ce73" x="154.691837" y="42.746023" style="fill: #0000ff; stroke: #0000ff"/>
     <use xlink:href="#m817a27ce73" x="158.080423" y="42.41839" style="fill: #0000ff; stroke: #0000ff"/>
     <use xlink:href="#m817a27ce73" x="161.46901" y="42.066849" style="fill: #0000ff; stroke: #0000ff"/>
     <use xlink:href="#m817a27ce73" x="164.857596" y="41.706803" style="fill: #0000ff; stroke: #0000ff"/>
     <use xlink:href="#m817a27ce73" x="168.246183" y="41.322201" style="fill: #0000ff; stroke: #0000ff"/>
     <use xlink:href="#m817a27ce73" x="171.634769" y="40.912705" style="fill: #0000ff; stroke: #0000ff"/>
     <use xlink:href="#m817a27ce73" x="175.023356" y="40.477954" style="fill: #0000ff; stroke: #0000ff"/>
     <use xlink:href="#m817a27ce73" x="178.411943" y="40.017563" style="fill: #0000ff; stroke: #0000ff"/>
     <use xlink:href="#m817a27ce73" x="181.800529" y="39.531123" style="fill: #0000ff; stroke: #0000ff"/>
     <use xlink:href="#m817a27ce73" x="185.189116" y="39.018204" style="fill: #0000ff; stroke: #0000ff"/>
     <use xlink:href="#m817a27ce73" x="188.577702" y="38.494061" style="fill: #0000ff; stroke: #0000ff"/>
     <use xlink:href="#m817a27ce73" x="191.966289" y="37.942497" style="fill: #0000ff; stroke: #0000ff"/>
     <use xlink:href="#m817a27ce73" x="195.354875" y="37.36302" style="fill: #0000ff; stroke: #0000ff"/>
     <use xlink:href="#m817a27ce73" x="198.743462" y="36.755118" style="fill: #0000ff; stroke: #0000ff"/>
     <use xlink:href="#m817a27ce73" x="202.132048" y="36.11825" style="fill: #0000ff; stroke: #0000ff"/>
     <use xlink:href="#m817a27ce73" x="205.520635" y="35.45185" style="fill: #0000ff; stroke: #0000ff"/>
     <use xlink:href="#m817a27ce73" x="208.909221" y="34.771038" style="fill: #0000ff; stroke: #0000ff"/>
     <use xlink:href="#m817a27ce73" x="212.297808" y="34.059477" style="fill: #0000ff; stroke: #0000ff"/>
     <use xlink:href="#m817a27ce73" x="215.686395" y="33.316537" style="fill: #0000ff; stroke: #0000ff"/>
     <use xlink:href="#m817a27ce73" x="219.074981" y="32.54156" style="fill: #0000ff; stroke: #0000ff"/>
     <use xlink:href="#m817a27ce73" x="222.463568" y="31.733859" style="fill: #0000ff; stroke: #0000ff"/>
     <use xlink:href="#m817a27ce73" x="225.852154" y="30.892721" style="fill: #0000ff; stroke: #0000ff"/>
     <use xlink:href="#m817a27ce73" x="229.240741" y="30.017404" style="fill: #0000ff; stroke: #0000ff"/>
     <use xlink:href="#m817a27ce73" x="232.629327" y="29.122846" style="fill: #0000ff; stroke: #0000ff"/>
     <use xlink:href="#m817a27ce73" x="236.017914" y="28.192529" style="fill: #0000ff; stroke: #0000ff"/>
     <use xlink:href="#m817a27ce73" x="239.4065" y="27.225635" style="fill: #0000ff; stroke: #0000ff"/>
     <use xlink:href="#m817a27ce73" x="242.795087" y="26.221317" style="fill: #0000ff; stroke: #0000ff"/>
     <use xlink:href="#m817a27ce73" x="246.183673" y="25.178696" style="fill: #0000ff; stroke: #0000ff"/>
     <use xlink:href="#m817a27ce73" x="249.57226" y="24.096863" style="fill: #0000ff; stroke: #0000ff"/>
     <use xlink:href="#m817a27ce73" x="252.960847" y="22.990588" style="fill: #0000ff; stroke: #0000ff"/>
     <use xlink:href="#m817a27ce73" x="256.349433" y="21.843178" style="fill: #0000ff; stroke: #0000ff"/>
     <use xlink:href="#m817a27ce73" x="259.73802" y="20.653641" style="fill: #0000ff; stroke: #0000ff"/>
     <use xlink:href="#m817a27ce73" x="263.126606" y="19.42095" style="fill: #0000ff; stroke: #0000ff"/>
     <use xlink:href="#m817a27ce73" x="266.515193" y="18.144048" style="fill: #0000ff; stroke: #0000ff"/>
     <use xlink:href="#m817a27ce73" x="269.903779" y="16.821841" style="fill: #0000ff; stroke: #0000ff"/>
     <use xlink:href="#m817a27ce73" x="273.292366" y="15.453202" style="fill: #0000ff; stroke: #0000ff"/>
     <use xlink:href="#m817a27ce73" x="276.680952" y="14.03697" style="fill: #0000ff; stroke: #0000ff"/>
    </g>
   </g>
   <g id="patch_4">
    <path d="M 63.2 82.013333 
L 63.2 10.8 
" style="fill: none; stroke: #000000; stroke-width: 0.8; stroke-linejoin: miter; stroke-linecap: square"/>
   </g>
   <g id="patch_5">
    <path d="M 276.680952 82.013333 
L 276.680952 10.8 
" style="fill: none; stroke: #000000; stroke-width: 0.8; stroke-linejoin: miter; stroke-linecap: square"/>
   </g>
   <g id="patch_6">
    <path d="M 63.2 82.013333 
L 276.680952 82.013333 
" style="fill: none; stroke: #000000; stroke-width: 0.8; stroke-linejoin: miter; stroke-linecap: square"/>
   </g>
   <g id="patch_7">
    <path d="M 63.2 10.8 
L 276.680952 10.8 
" style="fill: none; stroke: #000000; stroke-width: 0.8; stroke-linejoin: miter; stroke-linecap: square"/>
   </g>
   <g id="legend_1">
    <g id="patch_8">
     <path d="M 70.2 33.478125 
L 114.4 33.478125 
Q 116.4 33.478125 116.4 31.478125 
L 116.4 17.8 
Q 116.4 15.8 114.4 15.8 
L 70.2 15.8 
Q 68.2 15.8 68.2 17.8 
L 68.2 31.478125 
Q 68.2 33.478125 70.2 33.478125 
z
" style="fill: #ffffff; opacity: 0.8; stroke: #cccccc; stroke-linejoin: miter"/>
    </g>
    <g id="line2d_4">
     <path d="M 72.2 23.898438 
L 82.2 23.898438 
L 92.2 23.898438 
" style="fill: none; stroke: #0000ff; stroke-width: 1.5; stroke-linecap: square"/>
     <g>
      <use xlink:href="#m817a27ce73" x="82.2" y="23.898438" style="fill: #0000ff; stroke: #0000ff"/>
     </g>
    </g>
    <g id="text_4">
     <!-- $\theta_w$ -->
     <g transform="translate(100.2 27.398438) scale(0.1 -0.1)">
      <defs>
       <path id="DejaVuSans-Oblique-77" d="M 544 3500 
L 1113 3500 
L 1259 684 
L 2566 3500 
L 3231 3500 
L 3425 684 
L 4666 3500 
L 5241 3500 
L 3641 0 
L 2969 0 
L 2797 2900 
L 1459 0 
L 781 0 
L 544 3500 
z
" transform="scale(0.015625)"/>
      </defs>
      <use xlink:href="#DejaVuSans-Oblique-3b8" transform="translate(0 0.234375)"/>
      <use xlink:href="#DejaVuSans-Oblique-77" transform="translate(61.181641 -16.171875) scale(0.7)"/>
     </g>
    </g>
   </g>
  </g>
  <g id="axes_2">
   <g id="patch_9">
    <path d="M 63.2 164.026667 
L 276.680952 164.026667 
L 276.680952 92.813333 
L 63.2 92.813333 
z
" style="fill: #ffffff"/>
   </g>
   <g id="patch_10">
    <path d="M 63.2 160.789697 
L 280.069539 160.789697 
L 280.069539 155.930197 
L 63.2 155.930197 
z
" clip-path="url(#pfa91a3a361)" style="fill: #ff0000; opacity: 0.2"/>
   </g>
   <g id="matplotlib.axis_3"/>
   <g id="matplotlib.axis_4">
    <g id="ytick_3">
     <g id="line2d_5">
      <g>
       <use xlink:href="#m63cd5bf166" x="63.2" y="158.359947" style="stroke: #000000; stroke-width: 0.8"/>
      </g>
     </g>
     <g id="text_5">
      <!-- 0 -->
      <g transform="translate(49.8375 162.159166) scale(0.1 -0.1)">
       <use xlink:href="#DejaVuSans-30"/>
      </g>
     </g>
    </g>
    <g id="ytick_4">
     <g id="line2d_6">
      <g>
       <use xlink:href="#m63cd5bf166" x="63.2" y="134.062446" style="stroke: #000000; stroke-width: 0.8"/>
      </g>
     </g>
     <g id="text_6">
      <!-- 50 -->
      <g transform="translate(43.475 137.861665) scale(0.1 -0.1)">
       <defs>
        <path id="DejaVuSans-35" d="M 691 4666 
L 3169 4666 
L 3169 4134 
L 1269 4134 
L 1269 2991 
Q 1406 3038 1543 3061 
Q 1681 3084 1819 3084 
Q 2600 3084 3056 2656 
Q 3513 2228 3513 1497 
Q 3513 744 3044 326 
Q 2575 -91 1722 -91 
Q 1428 -91 1123 -41 
Q 819 9 494 109 
L 494 744 
Q 775 591 1075 516 
Q 1375 441 1709 441 
Q 2250 441 2565 725 
Q 2881 1009 2881 1497 
Q 2881 1984 2565 2268 
Q 2250 2553 1709 2553 
Q 1456 2553 1204 2497 
Q 953 2441 691 2322 
L 691 4666 
z
" transform="scale(0.015625)"/>
       </defs>
       <use xlink:href="#DejaVuSans-35"/>
       <use xlink:href="#DejaVuSans-30" x="63.623047"/>
      </g>
     </g>
    </g>
    <g id="ytick_5">
     <g id="line2d_7">
      <g>
       <use xlink:href="#m63cd5bf166" x="63.2" y="109.764946" style="stroke: #000000; stroke-width: 0.8"/>
      </g>
     </g>
     <g id="text_7">
      <!-- 100 -->
      <g transform="translate(37.1125 113.564164) scale(0.1 -0.1)">
       <defs>
        <path id="DejaVuSans-31" d="M 794 531 
L 1825 531 
L 1825 4091 
L 703 3866 
L 703 4441 
L 1819 4666 
L 2450 4666 
L 2450 531 
L 3481 531 
L 3481 0 
L 794 0 
L 794 531 
z
" transform="scale(0.015625)"/>
       </defs>
       <use xlink:href="#DejaVuSans-31"/>
       <use xlink:href="#DejaVuSans-30" x="63.623047"/>
       <use xlink:href="#DejaVuSans-30" x="127.246094"/>
      </g>
     </g>
    </g>
    <g id="text_8">
     <!-- $\dot{\theta}$  [$^\circ$/s] -->
     <g transform="translate(31.032813 146.62) rotate(-90) scale(0.1 -0.1)">
      <defs>
       <path id="DejaVuSans-307" d="M -1894 4863 
L -1319 4863 
L -1319 4134 
L -1894 4134 
L -1894 4863 
z
M -1600 3584 
L -1600 3584 
z
" transform="scale(0.015625)"/>
       <path id="DejaVuSans-2f" d="M 1625 4666 
L 2156 4666 
L 531 -594 
L 0 -594 
L 1625 4666 
z
" transform="scale(0.015625)"/>
       <path id="DejaVuSans-73" d="M 2834 3397 
L 2834 2853 
Q 2591 2978 2328 3040 
Q 2066 3103 1784 3103 
Q 1356 3103 1142 2972 
Q 928 2841 928 2578 
Q 928 2378 1081 2264 
Q 1234 2150 1697 2047 
L 1894 2003 
Q 2506 1872 2764 1633 
Q 3022 1394 3022 966 
Q 3022 478 2636 193 
Q 2250 -91 1575 -91 
Q 1294 -91 989 -36 
Q 684 19 347 128 
L 347 722 
Q 666 556 975 473 
Q 1284 391 1588 391 
Q 1994 391 2212 530 
Q 2431 669 2431 922 
Q 2431 1156 2273 1281 
Q 2116 1406 1581 1522 
L 1381 1569 
Q 847 1681 609 1914 
Q 372 2147 372 2553 
Q 372 3047 722 3315 
Q 1072 3584 1716 3584 
Q 2034 3584 2315 3537 
Q 2597 3491 2834 3397 
z
" transform="scale(0.015625)"/>
      </defs>
      <use xlink:href="#DejaVuSans-307" transform="translate(62.88916 34.015625)"/>
      <use xlink:href="#DejaVuSans-Oblique-3b8" transform="translate(0 0.75)"/>
      <use xlink:href="#DejaVuSans-20" transform="translate(61.181641 0.75)"/>
      <use xlink:href="#DejaVuSans-20" transform="translate(92.96875 0.75)"/>
      <use xlink:href="#DejaVuSans-5b" transform="translate(124.755859 0.75)"/>
      <use xlink:href="#DejaVuSans-2218" transform="translate(178.364258 39.03125) scale(0.7)"/>
      <use xlink:href="#DejaVuSans-2f" transform="translate(238.554688 0.75)"/>
      <use xlink:href="#DejaVuSans-73" transform="translate(272.246094 0.75)"/>
      <use xlink:href="#DejaVuSans-5d" transform="translate(324.345703 0.75)"/>
     </g>
    </g>
   </g>
   <g id="line2d_8">
    <path d="M 63.2 158.126665 
L 66.588587 158.126665 
L 69.977173 157.893001 
L 73.36576 157.658735 
L 76.754346 157.423647 
L 80.142933 157.187518 
L 83.531519 156.950126 
L 86.920106 156.711248 
L 90.308692 156.470662 
L 93.697279 156.228142 
L 97.085865 155.983462 
L 100.474452 155.736395 
L 103.863039 155.486709 
L 107.251625 155.234173 
L 110.640212 154.978552 
L 114.028798 154.719609 
L 117.417385 154.457103 
L 120.805971 154.190791 
L 124.194558 153.229183 
L 127.583144 152.263571 
L 130.971731 151.293053 
L 134.360317 151.007964 
L 137.748904 150.024607 
L 141.137491 149.034259 
L 144.526077 148.035998 
L 147.914664 147.028896 
L 151.30325 146.01202 
L 154.691837 144.984428 
L 158.080423 143.94517 
L 161.46901 142.893289 
L 164.857596 142.519062 
L 168.246183 141.43872 
L 171.634769 140.343469 
L 175.023356 139.232308 
L 178.411943 138.104223 
L 181.800529 136.95819 
L 185.189116 135.79317 
L 188.577702 135.299355 
L 191.966289 134.092887 
L 195.354875 132.864875 
L 198.743462 131.614221 
L 202.132048 130.339811 
L 205.520635 129.040513 
L 208.909221 128.406424 
L 212.297808 127.053581 
L 215.686395 125.672992 
L 219.074981 124.263453 
L 222.463568 122.823743 
L 225.852154 121.35262 
L 229.240741 119.848824 
L 232.629327 119.00232 
L 236.017914 117.429003 
L 239.4065 115.819746 
L 242.795087 114.173205 
L 246.183673 112.488021 
L 249.57226 110.762813 
L 252.960847 109.687425 
L 256.349433 107.877623 
L 259.73802 106.02416 
L 263.126606 104.125576 
L 266.515193 102.180398 
L 269.903779 100.187132 
L 273.292366 98.144274 
L 276.680952 96.050303 
" clip-path="url(#pfa91a3a361)" style="fill: none; stroke: #0000ff; stroke-width: 1.5; stroke-linecap: square"/>
   </g>
   <g id="patch_11">
    <path d="M 63.2 164.026667 
L 63.2 92.813333 
" style="fill: none; stroke: #000000; stroke-width: 0.8; stroke-linejoin: miter; stroke-linecap: square"/>
   </g>
   <g id="patch_12">
    <path d="M 276.680952 164.026667 
L 276.680952 92.813333 
" style="fill: none; stroke: #000000; stroke-width: 0.8; stroke-linejoin: miter; stroke-linecap: square"/>
   </g>
   <g id="patch_13">
    <path d="M 63.2 164.026667 
L 276.680952 164.026667 
" style="fill: none; stroke: #000000; stroke-width: 0.8; stroke-linejoin: miter; stroke-linecap: square"/>
   </g>
   <g id="patch_14">
    <path d="M 63.2 92.813333 
L 276.680952 92.813333 
" style="fill: none; stroke: #000000; stroke-width: 0.8; stroke-linejoin: miter; stroke-linecap: square"/>
   </g>
   <g id="legend_2">
    <g id="patch_15">
     <path d="M 70.2 118.613333 
L 113.2 118.613333 
Q 115.2 118.613333 115.2 116.613333 
L 115.2 99.813333 
Q 115.2 97.813333 113.2 97.813333 
L 70.2 97.813333 
Q 68.2 97.813333 68.2 99.813333 
L 68.2 116.613333 
Q 68.2 118.613333 70.2 118.613333 
z
" style="fill: #ffffff; opacity: 0.8; stroke: #cccccc; stroke-linejoin: miter"/>
    </g>
    <g id="line2d_9">
     <path d="M 72.2 109.033646 
L 82.2 109.033646 
L 92.2 109.033646 
" style="fill: none; stroke: #0000ff; stroke-width: 1.5; stroke-linecap: square"/>
    </g>
    <g id="text_9">
     <!-- $\dot{\theta}_b$ -->
     <g transform="translate(100.2 112.533646) scale(0.1 -0.1)">
      <defs>
       <path id="DejaVuSans-Oblique-62" d="M 3169 2138 
Q 3169 2591 2961 2847 
Q 2753 3103 2388 3103 
Q 2122 3103 1889 2973 
Q 1656 2844 1484 2597 
Q 1303 2338 1198 1995 
Q 1094 1653 1094 1313 
Q 1094 881 1298 636 
Q 1503 391 1863 391 
Q 2134 391 2365 517 
Q 2597 644 2772 891 
Q 2950 1147 3059 1487 
Q 3169 1828 3169 2138 
z
M 1381 2969 
Q 1594 3256 1914 3420 
Q 2234 3584 2584 3584 
Q 3122 3584 3439 3221 
Q 3756 2859 3756 2241 
Q 3756 1734 3570 1259 
Q 3384 784 3041 416 
Q 2816 172 2522 40 
Q 2228 -91 1906 -91 
Q 1566 -91 1316 65 
Q 1066 222 909 531 
L 806 0 
L 231 0 
L 1178 4863 
L 1753 4863 
L 1381 2969 
z
" transform="scale(0.015625)"/>
      </defs>
      <use xlink:href="#DejaVuSans-307" transform="translate(62.88916 34.015625)"/>
      <use xlink:href="#DejaVuSans-Oblique-3b8" transform="translate(0 0.75)"/>
      <use xlink:href="#DejaVuSans-Oblique-62" transform="translate(62.138672 -15.65625) scale(0.7)"/>
     </g>
    </g>
   </g>
  </g>
  <g id="axes_3">
   <g id="patch_16">
    <path d="M 63.2 246.04 
L 276.680952 246.04 
L 276.680952 174.826667 
L 63.2 174.826667 
z
" style="fill: #ffffff"/>
   </g>
   <g id="matplotlib.axis_5">
    <g id="xtick_1">
     <g id="line2d_10">
      <defs>
       <path id="mf20313ebf1" d="M 0 0 
L 0 3.5 
" style="stroke: #000000; stroke-width: 0.8"/>
      </defs>
      <g>
       <use xlink:href="#mf20313ebf1" x="63.2" y="246.04" style="stroke: #000000; stroke-width: 0.8"/>
      </g>
     </g>
     <g id="text_10">
      <!-- 0.00 -->
      <g transform="translate(52.067188 260.638438) scale(0.1 -0.1)">
       <defs>
        <path id="DejaVuSans-2e" d="M 684 794 
L 1344 794 
L 1344 0 
L 684 0 
L 684 794 
z
" transform="scale(0.015625)"/>
       </defs>
       <use xlink:href="#DejaVuSans-30"/>
       <use xlink:href="#DejaVuSans-2e" x="63.623047"/>
       <use xlink:href="#DejaVuSans-30" x="95.410156"/>
       <use xlink:href="#DejaVuSans-30" x="159.033203"/>
      </g>
     </g>
    </g>
    <g id="xtick_2">
     <g id="line2d_11">
      <g>
       <use xlink:href="#mf20313ebf1" x="97.085865" y="246.04" style="stroke: #000000; stroke-width: 0.8"/>
      </g>
     </g>
     <g id="text_11">
      <!-- 0.05 -->
      <g transform="translate(85.953053 260.638438) scale(0.1 -0.1)">
       <use xlink:href="#DejaVuSans-30"/>
       <use xlink:href="#DejaVuSans-2e" x="63.623047"/>
       <use xlink:href="#DejaVuSans-30" x="95.410156"/>
       <use xlink:href="#DejaVuSans-35" x="159.033203"/>
      </g>
     </g>
    </g>
    <g id="xtick_3">
     <g id="line2d_12">
      <g>
       <use xlink:href="#mf20313ebf1" x="130.971731" y="246.04" style="stroke: #000000; stroke-width: 0.8"/>
      </g>
     </g>
     <g id="text_12">
      <!-- 0.10 -->
      <g transform="translate(119.838918 260.638438) scale(0.1 -0.1)">
       <use xlink:href="#DejaVuSans-30"/>
       <use xlink:href="#DejaVuSans-2e" x="63.623047"/>
       <use xlink:href="#DejaVuSans-31" x="95.410156"/>
       <use xlink:href="#DejaVuSans-30" x="159.033203"/>
      </g>
     </g>
    </g>
    <g id="xtick_4">
     <g id="line2d_13">
      <g>
       <use xlink:href="#mf20313ebf1" x="164.857596" y="246.04" style="stroke: #000000; stroke-width: 0.8"/>
      </g>
     </g>
     <g id="text_13">
      <!-- 0.15 -->
      <g transform="translate(153.724784 260.638438) scale(0.1 -0.1)">
       <use xlink:href="#DejaVuSans-30"/>
       <use xlink:href="#DejaVuSans-2e" x="63.623047"/>
       <use xlink:href="#DejaVuSans-31" x="95.410156"/>
       <use xlink:href="#DejaVuSans-35" x="159.033203"/>
      </g>
     </g>
    </g>
    <g id="xtick_5">
     <g id="line2d_14">
      <g>
       <use xlink:href="#mf20313ebf1" x="198.743462" y="246.04" style="stroke: #000000; stroke-width: 0.8"/>
      </g>
     </g>
     <g id="text_14">
      <!-- 0.20 -->
      <g transform="translate(187.610649 260.638438) scale(0.1 -0.1)">
       <use xlink:href="#DejaVuSans-30"/>
       <use xlink:href="#DejaVuSans-2e" x="63.623047"/>
       <use xlink:href="#DejaVuSans-32" x="95.410156"/>
       <use xlink:href="#DejaVuSans-30" x="159.033203"/>
      </g>
     </g>
    </g>
    <g id="xtick_6">
     <g id="line2d_15">
      <g>
       <use xlink:href="#mf20313ebf1" x="232.629327" y="246.04" style="stroke: #000000; stroke-width: 0.8"/>
      </g>
     </g>
     <g id="text_15">
      <!-- 0.25 -->
      <g transform="translate(221.496515 260.638438) scale(0.1 -0.1)">
       <use xlink:href="#DejaVuSans-30"/>
       <use xlink:href="#DejaVuSans-2e" x="63.623047"/>
       <use xlink:href="#DejaVuSans-32" x="95.410156"/>
       <use xlink:href="#DejaVuSans-35" x="159.033203"/>
      </g>
     </g>
    </g>
    <g id="xtick_7">
     <g id="line2d_16">
      <g>
       <use xlink:href="#mf20313ebf1" x="266.515193" y="246.04" style="stroke: #000000; stroke-width: 0.8"/>
      </g>
     </g>
     <g id="text_16">
      <!-- 0.30 -->
      <g transform="translate(255.38238 260.638438) scale(0.1 -0.1)">
       <defs>
        <path id="DejaVuSans-33" d="M 2597 2516 
Q 3050 2419 3304 2112 
Q 3559 1806 3559 1356 
Q 3559 666 3084 287 
Q 2609 -91 1734 -91 
Q 1441 -91 1130 -33 
Q 819 25 488 141 
L 488 750 
Q 750 597 1062 519 
Q 1375 441 1716 441 
Q 2309 441 2620 675 
Q 2931 909 2931 1356 
Q 2931 1769 2642 2001 
Q 2353 2234 1838 2234 
L 1294 2234 
L 1294 2753 
L 1863 2753 
Q 2328 2753 2575 2939 
Q 2822 3125 2822 3475 
Q 2822 3834 2567 4026 
Q 2313 4219 1838 4219 
Q 1578 4219 1281 4162 
Q 984 4106 628 3988 
L 628 4550 
Q 988 4650 1302 4700 
Q 1616 4750 1894 4750 
Q 2613 4750 3031 4423 
Q 3450 4097 3450 3541 
Q 3450 3153 3228 2886 
Q 3006 2619 2597 2516 
z
" transform="scale(0.015625)"/>
       </defs>
       <use xlink:href="#DejaVuSans-30"/>
       <use xlink:href="#DejaVuSans-2e" x="63.623047"/>
       <use xlink:href="#DejaVuSans-33" x="95.410156"/>
       <use xlink:href="#DejaVuSans-30" x="159.033203"/>
      </g>
     </g>
    </g>
    <g id="text_17">
     <!-- Time [s] -->
     <g transform="translate(149.61157 274.316562) scale(0.1 -0.1)">
      <defs>
       <path id="DejaVuSans-54" d="M -19 4666 
L 3928 4666 
L 3928 4134 
L 2272 4134 
L 2272 0 
L 1638 0 
L 1638 4134 
L -19 4134 
L -19 4666 
z
" transform="scale(0.015625)"/>
       <path id="DejaVuSans-69" d="M 603 3500 
L 1178 3500 
L 1178 0 
L 603 0 
L 603 3500 
z
M 603 4863 
L 1178 4863 
L 1178 4134 
L 603 4134 
L 603 4863 
z
" transform="scale(0.015625)"/>
       <path id="DejaVuSans-6d" d="M 3328 2828 
Q 3544 3216 3844 3400 
Q 4144 3584 4550 3584 
Q 5097 3584 5394 3201 
Q 5691 2819 5691 2113 
L 5691 0 
L 5113 0 
L 5113 2094 
Q 5113 2597 4934 2840 
Q 4756 3084 4391 3084 
Q 3944 3084 3684 2787 
Q 3425 2491 3425 1978 
L 3425 0 
L 2847 0 
L 2847 2094 
Q 2847 2600 2669 2842 
Q 2491 3084 2119 3084 
Q 1678 3084 1418 2786 
Q 1159 2488 1159 1978 
L 1159 0 
L 581 0 
L 581 3500 
L 1159 3500 
L 1159 2956 
Q 1356 3278 1631 3431 
Q 1906 3584 2284 3584 
Q 2666 3584 2933 3390 
Q 3200 3197 3328 2828 
z
" transform="scale(0.015625)"/>
       <path id="DejaVuSans-65" d="M 3597 1894 
L 3597 1613 
L 953 1613 
Q 991 1019 1311 708 
Q 1631 397 2203 397 
Q 2534 397 2845 478 
Q 3156 559 3463 722 
L 3463 178 
Q 3153 47 2828 -22 
Q 2503 -91 2169 -91 
Q 1331 -91 842 396 
Q 353 884 353 1716 
Q 353 2575 817 3079 
Q 1281 3584 2069 3584 
Q 2775 3584 3186 3129 
Q 3597 2675 3597 1894 
z
M 3022 2063 
Q 3016 2534 2758 2815 
Q 2500 3097 2075 3097 
Q 1594 3097 1305 2825 
Q 1016 2553 972 2059 
L 3022 2063 
z
" transform="scale(0.015625)"/>
      </defs>
      <use xlink:href="#DejaVuSans-54"/>
      <use xlink:href="#DejaVuSans-69" x="57.958984"/>
      <use xlink:href="#DejaVuSans-6d" x="85.742188"/>
      <use xlink:href="#DejaVuSans-65" x="183.154297"/>
      <use xlink:href="#DejaVuSans-20" x="244.677734"/>
      <use xlink:href="#DejaVuSans-5b" x="276.464844"/>
      <use xlink:href="#DejaVuSans-73" x="315.478516"/>
      <use xlink:href="#DejaVuSans-5d" x="367.578125"/>
     </g>
    </g>
   </g>
   <g id="matplotlib.axis_6">
    <g id="ytick_6">
     <g id="line2d_17">
      <g>
       <use xlink:href="#m63cd5bf166" x="63.2" y="232.6875" style="stroke: #000000; stroke-width: 0.8"/>
      </g>
     </g>
     <g id="text_18">
      <!-- −0.05 -->
      <g transform="translate(25.554688 236.486719) scale(0.1 -0.1)">
       <defs>
        <path id="DejaVuSans-2212" d="M 678 2272 
L 4684 2272 
L 4684 1741 
L 678 1741 
L 678 2272 
z
" transform="scale(0.015625)"/>
       </defs>
       <use xlink:href="#DejaVuSans-2212"/>
       <use xlink:href="#DejaVuSans-30" x="83.789062"/>
       <use xlink:href="#DejaVuSans-2e" x="147.412109"/>
       <use xlink:href="#DejaVuSans-30" x="179.199219"/>
       <use xlink:href="#DejaVuSans-35" x="242.822266"/>
      </g>
     </g>
    </g>
    <g id="ytick_7">
     <g id="line2d_18">
      <g>
       <use xlink:href="#m63cd5bf166" x="63.2" y="210.433333" style="stroke: #000000; stroke-width: 0.8"/>
      </g>
     </g>
     <g id="text_19">
      <!-- 0.00 -->
      <g transform="translate(33.934375 214.232552) scale(0.1 -0.1)">
       <use xlink:href="#DejaVuSans-30"/>
       <use xlink:href="#DejaVuSans-2e" x="63.623047"/>
       <use xlink:href="#DejaVuSans-30" x="95.410156"/>
       <use xlink:href="#DejaVuSans-30" x="159.033203"/>
      </g>
     </g>
    </g>
    <g id="ytick_8">
     <g id="line2d_19">
      <g>
       <use xlink:href="#m63cd5bf166" x="63.2" y="188.179167" style="stroke: #000000; stroke-width: 0.8"/>
      </g>
     </g>
     <g id="text_20">
      <!-- 0.05 -->
      <g transform="translate(33.934375 191.978385) scale(0.1 -0.1)">
       <use xlink:href="#DejaVuSans-30"/>
       <use xlink:href="#DejaVuSans-2e" x="63.623047"/>
       <use xlink:href="#DejaVuSans-30" x="95.410156"/>
       <use xlink:href="#DejaVuSans-35" x="159.033203"/>
      </g>
     </g>
    </g>
    <g id="text_21">
     <!-- $\tau$  [Nm] -->
     <g transform="translate(19.475 229.183333) rotate(-90) scale(0.1 -0.1)">
      <defs>
       <path id="DejaVuSans-Oblique-3c4" d="M 2103 638 
Q 2188 488 2525 488 
L 2800 488 
L 2706 0 
L 2363 0 
Q 1800 0 1600 300 
Q 1403 606 1534 1269 
L 1856 2925 
L 541 2925 
L 653 3500 
L 3881 3500 
L 3769 2925 
L 2444 2925 
L 2113 1234 
Q 2025 781 2103 638 
z
" transform="scale(0.015625)"/>
       <path id="DejaVuSans-4e" d="M 628 4666 
L 1478 4666 
L 3547 763 
L 3547 4666 
L 4159 4666 
L 4159 0 
L 3309 0 
L 1241 3903 
L 1241 0 
L 628 0 
L 628 4666 
z
" transform="scale(0.015625)"/>
      </defs>
      <use xlink:href="#DejaVuSans-Oblique-3c4" transform="translate(0 0.015625)"/>
      <use xlink:href="#DejaVuSans-20" transform="translate(60.205078 0.015625)"/>
      <use xlink:href="#DejaVuSans-20" transform="translate(91.992188 0.015625)"/>
      <use xlink:href="#DejaVuSans-5b" transform="translate(123.779297 0.015625)"/>
      <use xlink:href="#DejaVuSans-4e" transform="translate(162.792969 0.015625)"/>
      <use xlink:href="#DejaVuSans-6d" transform="translate(237.597656 0.015625)"/>
      <use xlink:href="#DejaVuSans-5d" transform="translate(335.009766 0.015625)"/>
     </g>
    </g>
   </g>
   <g id="line2d_20">
    <path d="M 63.2 179.2775 
L 63.2 179.2775 
L 66.588587 179.2775 
L 66.588587 179.2775 
L 69.977173 179.2775 
L 69.977173 179.2775 
L 73.36576 179.2775 
L 73.36576 179.2775 
L 76.754346 179.2775 
L 76.754346 179.2775 
L 80.142933 179.2775 
L 80.142933 179.2775 
L 83.531519 179.2775 
L 83.531519 179.2775 
L 86.920106 179.2775 
L 86.920106 179.2775 
L 90.308692 179.2775 
L 90.308692 179.2775 
L 93.697279 179.2775 
L 93.697279 179.2775 
L 97.085865 179.2775 
L 97.085865 179.2775 
L 100.474452 179.2775 
L 100.474452 179.2775 
L 103.863039 179.2775 
L 103.863039 179.2775 
L 107.251625 179.2775 
L 107.251625 179.2775 
L 110.640212 179.2775 
L 110.640212 179.2775 
L 114.028798 179.2775 
L 114.028798 179.2775 
L 117.417385 179.2775 
L 117.417385 210.433333 
L 120.805971 210.433333 
L 120.805971 210.433333 
L 124.194558 210.433333 
L 124.194558 210.433333 
L 127.583144 210.433333 
L 127.583144 179.2775 
L 130.971731 179.2775 
L 130.971731 210.433333 
L 134.360317 210.433333 
L 134.360317 210.433333 
L 137.748904 210.433333 
L 137.748904 210.433333 
L 141.137491 210.433333 
L 141.137491 210.433333 
L 144.526077 210.433333 
L 144.526077 210.433333 
L 147.914664 210.433333 
L 147.914664 210.433333 
L 151.30325 210.433333 
L 151.30325 210.433333 
L 154.691837 210.433333 
L 154.691837 210.433333 
L 158.080423 210.433333 
L 158.080423 179.2775 
L 161.46901 179.2775 
L 161.46901 210.433333 
L 164.857596 210.433333 
L 164.857596 210.433333 
L 168.246183 210.433333 
L 168.246183 210.433333 
L 171.634769 210.433333 
L 171.634769 210.433333 
L 175.023356 210.433333 
L 175.023356 210.433333 
L 178.411943 210.433333 
L 178.411943 210.433333 
L 181.800529 210.433333 
L 181.800529 179.2775 
L 185.189116 179.2775 
L 185.189116 210.433333 
L 188.577702 210.433333 
L 188.577702 210.433333 
L 191.966289 210.433333 
L 191.966289 210.433333 
L 195.354875 210.433333 
L 195.354875 210.433333 
L 198.743462 210.433333 
L 198.743462 210.433333 
L 202.132048 210.433333 
L 202.132048 179.2775 
L 205.520635 179.2775 
L 205.520635 210.433333 
L 208.909221 210.433333 
L 208.909221 210.433333 
L 212.297808 210.433333 
L 212.297808 210.433333 
L 215.686395 210.433333 
L 215.686395 210.433333 
L 219.074981 210.433333 
L 219.074981 210.433333 
L 222.463568 210.433333 
L 222.463568 210.433333 
L 225.852154 210.433333 
L 225.852154 179.2775 
L 229.240741 179.2775 
L 229.240741 210.433333 
L 232.629327 210.433333 
L 232.629327 210.433333 
L 236.017914 210.433333 
L 236.017914 210.433333 
L 239.4065 210.433333 
L 239.4065 210.433333 
L 242.795087 210.433333 
L 242.795087 210.433333 
L 246.183673 210.433333 
L 246.183673 179.2775 
L 249.57226 179.2775 
L 249.57226 210.433333 
L 252.960847 210.433333 
L 252.960847 210.433333 
L 256.349433 210.433333 
L 256.349433 210.433333 
L 259.73802 210.433333 
L 259.73802 210.433333 
L 263.126606 210.433333 
L 263.126606 210.433333 
L 266.515193 210.433333 
L 266.515193 210.433333 
L 269.903779 210.433333 
L 269.903779 210.433333 
L 273.292366 210.433333 
" clip-path="url(#pcfa28c8a16)" style="fill: none; stroke: #000000; stroke-width: 1.5; stroke-linecap: square"/>
   </g>
   <g id="patch_17">
    <path d="M 63.2 246.04 
L 63.2 174.826667 
" style="fill: none; stroke: #000000; stroke-width: 0.8; stroke-linejoin: miter; stroke-linecap: square"/>
   </g>
   <g id="patch_18">
    <path d="M 276.680952 246.04 
L 276.680952 174.826667 
" style="fill: none; stroke: #000000; stroke-width: 0.8; stroke-linejoin: miter; stroke-linecap: square"/>
   </g>
   <g id="patch_19">
    <path d="M 63.2 246.04 
L 276.680952 246.04 
" style="fill: none; stroke: #000000; stroke-width: 0.8; stroke-linejoin: miter; stroke-linecap: square"/>
   </g>
   <g id="patch_20">
    <path d="M 63.2 174.826667 
L 276.680952 174.826667 
" style="fill: none; stroke: #000000; stroke-width: 0.8; stroke-linejoin: miter; stroke-linecap: square"/>
   </g>
  </g>
 </g>
 <defs>
  <clipPath id="p911f2188d8">
   <rect x="63.2" y="10.8" width="213.480952" height="71.213333"/>
  </clipPath>
  <clipPath id="pfa91a3a361">
   <rect x="63.2" y="92.813333" width="213.480952" height="71.213333"/>
  </clipPath>
  <clipPath id="pcfa28c8a16">
   <rect x="63.2" y="174.826667" width="213.480952" height="71.213333"/>
  </clipPath>
 </defs>
</svg>
