<?xml version="1.0" encoding="utf-8" standalone="no"?>
<!DOCTYPE svg PUBLIC "-//W3C//DTD SVG 1.1//EN"
  "http://www.w3.org/Graphics/SVG/1.1/DTD/svg11.dtd">
<svg xmlns:xlink="http://www.w3.org/1999/xlink" width="288pt" height="288pt" viewBox="0 0 288 288" xmlns="http://www.w3.org/2000/svg" version="1.1">
 <metadata>
  <rdf:RDF xmlns:dc="http://purl.org/dc/elements/1.1/" xmlns:cc="http://creativecommons.org/ns#" xmlns:rdf="http://www.w3.org/1999/02/22-rdf-syntax-ns#">
   <cc:Work>
    <dc:type rdf:resource="http://purl.org/dc/dcmitype/StillImage"/>
    <dc:date>2024-07-27T22:58:51.498615</dc:date>
    <dc:format>image/svg+xml</dc:format>
    <dc:creator>
     <cc:Agent>
      <dc:title>Matplotlib v3.7.2, https://matplotlib.org/</dc:title>
     </cc:Agent>
    </dc:creator>
   </cc:Work>
  </rdf:RDF>
 </metadata>
 <defs>
  <style type="text/css">*{stroke-linejoin: round; stroke-linecap: butt}</style>
 </defs>
 <g id="figure_1">
  <g id="patch_1">
   <path d="M 0 288 
L 288 288 
L 288 0 
L 0 0 
z
" style="fill: #ffffff"/>
  </g>
  <g id="axes_1">
   <g id="patch_2">
    <path d="M 75.745 82.013333 
L 273.207598 82.013333 
L 273.207598 10.8 
L 75.745 10.8 
z
" style="fill: #ffffff"/>
   </g>
   <g id="patch_3">
    <path d="M 75.745 24.107063 
L 277.079414 24.107063 
L 277.079414 14.03697 
L 75.745 14.03697 
z
" clip-path="url(#pf4d2c53986)" style="fill: #ff0000; opacity: 0.2"/>
   </g>
   <g id="matplotlib.axis_1"/>
   <g id="matplotlib.axis_2">
    <g id="ytick_1">
     <g id="line2d_1">
      <defs>
       <path id="m69bb338227" d="M 0 0 
L -3.5 0 
" style="stroke: #000000; stroke-width: 0.8"/>
      </defs>
      <g>
       <use xlink:href="#m69bb338227" x="75.745" y="69.422484" style="stroke: #000000; stroke-width: 0.8"/>
      </g>
     </g>
     <g id="text_1">
      <!-- −50 -->
      <g transform="translate(47.640312 73.221703) scale(0.1 -0.1)">
       <defs>
        <path id="DejaVuSans-2212" d="M 678 2272 
L 4684 2272 
L 4684 1741 
L 678 1741 
L 678 2272 
z
" transform="scale(0.015625)"/>
        <path id="DejaVuSans-35" d="M 691 4666 
L 3169 4666 
L 3169 4134 
L 1269 4134 
L 1269 2991 
Q 1406 3038 1543 3061 
Q 1681 3084 1819 3084 
Q 2600 3084 3056 2656 
Q 3513 2228 3513 1497 
Q 3513 744 3044 326 
Q 2575 -91 1722 -91 
Q 1428 -91 1123 -41 
Q 819 9 494 109 
L 494 744 
Q 775 591 1075 516 
Q 1375 441 1709 441 
Q 2250 441 2565 725 
Q 2881 1009 2881 1497 
Q 2881 1984 2565 2268 
Q 2250 2553 1709 2553 
Q 1456 2553 1204 2497 
Q 953 2441 691 2322 
L 691 4666 
z
" transform="scale(0.015625)"/>
        <path id="DejaVuSans-30" d="M 2034 4250 
Q 1547 4250 1301 3770 
Q 1056 3291 1056 2328 
Q 1056 1369 1301 889 
Q 1547 409 2034 409 
Q 2525 409 2770 889 
Q 3016 1369 3016 2328 
Q 3016 3291 2770 3770 
Q 2525 4250 2034 4250 
z
M 2034 4750 
Q 2819 4750 3233 4129 
Q 3647 3509 3647 2328 
Q 3647 1150 3233 529 
Q 2819 -91 2034 -91 
Q 1250 -91 836 529 
Q 422 1150 422 2328 
Q 422 3509 836 4129 
Q 1250 4750 2034 4750 
z
" transform="scale(0.015625)"/>
       </defs>
       <use xlink:href="#DejaVuSans-2212"/>
       <use xlink:href="#DejaVuSans-35" x="83.789062"/>
       <use xlink:href="#DejaVuSans-30" x="147.412109"/>
      </g>
     </g>
    </g>
    <g id="ytick_2">
     <g id="line2d_2">
      <g>
       <use xlink:href="#m69bb338227" x="75.745" y="44.24725" style="stroke: #000000; stroke-width: 0.8"/>
      </g>
     </g>
     <g id="text_2">
      <!-- −25 -->
      <g transform="translate(47.640312 48.046469) scale(0.1 -0.1)">
       <defs>
        <path id="DejaVuSans-32" d="M 1228 531 
L 3431 531 
L 3431 0 
L 469 0 
L 469 531 
Q 828 903 1448 1529 
Q 2069 2156 2228 2338 
Q 2531 2678 2651 2914 
Q 2772 3150 2772 3378 
Q 2772 3750 2511 3984 
Q 2250 4219 1831 4219 
Q 1534 4219 1204 4116 
Q 875 4013 500 3803 
L 500 4441 
Q 881 4594 1212 4672 
Q 1544 4750 1819 4750 
Q 2544 4750 2975 4387 
Q 3406 4025 3406 3419 
Q 3406 3131 3298 2873 
Q 3191 2616 2906 2266 
Q 2828 2175 2409 1742 
Q 1991 1309 1228 531 
z
" transform="scale(0.015625)"/>
       </defs>
       <use xlink:href="#DejaVuSans-2212"/>
       <use xlink:href="#DejaVuSans-32" x="83.789062"/>
       <use xlink:href="#DejaVuSans-35" x="147.412109"/>
      </g>
     </g>
    </g>
    <g id="ytick_3">
     <g id="line2d_3">
      <g>
       <use xlink:href="#m69bb338227" x="75.745" y="19.072016" style="stroke: #000000; stroke-width: 0.8"/>
      </g>
     </g>
     <g id="text_3">
      <!-- 0 -->
      <g transform="translate(62.3825 22.871235) scale(0.1 -0.1)">
       <use xlink:href="#DejaVuSans-30"/>
      </g>
     </g>
    </g>
    <g id="text_4">
     <!-- $\theta$ [$^\circ$] -->
     <g transform="translate(41.560625 58.706667) rotate(-90) scale(0.1 -0.1)">
      <defs>
       <path id="DejaVuSans-Oblique-3b8" d="M 2913 2219 
L 925 2219 
Q 791 1284 928 888 
Q 1100 400 1566 400 
Q 2034 400 2391 891 
Q 2703 1322 2913 2219 
z
M 3009 2750 
Q 3094 3638 2984 3950 
Q 2813 4444 2353 4444 
Q 1875 4444 1525 3956 
Q 1250 3563 1034 2750 
L 3009 2750 
z
M 2444 4913 
Q 3194 4913 3494 4250 
Q 3794 3591 3566 2422 
Q 3341 1256 2781 594 
Q 2225 -72 1475 -72 
Q 722 -72 425 594 
Q 128 1256 353 2422 
Q 581 3591 1134 4250 
Q 1691 4913 2444 4913 
z
" transform="scale(0.015625)"/>
       <path id="DejaVuSans-20" transform="scale(0.015625)"/>
       <path id="DejaVuSans-5b" d="M 550 4863 
L 1875 4863 
L 1875 4416 
L 1125 4416 
L 1125 -397 
L 1875 -397 
L 1875 -844 
L 550 -844 
L 550 4863 
z
" transform="scale(0.015625)"/>
       <path id="DejaVuSans-2218" d="M 2003 2603 
Q 1753 2603 1581 2429 
Q 1409 2256 1409 2006 
Q 1409 1759 1581 1589 
Q 1753 1419 2003 1419 
Q 2253 1419 2425 1589 
Q 2597 1759 2597 2006 
Q 2597 2253 2423 2428 
Q 2250 2603 2003 2603 
z
M 2003 3006 
Q 2203 3006 2387 2929 
Q 2572 2853 2706 2709 
Q 2850 2569 2922 2390 
Q 2994 2212 2994 2006 
Q 2994 1594 2705 1308 
Q 2416 1022 1997 1022 
Q 1575 1022 1294 1303 
Q 1013 1584 1013 2006 
Q 1013 2425 1300 2715 
Q 1588 3006 2003 3006 
z
" transform="scale(0.015625)"/>
       <path id="DejaVuSans-5d" d="M 1947 4863 
L 1947 -844 
L 622 -844 
L 622 -397 
L 1369 -397 
L 1369 4416 
L 622 4416 
L 622 4863 
L 1947 4863 
z
" transform="scale(0.015625)"/>
      </defs>
      <use xlink:href="#DejaVuSans-Oblique-3b8" transform="translate(0 0.234375)"/>
      <use xlink:href="#DejaVuSans-20" transform="translate(61.181641 0.234375)"/>
      <use xlink:href="#DejaVuSans-5b" transform="translate(92.96875 0.234375)"/>
      <use xlink:href="#DejaVuSans-2218" transform="translate(146.577148 38.515625) scale(0.7)"/>
      <use xlink:href="#DejaVuSans-5d" transform="translate(206.767578 0.234375)"/>
     </g>
    </g>
   </g>
   <g id="line2d_4">
    <path d="M 75.745 78.776364 
L 79.616816 78.776364 
L 83.488631 77.35377 
L 87.360447 75.234529 
L 91.232263 72.428269 
L 95.104078 68.944518 
L 98.975894 64.792703 
L 102.84771 59.982151 
L 106.719525 54.522093 
L 110.591341 49.854087 
L 114.463156 45.967498 
L 118.334972 42.851804 
L 122.206788 39.064162 
L 126.078603 36.046366 
L 129.950419 33.78801 
L 133.822235 30.846374 
L 137.69405 28.663366 
L 141.565866 27.2287 
L 145.437682 25.099768 
L 149.309497 23.718596 
L 153.181313 23.07501 
L 157.053129 21.726513 
L 160.924944 21.115243 
L 164.79676 19.798708 
L 168.668576 19.219047 
L 172.540391 19.3662 
L 176.412207 18.797784 
L 180.284022 18.956047 
L 184.155838 18.398607 
L 188.027654 18.567713 
L 191.899469 18.020985 
L 195.771285 18.200673 
L 199.643101 17.664398 
L 203.514916 17.854413 
L 207.386732 17.328339 
L 211.258548 17.528429 
L 215.130363 17.012306 
L 219.002179 17.222226 
L 222.873995 16.715812 
L 226.74581 16.935321 
L 230.617626 16.438378 
L 234.489442 16.667239 
L 238.361257 16.179533 
L 242.233073 16.417517 
L 246.104889 15.938818 
L 249.976704 16.185697 
L 253.84852 15.715783 
L 257.720335 15.971336 
L 261.592151 16.942414 
L 265.463967 17.186753 
L 269.335782 16.71429 
L 273.207598 16.967283 
" clip-path="url(#pf4d2c53986)" style="fill: none; stroke: #0000ff; stroke-width: 1.5; stroke-linecap: square"/>
    <defs>
     <path id="m66d20d2a01" d="M -3 0 
L 3 0 
M 0 3 
L 0 -3 
" style="stroke: #0000ff"/>
    </defs>
    <g clip-path="url(#pf4d2c53986)">
     <use xlink:href="#m66d20d2a01" x="75.745" y="78.776364" style="fill: #0000ff; stroke: #0000ff"/>
     <use xlink:href="#m66d20d2a01" x="79.616816" y="78.776364" style="fill: #0000ff; stroke: #0000ff"/>
     <use xlink:href="#m66d20d2a01" x="83.488631" y="77.35377" style="fill: #0000ff; stroke: #0000ff"/>
     <use xlink:href="#m66d20d2a01" x="87.360447" y="75.234529" style="fill: #0000ff; stroke: #0000ff"/>
     <use xlink:href="#m66d20d2a01" x="91.232263" y="72.428269" style="fill: #0000ff; stroke: #0000ff"/>
     <use xlink:href="#m66d20d2a01" x="95.104078" y="68.944518" style="fill: #0000ff; stroke: #0000ff"/>
     <use xlink:href="#m66d20d2a01" x="98.975894" y="64.792703" style="fill: #0000ff; stroke: #0000ff"/>
     <use xlink:href="#m66d20d2a01" x="102.84771" y="59.982151" style="fill: #0000ff; stroke: #0000ff"/>
     <use xlink:href="#m66d20d2a01" x="106.719525" y="54.522093" style="fill: #0000ff; stroke: #0000ff"/>
     <use xlink:href="#m66d20d2a01" x="110.591341" y="49.854087" style="fill: #0000ff; stroke: #0000ff"/>
     <use xlink:href="#m66d20d2a01" x="114.463156" y="45.967498" style="fill: #0000ff; stroke: #0000ff"/>
     <use xlink:href="#m66d20d2a01" x="118.334972" y="42.851804" style="fill: #0000ff; stroke: #0000ff"/>
     <use xlink:href="#m66d20d2a01" x="122.206788" y="39.064162" style="fill: #0000ff; stroke: #0000ff"/>
     <use xlink:href="#m66d20d2a01" x="126.078603" y="36.046366" style="fill: #0000ff; stroke: #0000ff"/>
     <use xlink:href="#m66d20d2a01" x="129.950419" y="33.78801" style="fill: #0000ff; stroke: #0000ff"/>
     <use xlink:href="#m66d20d2a01" x="133.822235" y="30.846374" style="fill: #0000ff; stroke: #0000ff"/>
     <use xlink:href="#m66d20d2a01" x="137.69405" y="28.663366" style="fill: #0000ff; stroke: #0000ff"/>
     <use xlink:href="#m66d20d2a01" x="141.565866" y="27.2287" style="fill: #0000ff; stroke: #0000ff"/>
     <use xlink:href="#m66d20d2a01" x="145.437682" y="25.099768" style="fill: #0000ff; stroke: #0000ff"/>
     <use xlink:href="#m66d20d2a01" x="149.309497" y="23.718596" style="fill: #0000ff; stroke: #0000ff"/>
     <use xlink:href="#m66d20d2a01" x="153.181313" y="23.07501" style="fill: #0000ff; stroke: #0000ff"/>
     <use xlink:href="#m66d20d2a01" x="157.053129" y="21.726513" style="fill: #0000ff; stroke: #0000ff"/>
     <use xlink:href="#m66d20d2a01" x="160.924944" y="21.115243" style="fill: #0000ff; stroke: #0000ff"/>
     <use xlink:href="#m66d20d2a01" x="164.79676" y="19.798708" style="fill: #0000ff; stroke: #0000ff"/>
     <use xlink:href="#m66d20d2a01" x="168.668576" y="19.219047" style="fill: #0000ff; stroke: #0000ff"/>
     <use xlink:href="#m66d20d2a01" x="172.540391" y="19.3662" style="fill: #0000ff; stroke: #0000ff"/>
     <use xlink:href="#m66d20d2a01" x="176.412207" y="18.797784" style="fill: #0000ff; stroke: #0000ff"/>
     <use xlink:href="#m66d20d2a01" x="180.284022" y="18.956047" style="fill: #0000ff; stroke: #0000ff"/>
     <use xlink:href="#m66d20d2a01" x="184.155838" y="18.398607" style="fill: #0000ff; stroke: #0000ff"/>
     <use xlink:href="#m66d20d2a01" x="188.027654" y="18.567713" style="fill: #0000ff; stroke: #0000ff"/>
     <use xlink:href="#m66d20d2a01" x="191.899469" y="18.020985" style="fill: #0000ff; stroke: #0000ff"/>
     <use xlink:href="#m66d20d2a01" x="195.771285" y="18.200673" style="fill: #0000ff; stroke: #0000ff"/>
     <use xlink:href="#m66d20d2a01" x="199.643101" y="17.664398" style="fill: #0000ff; stroke: #0000ff"/>
     <use xlink:href="#m66d20d2a01" x="203.514916" y="17.854413" style="fill: #0000ff; stroke: #0000ff"/>
     <use xlink:href="#m66d20d2a01" x="207.386732" y="17.328339" style="fill: #0000ff; stroke: #0000ff"/>
     <use xlink:href="#m66d20d2a01" x="211.258548" y="17.528429" style="fill: #0000ff; stroke: #0000ff"/>
     <use xlink:href="#m66d20d2a01" x="215.130363" y="17.012306" style="fill: #0000ff; stroke: #0000ff"/>
     <use xlink:href="#m66d20d2a01" x="219.002179" y="17.222226" style="fill: #0000ff; stroke: #0000ff"/>
     <use xlink:href="#m66d20d2a01" x="222.873995" y="16.715812" style="fill: #0000ff; stroke: #0000ff"/>
     <use xlink:href="#m66d20d2a01" x="226.74581" y="16.935321" style="fill: #0000ff; stroke: #0000ff"/>
     <use xlink:href="#m66d20d2a01" x="230.617626" y="16.438378" style="fill: #0000ff; stroke: #0000ff"/>
     <use xlink:href="#m66d20d2a01" x="234.489442" y="16.667239" style="fill: #0000ff; stroke: #0000ff"/>
     <use xlink:href="#m66d20d2a01" x="238.361257" y="16.179533" style="fill: #0000ff; stroke: #0000ff"/>
     <use xlink:href="#m66d20d2a01" x="242.233073" y="16.417517" style="fill: #0000ff; stroke: #0000ff"/>
     <use xlink:href="#m66d20d2a01" x="246.104889" y="15.938818" style="fill: #0000ff; stroke: #0000ff"/>
     <use xlink:href="#m66d20d2a01" x="249.976704" y="16.185697" style="fill: #0000ff; stroke: #0000ff"/>
     <use xlink:href="#m66d20d2a01" x="253.84852" y="15.715783" style="fill: #0000ff; stroke: #0000ff"/>
     <use xlink:href="#m66d20d2a01" x="257.720335" y="15.971336" style="fill: #0000ff; stroke: #0000ff"/>
     <use xlink:href="#m66d20d2a01" x="261.592151" y="16.942414" style="fill: #0000ff; stroke: #0000ff"/>
     <use xlink:href="#m66d20d2a01" x="265.463967" y="17.186753" style="fill: #0000ff; stroke: #0000ff"/>
     <use xlink:href="#m66d20d2a01" x="269.335782" y="16.71429" style="fill: #0000ff; stroke: #0000ff"/>
     <use xlink:href="#m66d20d2a01" x="273.207598" y="16.967283" style="fill: #0000ff; stroke: #0000ff"/>
    </g>
   </g>
   <g id="patch_4">
    <path d="M 75.745 82.013333 
L 75.745 10.8 
" style="fill: none; stroke: #000000; stroke-width: 0.8; stroke-linejoin: miter; stroke-linecap: square"/>
   </g>
   <g id="patch_5">
    <path d="M 273.207598 82.013333 
L 273.207598 10.8 
" style="fill: none; stroke: #000000; stroke-width: 0.8; stroke-linejoin: miter; stroke-linecap: square"/>
   </g>
   <g id="patch_6">
    <path d="M 75.745 82.013333 
L 273.207598 82.013333 
" style="fill: none; stroke: #000000; stroke-width: 0.8; stroke-linejoin: miter; stroke-linecap: square"/>
   </g>
   <g id="patch_7">
    <path d="M 75.745 10.8 
L 273.207598 10.8 
" style="fill: none; stroke: #000000; stroke-width: 0.8; stroke-linejoin: miter; stroke-linecap: square"/>
   </g>
   <g id="legend_1">
    <g id="patch_8">
     <path d="M 222.007598 77.013333 
L 266.207598 77.013333 
Q 268.207598 77.013333 268.207598 75.013333 
L 268.207598 61.335208 
Q 268.207598 59.335208 266.207598 59.335208 
L 222.007598 59.335208 
Q 220.007598 59.335208 220.007598 61.335208 
L 220.007598 75.013333 
Q 220.007598 77.013333 222.007598 77.013333 
z
" style="fill: #ffffff; opacity: 0.8; stroke: #cccccc; stroke-linejoin: miter"/>
    </g>
    <g id="line2d_5">
     <path d="M 224.007598 67.433646 
L 234.007598 67.433646 
L 244.007598 67.433646 
" style="fill: none; stroke: #0000ff; stroke-width: 1.5; stroke-linecap: square"/>
     <g>
      <use xlink:href="#m66d20d2a01" x="234.007598" y="67.433646" style="fill: #0000ff; stroke: #0000ff"/>
     </g>
    </g>
    <g id="text_5">
     <!-- $\theta_w$ -->
     <g transform="translate(252.007598 70.933646) scale(0.1 -0.1)">
      <defs>
       <path id="DejaVuSans-Oblique-77" d="M 544 3500 
L 1113 3500 
L 1259 684 
L 2566 3500 
L 3231 3500 
L 3425 684 
L 4666 3500 
L 5241 3500 
L 3641 0 
L 2969 0 
L 2797 2900 
L 1459 0 
L 781 0 
L 544 3500 
z
" transform="scale(0.015625)"/>
      </defs>
      <use xlink:href="#DejaVuSans-Oblique-3b8" transform="translate(0 0.234375)"/>
      <use xlink:href="#DejaVuSans-Oblique-77" transform="translate(61.181641 -16.171875) scale(0.7)"/>
     </g>
    </g>
   </g>
  </g>
  <g id="axes_2">
   <g id="patch_9">
    <path d="M 75.745 164.026667 
L 273.207598 164.026667 
L 273.207598 92.813333 
L 75.745 92.813333 
z
" style="fill: #ffffff"/>
   </g>
   <g id="patch_10">
    <path d="M 75.745 100.740237 
L 277.079414 100.740237 
L 277.079414 100.699351 
L 75.745 100.699351 
z
" clip-path="url(#pb7fae8a075)" style="fill: #ff0000; opacity: 0.2"/>
   </g>
   <g id="matplotlib.axis_3"/>
   <g id="matplotlib.axis_4">
    <g id="ytick_4">
     <g id="line2d_6">
      <g>
       <use xlink:href="#m69bb338227" x="75.745" y="141.605338" style="stroke: #000000; stroke-width: 0.8"/>
      </g>
     </g>
     <g id="text_6">
      <!-- −10000 -->
      <g transform="translate(28.552812 145.404557) scale(0.1 -0.1)">
       <defs>
        <path id="DejaVuSans-31" d="M 794 531 
L 1825 531 
L 1825 4091 
L 703 3866 
L 703 4441 
L 1819 4666 
L 2450 4666 
L 2450 531 
L 3481 531 
L 3481 0 
L 794 0 
L 794 531 
z
" transform="scale(0.015625)"/>
       </defs>
       <use xlink:href="#DejaVuSans-2212"/>
       <use xlink:href="#DejaVuSans-31" x="83.789062"/>
       <use xlink:href="#DejaVuSans-30" x="147.412109"/>
       <use xlink:href="#DejaVuSans-30" x="211.035156"/>
       <use xlink:href="#DejaVuSans-30" x="274.658203"/>
       <use xlink:href="#DejaVuSans-30" x="338.28125"/>
      </g>
     </g>
    </g>
    <g id="ytick_5">
     <g id="line2d_7">
      <g>
       <use xlink:href="#m69bb338227" x="75.745" y="100.719794" style="stroke: #000000; stroke-width: 0.8"/>
      </g>
     </g>
     <g id="text_7">
      <!-- 0 -->
      <g transform="translate(62.3825 104.519013) scale(0.1 -0.1)">
       <use xlink:href="#DejaVuSans-30"/>
      </g>
     </g>
    </g>
    <g id="text_8">
     <!-- $\dot{\theta}$  [$^\circ$/s] -->
     <g transform="translate(22.473125 146.62) rotate(-90) scale(0.1 -0.1)">
      <defs>
       <path id="DejaVuSans-307" d="M -1894 4863 
L -1319 4863 
L -1319 4134 
L -1894 4134 
L -1894 4863 
z
M -1600 3584 
L -1600 3584 
z
" transform="scale(0.015625)"/>
       <path id="DejaVuSans-2f" d="M 1625 4666 
L 2156 4666 
L 531 -594 
L 0 -594 
L 1625 4666 
z
" transform="scale(0.015625)"/>
       <path id="DejaVuSans-73" d="M 2834 3397 
L 2834 2853 
Q 2591 2978 2328 3040 
Q 2066 3103 1784 3103 
Q 1356 3103 1142 2972 
Q 928 2841 928 2578 
Q 928 2378 1081 2264 
Q 1234 2150 1697 2047 
L 1894 2003 
Q 2506 1872 2764 1633 
Q 3022 1394 3022 966 
Q 3022 478 2636 193 
Q 2250 -91 1575 -91 
Q 1294 -91 989 -36 
Q 684 19 347 128 
L 347 722 
Q 666 556 975 473 
Q 1284 391 1588 391 
Q 1994 391 2212 530 
Q 2431 669 2431 922 
Q 2431 1156 2273 1281 
Q 2116 1406 1581 1522 
L 1381 1569 
Q 847 1681 609 1914 
Q 372 2147 372 2553 
Q 372 3047 722 3315 
Q 1072 3584 1716 3584 
Q 2034 3584 2315 3537 
Q 2597 3491 2834 3397 
z
" transform="scale(0.015625)"/>
      </defs>
      <use xlink:href="#DejaVuSans-307" transform="translate(62.88916 34.015625)"/>
      <use xlink:href="#DejaVuSans-Oblique-3b8" transform="translate(0 0.75)"/>
      <use xlink:href="#DejaVuSans-20" transform="translate(61.181641 0.75)"/>
      <use xlink:href="#DejaVuSans-20" transform="translate(92.96875 0.75)"/>
      <use xlink:href="#DejaVuSans-5b" transform="translate(124.755859 0.75)"/>
      <use xlink:href="#DejaVuSans-2218" transform="translate(178.364258 39.03125) scale(0.7)"/>
      <use xlink:href="#DejaVuSans-2f" transform="translate(238.554688 0.75)"/>
      <use xlink:href="#DejaVuSans-73" transform="translate(272.246094 0.75)"/>
      <use xlink:href="#DejaVuSans-5d" transform="translate(324.345703 0.75)"/>
     </g>
    </g>
   </g>
   <g id="line2d_8">
    <path d="M 75.745 100.661636 
L 79.616816 100.661636 
L 83.488631 100.604277 
L 87.360447 100.547708 
L 91.232263 100.49192 
L 95.104078 100.436907 
L 98.975894 100.382659 
L 102.84771 100.329168 
L 106.719525 100.276427 
L 110.591341 100.340743 
L 114.463156 100.404196 
L 118.334972 100.466794 
L 122.206788 100.41223 
L 126.078603 100.474743 
L 129.950419 100.536411 
L 133.822235 100.480928 
L 137.69405 100.54253 
L 141.565866 100.603296 
L 145.437682 100.546921 
L 149.309497 100.60764 
L 153.181313 100.667534 
L 157.053129 100.610294 
L 160.924944 100.670158 
L 164.79676 100.612889 
L 168.668576 100.672724 
L 172.540391 100.731743 
L 176.412207 100.673638 
L 180.284022 100.732645 
L 184.155838 100.674529 
L 188.027654 100.733526 
L 191.899469 100.675399 
L 195.771285 100.734385 
L 199.643101 100.676248 
L 203.514916 100.735224 
L 207.386732 100.677076 
L 211.258548 100.736042 
L 215.130363 100.677884 
L 219.002179 100.73684 
L 222.873995 100.678672 
L 226.74581 100.737619 
L 230.617626 100.679441 
L 234.489442 100.738378 
L 238.361257 100.680191 
L 242.233073 100.739119 
L 246.104889 100.680923 
L 249.976704 100.739841 
L 253.84852 100.681636 
L 257.720335 100.740545 
L 261.592151 100.798647 
L 265.463967 100.739635 
L 269.335782 100.681429 
L 273.207598 100.740338 
" clip-path="url(#pb7fae8a075)" style="fill: none; stroke: #0000ff; stroke-width: 1.5; stroke-linecap: square"/>
   </g>
   <g id="line2d_9">
    <path d="M 75.745 108.369611 
L 79.616816 108.369611 
L 83.488631 115.978681 
L 87.360447 123.547224 
L 91.232263 131.07546 
L 95.104078 138.563609 
L 98.975894 146.011887 
L 102.84771 153.420511 
L 106.719525 160.789697 
L 110.591341 152.820023 
L 114.463156 144.892833 
L 118.334972 137.007894 
L 122.206788 144.464612 
L 126.078603 136.581995 
L 129.950419 128.741387 
L 133.822235 136.242195 
L 137.69405 128.403428 
L 141.565866 120.606432 
L 145.437682 128.150614 
L 149.309497 120.354986 
L 153.181313 112.600894 
L 157.053129 120.187747 
L 160.924944 112.434558 
L 164.79676 120.022309 
L 168.668576 112.270012 
L 172.540391 104.559017 
L 176.412207 112.188732 
L 180.284022 104.478172 
L 184.155838 112.10832 
L 188.027654 104.398191 
L 191.899469 112.028768 
L 195.771285 104.319064 
L 199.643101 111.950065 
L 203.514916 104.240783 
L 207.386732 111.872202 
L 211.258548 104.163337 
L 215.130363 111.795171 
L 219.002179 104.086718 
L 222.873995 111.718961 
L 226.74581 104.010916 
L 230.617626 111.643565 
L 234.489442 103.935923 
L 238.361257 111.568974 
L 242.233073 103.86173 
L 246.104889 111.495177 
L 249.976704 103.788329 
L 253.84852 111.422168 
L 257.720335 103.71571 
L 261.592151 96.050303 
L 265.463967 103.72536 
L 269.335782 111.359529 
L 273.207598 103.653398 
" clip-path="url(#pb7fae8a075)" style="fill: none; stroke: #ff0000; stroke-width: 1.5; stroke-linecap: square"/>
   </g>
   <g id="patch_11">
    <path d="M 75.745 164.026667 
L 75.745 92.813333 
" style="fill: none; stroke: #000000; stroke-width: 0.8; stroke-linejoin: miter; stroke-linecap: square"/>
   </g>
   <g id="patch_12">
    <path d="M 273.207598 164.026667 
L 273.207598 92.813333 
" style="fill: none; stroke: #000000; stroke-width: 0.8; stroke-linejoin: miter; stroke-linecap: square"/>
   </g>
   <g id="patch_13">
    <path d="M 75.745 164.026667 
L 273.207598 164.026667 
" style="fill: none; stroke: #000000; stroke-width: 0.8; stroke-linejoin: miter; stroke-linecap: square"/>
   </g>
   <g id="patch_14">
    <path d="M 75.745 92.813333 
L 273.207598 92.813333 
" style="fill: none; stroke: #000000; stroke-width: 0.8; stroke-linejoin: miter; stroke-linecap: square"/>
   </g>
   <g id="legend_2">
    <g id="patch_15">
     <path d="M 162.907598 159.026667 
L 266.207598 159.026667 
Q 268.207598 159.026667 268.207598 157.026667 
L 268.207598 140.226667 
Q 268.207598 138.226667 266.207598 138.226667 
L 162.907598 138.226667 
Q 160.907598 138.226667 160.907598 140.226667 
L 160.907598 157.026667 
Q 160.907598 159.026667 162.907598 159.026667 
z
" style="fill: #ffffff; opacity: 0.8; stroke: #cccccc; stroke-linejoin: miter"/>
    </g>
    <g id="line2d_10">
     <path d="M 164.907598 149.446979 
L 174.907598 149.446979 
L 184.907598 149.446979 
" style="fill: none; stroke: #0000ff; stroke-width: 1.5; stroke-linecap: square"/>
    </g>
    <g id="text_9">
     <!-- $\dot{\theta}_b$ -->
     <g transform="translate(192.907598 152.946979) scale(0.1 -0.1)">
      <defs>
       <path id="DejaVuSans-Oblique-62" d="M 3169 2138 
Q 3169 2591 2961 2847 
Q 2753 3103 2388 3103 
Q 2122 3103 1889 2973 
Q 1656 2844 1484 2597 
Q 1303 2338 1198 1995 
Q 1094 1653 1094 1313 
Q 1094 881 1298 636 
Q 1503 391 1863 391 
Q 2134 391 2365 517 
Q 2597 644 2772 891 
Q 2950 1147 3059 1487 
Q 3169 1828 3169 2138 
z
M 1381 2969 
Q 1594 3256 1914 3420 
Q 2234 3584 2584 3584 
Q 3122 3584 3439 3221 
Q 3756 2859 3756 2241 
Q 3756 1734 3570 1259 
Q 3384 784 3041 416 
Q 2816 172 2522 40 
Q 2228 -91 1906 -91 
Q 1566 -91 1316 65 
Q 1066 222 909 531 
L 806 0 
L 231 0 
L 1178 4863 
L 1753 4863 
L 1381 2969 
z
" transform="scale(0.015625)"/>
      </defs>
      <use xlink:href="#DejaVuSans-307" transform="translate(62.88916 34.015625)"/>
      <use xlink:href="#DejaVuSans-Oblique-3b8" transform="translate(0 0.75)"/>
      <use xlink:href="#DejaVuSans-Oblique-62" transform="translate(62.138672 -15.65625) scale(0.7)"/>
     </g>
    </g>
    <g id="line2d_11">
     <path d="M 223.907598 149.446979 
L 233.907598 149.446979 
L 243.907598 149.446979 
" style="fill: none; stroke: #ff0000; stroke-width: 1.5; stroke-linecap: square"/>
    </g>
    <g id="text_10">
     <!-- $\dot{\theta}_w$ -->
     <g transform="translate(251.907598 152.946979) scale(0.1 -0.1)">
      <use xlink:href="#DejaVuSans-307" transform="translate(62.88916 34.015625)"/>
      <use xlink:href="#DejaVuSans-Oblique-3b8" transform="translate(0 0.75)"/>
      <use xlink:href="#DejaVuSans-Oblique-77" transform="translate(62.138672 -15.65625) scale(0.7)"/>
     </g>
    </g>
   </g>
  </g>
  <g id="axes_3">
   <g id="patch_16">
    <path d="M 75.745 246.04 
L 273.207598 246.04 
L 273.207598 174.826667 
L 75.745 174.826667 
z
" style="fill: #ffffff"/>
   </g>
   <g id="matplotlib.axis_5">
    <g id="xtick_1">
     <g id="line2d_12">
      <defs>
       <path id="m035be006d9" d="M 0 0 
L 0 3.5 
" style="stroke: #000000; stroke-width: 0.8"/>
      </defs>
      <g>
       <use xlink:href="#m035be006d9" x="75.745" y="246.04" style="stroke: #000000; stroke-width: 0.8"/>
      </g>
     </g>
     <g id="text_11">
      <!-- 0.0 -->
      <g transform="translate(67.793437 260.638438) scale(0.1 -0.1)">
       <defs>
        <path id="DejaVuSans-2e" d="M 684 794 
L 1344 794 
L 1344 0 
L 684 0 
L 684 794 
z
" transform="scale(0.015625)"/>
       </defs>
       <use xlink:href="#DejaVuSans-30"/>
       <use xlink:href="#DejaVuSans-2e" x="63.623047"/>
       <use xlink:href="#DejaVuSans-30" x="95.410156"/>
      </g>
     </g>
    </g>
    <g id="xtick_2">
     <g id="line2d_13">
      <g>
       <use xlink:href="#m035be006d9" x="114.463156" y="246.04" style="stroke: #000000; stroke-width: 0.8"/>
      </g>
     </g>
     <g id="text_12">
      <!-- 0.5 -->
      <g transform="translate(106.511594 260.638438) scale(0.1 -0.1)">
       <use xlink:href="#DejaVuSans-30"/>
       <use xlink:href="#DejaVuSans-2e" x="63.623047"/>
       <use xlink:href="#DejaVuSans-35" x="95.410156"/>
      </g>
     </g>
    </g>
    <g id="xtick_3">
     <g id="line2d_14">
      <g>
       <use xlink:href="#m035be006d9" x="153.181313" y="246.04" style="stroke: #000000; stroke-width: 0.8"/>
      </g>
     </g>
     <g id="text_13">
      <!-- 1.0 -->
      <g transform="translate(145.22975 260.638438) scale(0.1 -0.1)">
       <use xlink:href="#DejaVuSans-31"/>
       <use xlink:href="#DejaVuSans-2e" x="63.623047"/>
       <use xlink:href="#DejaVuSans-30" x="95.410156"/>
      </g>
     </g>
    </g>
    <g id="xtick_4">
     <g id="line2d_15">
      <g>
       <use xlink:href="#m035be006d9" x="191.899469" y="246.04" style="stroke: #000000; stroke-width: 0.8"/>
      </g>
     </g>
     <g id="text_14">
      <!-- 1.5 -->
      <g transform="translate(183.947907 260.638438) scale(0.1 -0.1)">
       <use xlink:href="#DejaVuSans-31"/>
       <use xlink:href="#DejaVuSans-2e" x="63.623047"/>
       <use xlink:href="#DejaVuSans-35" x="95.410156"/>
      </g>
     </g>
    </g>
    <g id="xtick_5">
     <g id="line2d_16">
      <g>
       <use xlink:href="#m035be006d9" x="230.617626" y="246.04" style="stroke: #000000; stroke-width: 0.8"/>
      </g>
     </g>
     <g id="text_15">
      <!-- 2.0 -->
      <g transform="translate(222.666063 260.638438) scale(0.1 -0.1)">
       <use xlink:href="#DejaVuSans-32"/>
       <use xlink:href="#DejaVuSans-2e" x="63.623047"/>
       <use xlink:href="#DejaVuSans-30" x="95.410156"/>
      </g>
     </g>
    </g>
    <g id="xtick_6">
     <g id="line2d_17">
      <g>
       <use xlink:href="#m035be006d9" x="269.335782" y="246.04" style="stroke: #000000; stroke-width: 0.8"/>
      </g>
     </g>
     <g id="text_16">
      <!-- 2.5 -->
      <g transform="translate(261.38422 260.638438) scale(0.1 -0.1)">
       <use xlink:href="#DejaVuSans-32"/>
       <use xlink:href="#DejaVuSans-2e" x="63.623047"/>
       <use xlink:href="#DejaVuSans-35" x="95.410156"/>
      </g>
     </g>
    </g>
    <g id="text_17">
     <!-- Time [s] -->
     <g transform="translate(154.147393 274.316563) scale(0.1 -0.1)">
      <defs>
       <path id="DejaVuSans-54" d="M -19 4666 
L 3928 4666 
L 3928 4134 
L 2272 4134 
L 2272 0 
L 1638 0 
L 1638 4134 
L -19 4134 
L -19 4666 
z
" transform="scale(0.015625)"/>
       <path id="DejaVuSans-69" d="M 603 3500 
L 1178 3500 
L 1178 0 
L 603 0 
L 603 3500 
z
M 603 4863 
L 1178 4863 
L 1178 4134 
L 603 4134 
L 603 4863 
z
" transform="scale(0.015625)"/>
       <path id="DejaVuSans-6d" d="M 3328 2828 
Q 3544 3216 3844 3400 
Q 4144 3584 4550 3584 
Q 5097 3584 5394 3201 
Q 5691 2819 5691 2113 
L 5691 0 
L 5113 0 
L 5113 2094 
Q 5113 2597 4934 2840 
Q 4756 3084 4391 3084 
Q 3944 3084 3684 2787 
Q 3425 2491 3425 1978 
L 3425 0 
L 2847 0 
L 2847 2094 
Q 2847 2600 2669 2842 
Q 2491 3084 2119 3084 
Q 1678 3084 1418 2786 
Q 1159 2488 1159 1978 
L 1159 0 
L 581 0 
L 581 3500 
L 1159 3500 
L 1159 2956 
Q 1356 3278 1631 3431 
Q 1906 3584 2284 3584 
Q 2666 3584 2933 3390 
Q 3200 3197 3328 2828 
z
" transform="scale(0.015625)"/>
       <path id="DejaVuSans-65" d="M 3597 1894 
L 3597 1613 
L 953 1613 
Q 991 1019 1311 708 
Q 1631 397 2203 397 
Q 2534 397 2845 478 
Q 3156 559 3463 722 
L 3463 178 
Q 3153 47 2828 -22 
Q 2503 -91 2169 -91 
Q 1331 -91 842 396 
Q 353 884 353 1716 
Q 353 2575 817 3079 
Q 1281 3584 2069 3584 
Q 2775 3584 3186 3129 
Q 3597 2675 3597 1894 
z
M 3022 2063 
Q 3016 2534 2758 2815 
Q 2500 3097 2075 3097 
Q 1594 3097 1305 2825 
Q 1016 2553 972 2059 
L 3022 2063 
z
" transform="scale(0.015625)"/>
      </defs>
      <use xlink:href="#DejaVuSans-54"/>
      <use xlink:href="#DejaVuSans-69" x="57.958984"/>
      <use xlink:href="#DejaVuSans-6d" x="85.742188"/>
      <use xlink:href="#DejaVuSans-65" x="183.154297"/>
      <use xlink:href="#DejaVuSans-20" x="244.677734"/>
      <use xlink:href="#DejaVuSans-5b" x="276.464844"/>
      <use xlink:href="#DejaVuSans-73" x="315.478516"/>
      <use xlink:href="#DejaVuSans-5d" x="367.578125"/>
     </g>
    </g>
   </g>
   <g id="matplotlib.axis_6">
    <g id="ytick_6">
     <g id="line2d_18">
      <g>
       <use xlink:href="#m69bb338227" x="75.745" y="232.6875" style="stroke: #000000; stroke-width: 0.8"/>
      </g>
     </g>
     <g id="text_18">
      <!-- −0.05 -->
      <g transform="translate(38.099687 236.486719) scale(0.1 -0.1)">
       <use xlink:href="#DejaVuSans-2212"/>
       <use xlink:href="#DejaVuSans-30" x="83.789062"/>
       <use xlink:href="#DejaVuSans-2e" x="147.412109"/>
       <use xlink:href="#DejaVuSans-30" x="179.199219"/>
       <use xlink:href="#DejaVuSans-35" x="242.822266"/>
      </g>
     </g>
    </g>
    <g id="ytick_7">
     <g id="line2d_19">
      <g>
       <use xlink:href="#m69bb338227" x="75.745" y="210.433333" style="stroke: #000000; stroke-width: 0.8"/>
      </g>
     </g>
     <g id="text_19">
      <!-- 0.00 -->
      <g transform="translate(46.479375 214.232552) scale(0.1 -0.1)">
       <use xlink:href="#DejaVuSans-30"/>
       <use xlink:href="#DejaVuSans-2e" x="63.623047"/>
       <use xlink:href="#DejaVuSans-30" x="95.410156"/>
       <use xlink:href="#DejaVuSans-30" x="159.033203"/>
      </g>
     </g>
    </g>
    <g id="ytick_8">
     <g id="line2d_20">
      <g>
       <use xlink:href="#m69bb338227" x="75.745" y="188.179167" style="stroke: #000000; stroke-width: 0.8"/>
      </g>
     </g>
     <g id="text_20">
      <!-- 0.05 -->
      <g transform="translate(46.479375 191.978385) scale(0.1 -0.1)">
       <use xlink:href="#DejaVuSans-30"/>
       <use xlink:href="#DejaVuSans-2e" x="63.623047"/>
       <use xlink:href="#DejaVuSans-30" x="95.410156"/>
       <use xlink:href="#DejaVuSans-35" x="159.033203"/>
      </g>
     </g>
    </g>
    <g id="text_21">
     <!-- $\tau$  [Nm] -->
     <g transform="translate(32.02 229.183333) rotate(-90) scale(0.1 -0.1)">
      <defs>
       <path id="DejaVuSans-Oblique-3c4" d="M 2103 638 
Q 2188 488 2525 488 
L 2800 488 
L 2706 0 
L 2363 0 
Q 1800 0 1600 300 
Q 1403 606 1534 1269 
L 1856 2925 
L 541 2925 
L 653 3500 
L 3881 3500 
L 3769 2925 
L 2444 2925 
L 2113 1234 
Q 2025 781 2103 638 
z
" transform="scale(0.015625)"/>
       <path id="DejaVuSans-4e" d="M 628 4666 
L 1478 4666 
L 3547 763 
L 3547 4666 
L 4159 4666 
L 4159 0 
L 3309 0 
L 1241 3903 
L 1241 0 
L 628 0 
L 628 4666 
z
" transform="scale(0.015625)"/>
      </defs>
      <use xlink:href="#DejaVuSans-Oblique-3c4" transform="translate(0 0.015625)"/>
      <use xlink:href="#DejaVuSans-20" transform="translate(60.205078 0.015625)"/>
      <use xlink:href="#DejaVuSans-20" transform="translate(91.992188 0.015625)"/>
      <use xlink:href="#DejaVuSans-5b" transform="translate(123.779297 0.015625)"/>
      <use xlink:href="#DejaVuSans-4e" transform="translate(162.792969 0.015625)"/>
      <use xlink:href="#DejaVuSans-6d" transform="translate(237.597656 0.015625)"/>
      <use xlink:href="#DejaVuSans-5d" transform="translate(335.009766 0.015625)"/>
     </g>
    </g>
   </g>
   <g id="line2d_21">
    <path d="M 75.745 241.589167 
L 75.745 241.589167 
L 79.616816 241.589167 
L 79.616816 241.589167 
L 83.488631 241.589167 
L 83.488631 241.589167 
L 87.360447 241.589167 
L 87.360447 241.589167 
L 91.232263 241.589167 
L 91.232263 241.589167 
L 95.104078 241.589167 
L 95.104078 241.589167 
L 98.975894 241.589167 
L 98.975894 241.589167 
L 102.84771 241.589167 
L 102.84771 179.2775 
L 106.719525 179.2775 
L 106.719525 179.2775 
L 110.591341 179.2775 
L 110.591341 179.2775 
L 114.463156 179.2775 
L 114.463156 241.589167 
L 118.334972 241.589167 
L 118.334972 179.2775 
L 122.206788 179.2775 
L 122.206788 179.2775 
L 126.078603 179.2775 
L 126.078603 241.589167 
L 129.950419 241.589167 
L 129.950419 179.2775 
L 133.822235 179.2775 
L 133.822235 179.2775 
L 137.69405 179.2775 
L 137.69405 241.589167 
L 141.565866 241.589167 
L 141.565866 179.2775 
L 145.437682 179.2775 
L 145.437682 179.2775 
L 149.309497 179.2775 
L 149.309497 241.589167 
L 153.181313 241.589167 
L 153.181313 179.2775 
L 157.053129 179.2775 
L 157.053129 241.589167 
L 160.924944 241.589167 
L 160.924944 179.2775 
L 164.79676 179.2775 
L 164.79676 179.2775 
L 168.668576 179.2775 
L 168.668576 241.589167 
L 172.540391 241.589167 
L 172.540391 179.2775 
L 176.412207 179.2775 
L 176.412207 241.589167 
L 180.284022 241.589167 
L 180.284022 179.2775 
L 184.155838 179.2775 
L 184.155838 241.589167 
L 188.027654 241.589167 
L 188.027654 179.2775 
L 191.899469 179.2775 
L 191.899469 241.589167 
L 195.771285 241.589167 
L 195.771285 179.2775 
L 199.643101 179.2775 
L 199.643101 241.589167 
L 203.514916 241.589167 
L 203.514916 179.2775 
L 207.386732 179.2775 
L 207.386732 241.589167 
L 211.258548 241.589167 
L 211.258548 179.2775 
L 215.130363 179.2775 
L 215.130363 241.589167 
L 219.002179 241.589167 
L 219.002179 179.2775 
L 222.873995 179.2775 
L 222.873995 241.589167 
L 226.74581 241.589167 
L 226.74581 179.2775 
L 230.617626 179.2775 
L 230.617626 241.589167 
L 234.489442 241.589167 
L 234.489442 179.2775 
L 238.361257 179.2775 
L 238.361257 241.589167 
L 242.233073 241.589167 
L 242.233073 179.2775 
L 246.104889 179.2775 
L 246.104889 241.589167 
L 249.976704 241.589167 
L 249.976704 179.2775 
L 253.84852 179.2775 
L 253.84852 179.2775 
L 257.720335 179.2775 
L 257.720335 241.589167 
L 261.592151 241.589167 
L 261.592151 241.589167 
L 265.463967 241.589167 
L 265.463967 179.2775 
L 269.335782 179.2775 
" clip-path="url(#p79af66ea7a)" style="fill: none; stroke: #000000; stroke-width: 1.5; stroke-linecap: square"/>
   </g>
   <g id="patch_17">
    <path d="M 75.745 246.04 
L 75.745 174.826667 
" style="fill: none; stroke: #000000; stroke-width: 0.8; stroke-linejoin: miter; stroke-linecap: square"/>
   </g>
   <g id="patch_18">
    <path d="M 273.207598 246.04 
L 273.207598 174.826667 
" style="fill: none; stroke: #000000; stroke-width: 0.8; stroke-linejoin: miter; stroke-linecap: square"/>
   </g>
   <g id="patch_19">
    <path d="M 75.745 246.04 
L 273.207598 246.04 
" style="fill: none; stroke: #000000; stroke-width: 0.8; stroke-linejoin: miter; stroke-linecap: square"/>
   </g>
   <g id="patch_20">
    <path d="M 75.745 174.826667 
L 273.207598 174.826667 
" style="fill: none; stroke: #000000; stroke-width: 0.8; stroke-linejoin: miter; stroke-linecap: square"/>
   </g>
  </g>
 </g>
 <defs>
  <clipPath id="pf4d2c53986">
   <rect x="75.745" y="10.8" width="197.462598" height="71.213333"/>
  </clipPath>
  <clipPath id="pb7fae8a075">
   <rect x="75.745" y="92.813333" width="197.462598" height="71.213333"/>
  </clipPath>
  <clipPath id="p79af66ea7a">
   <rect x="75.745" y="174.826667" width="197.462598" height="71.213333"/>
  </clipPath>
 </defs>
</svg>
