<?xml version="1.0" encoding="utf-8" standalone="no"?>
<!DOCTYPE svg PUBLIC "-//W3C//DTD SVG 1.1//EN"
  "http://www.w3.org/Graphics/SVG/1.1/DTD/svg11.dtd">
<svg xmlns:xlink="http://www.w3.org/1999/xlink" width="288pt" height="288pt" viewBox="0 0 288 288" xmlns="http://www.w3.org/2000/svg" version="1.1">
 <metadata>
  <rdf:RDF xmlns:dc="http://purl.org/dc/elements/1.1/" xmlns:cc="http://creativecommons.org/ns#" xmlns:rdf="http://www.w3.org/1999/02/22-rdf-syntax-ns#">
   <cc:Work>
    <dc:type rdf:resource="http://purl.org/dc/dcmitype/StillImage"/>
    <dc:date>2024-08-14T23:16:39.189502</dc:date>
    <dc:format>image/svg+xml</dc:format>
    <dc:creator>
     <cc:Agent>
      <dc:title>Matplotlib v3.7.2, https://matplotlib.org/</dc:title>
     </cc:Agent>
    </dc:creator>
   </cc:Work>
  </rdf:RDF>
 </metadata>
 <defs>
  <style type="text/css">*{stroke-linejoin: round; stroke-linecap: butt}</style>
 </defs>
 <g id="figure_1">
  <g id="patch_1">
   <path d="M 0 288 
L 288 288 
L 288 0 
L 0 0 
z
" style="fill: #ffffff"/>
  </g>
  <g id="axes_1">
   <g id="patch_2">
    <path d="M 63.2 82.013333 
L 277.2 82.013333 
L 277.2 10.8 
L 63.2 10.8 
z
" style="fill: #ffffff"/>
   </g>
   <g id="patch_3">
    <path d="M 63.2 78.776364 
L 283.494118 78.776364 
L 283.494118 66.851357 
L 63.2 66.851357 
z
" clip-path="url(#p069f5b0c1a)" style="fill: #ff0000; opacity: 0.2"/>
   </g>
   <g id="matplotlib.axis_1"/>
   <g id="matplotlib.axis_2">
    <g id="ytick_1">
     <g id="line2d_1">
      <defs>
       <path id="m0c1f496f4c" d="M 0 0 
L -3.5 0 
" style="stroke: #000000; stroke-width: 0.8"/>
      </defs>
      <g>
       <use xlink:href="#m0c1f496f4c" x="63.2" y="72.81386" style="stroke: #000000; stroke-width: 0.8"/>
      </g>
     </g>
     <g id="text_1">
      <!-- 0 -->
      <g transform="translate(49.8375 76.613079) scale(0.1 -0.1)">
       <defs>
        <path id="DejaVuSans-30" d="M 2034 4250 
Q 1547 4250 1301 3770 
Q 1056 3291 1056 2328 
Q 1056 1369 1301 889 
Q 1547 409 2034 409 
Q 2525 409 2770 889 
Q 3016 1369 3016 2328 
Q 3016 3291 2770 3770 
Q 2525 4250 2034 4250 
z
M 2034 4750 
Q 2819 4750 3233 4129 
Q 3647 3509 3647 2328 
Q 3647 1150 3233 529 
Q 2819 -91 2034 -91 
Q 1250 -91 836 529 
Q 422 1150 422 2328 
Q 422 3509 836 4129 
Q 1250 4750 2034 4750 
z
" transform="scale(0.015625)"/>
       </defs>
       <use xlink:href="#DejaVuSans-30"/>
      </g>
     </g>
    </g>
    <g id="ytick_2">
     <g id="line2d_2">
      <g>
       <use xlink:href="#m0c1f496f4c" x="63.2" y="48.963848" style="stroke: #000000; stroke-width: 0.8"/>
      </g>
     </g>
     <g id="text_2">
      <!-- 20 -->
      <g transform="translate(43.475 52.763067) scale(0.1 -0.1)">
       <defs>
        <path id="DejaVuSans-32" d="M 1228 531 
L 3431 531 
L 3431 0 
L 469 0 
L 469 531 
Q 828 903 1448 1529 
Q 2069 2156 2228 2338 
Q 2531 2678 2651 2914 
Q 2772 3150 2772 3378 
Q 2772 3750 2511 3984 
Q 2250 4219 1831 4219 
Q 1534 4219 1204 4116 
Q 875 4013 500 3803 
L 500 4441 
Q 881 4594 1212 4672 
Q 1544 4750 1819 4750 
Q 2544 4750 2975 4387 
Q 3406 4025 3406 3419 
Q 3406 3131 3298 2873 
Q 3191 2616 2906 2266 
Q 2828 2175 2409 1742 
Q 1991 1309 1228 531 
z
" transform="scale(0.015625)"/>
       </defs>
       <use xlink:href="#DejaVuSans-32"/>
       <use xlink:href="#DejaVuSans-30" x="63.623047"/>
      </g>
     </g>
    </g>
    <g id="ytick_3">
     <g id="line2d_3">
      <g>
       <use xlink:href="#m0c1f496f4c" x="63.2" y="25.113835" style="stroke: #000000; stroke-width: 0.8"/>
      </g>
     </g>
     <g id="text_3">
      <!-- 40 -->
      <g transform="translate(43.475 28.913054) scale(0.1 -0.1)">
       <defs>
        <path id="DejaVuSans-34" d="M 2419 4116 
L 825 1625 
L 2419 1625 
L 2419 4116 
z
M 2253 4666 
L 3047 4666 
L 3047 1625 
L 3713 1625 
L 3713 1100 
L 3047 1100 
L 3047 0 
L 2419 0 
L 2419 1100 
L 313 1100 
L 313 1709 
L 2253 4666 
z
" transform="scale(0.015625)"/>
       </defs>
       <use xlink:href="#DejaVuSans-34"/>
       <use xlink:href="#DejaVuSans-30" x="63.623047"/>
      </g>
     </g>
    </g>
    <g id="text_4">
     <!-- $\theta$ [$^\circ$] -->
     <g transform="translate(37.395313 58.706667) rotate(-90) scale(0.1 -0.1)">
      <defs>
       <path id="DejaVuSans-Oblique-3b8" d="M 2913 2219 
L 925 2219 
Q 791 1284 928 888 
Q 1100 400 1566 400 
Q 2034 400 2391 891 
Q 2703 1322 2913 2219 
z
M 3009 2750 
Q 3094 3638 2984 3950 
Q 2813 4444 2353 4444 
Q 1875 4444 1525 3956 
Q 1250 3563 1034 2750 
L 3009 2750 
z
M 2444 4913 
Q 3194 4913 3494 4250 
Q 3794 3591 3566 2422 
Q 3341 1256 2781 594 
Q 2225 -72 1475 -72 
Q 722 -72 425 594 
Q 128 1256 353 2422 
Q 581 3591 1134 4250 
Q 1691 4913 2444 4913 
z
" transform="scale(0.015625)"/>
       <path id="DejaVuSans-20" transform="scale(0.015625)"/>
       <path id="DejaVuSans-5b" d="M 550 4863 
L 1875 4863 
L 1875 4416 
L 1125 4416 
L 1125 -397 
L 1875 -397 
L 1875 -844 
L 550 -844 
L 550 4863 
z
" transform="scale(0.015625)"/>
       <path id="DejaVuSans-2218" d="M 2003 2603 
Q 1753 2603 1581 2429 
Q 1409 2256 1409 2006 
Q 1409 1759 1581 1589 
Q 1753 1419 2003 1419 
Q 2253 1419 2425 1589 
Q 2597 1759 2597 2006 
Q 2597 2253 2423 2428 
Q 2250 2603 2003 2603 
z
M 2003 3006 
Q 2203 3006 2387 2929 
Q 2572 2853 2706 2709 
Q 2850 2569 2922 2390 
Q 2994 2212 2994 2006 
Q 2994 1594 2705 1308 
Q 2416 1022 1997 1022 
Q 1575 1022 1294 1303 
Q 1013 1584 1013 2006 
Q 1013 2425 1300 2715 
Q 1588 3006 2003 3006 
z
" transform="scale(0.015625)"/>
       <path id="DejaVuSans-5d" d="M 1947 4863 
L 1947 -844 
L 622 -844 
L 622 -397 
L 1369 -397 
L 1369 4416 
L 622 4416 
L 622 4863 
L 1947 4863 
z
" transform="scale(0.015625)"/>
      </defs>
      <use xlink:href="#DejaVuSans-Oblique-3b8" transform="translate(0 0.234375)"/>
      <use xlink:href="#DejaVuSans-20" transform="translate(61.181641 0.234375)"/>
      <use xlink:href="#DejaVuSans-5b" transform="translate(92.96875 0.234375)"/>
      <use xlink:href="#DejaVuSans-2218" transform="translate(146.577148 38.515625) scale(0.7)"/>
      <use xlink:href="#DejaVuSans-5d" transform="translate(206.767578 0.234375)"/>
     </g>
    </g>
   </g>
   <g id="line2d_4">
    <path d="M 63.2 14.03697 
L 69.494118 14.03697 
L 75.788235 15.721605 
L 82.082353 18.231211 
L 88.376471 20.706243 
L 94.670588 23.147067 
L 100.964706 25.554041 
L 107.258824 27.927524 
L 113.552941 30.267867 
L 119.847059 32.575422 
L 126.141176 34.850535 
L 132.435294 37.09355 
L 138.729412 39.304806 
L 145.023529 41.484641 
L 151.317647 43.633388 
L 157.611765 45.751378 
L 163.905882 47.838938 
L 170.2 49.896392 
L 176.494118 51.924061 
L 182.788235 53.922263 
L 189.082353 55.891314 
L 195.376471 57.831525 
L 201.670588 59.743204 
L 207.964706 61.626659 
L 214.258824 63.482192 
L 220.552941 65.310103 
L 226.847059 67.110689 
L 233.141176 68.036104 
L 239.435294 68.946427 
L 245.729412 69.841824 
L 252.023529 70.722459 
L 258.317647 71.588496 
L 264.611765 72.440097 
L 270.905882 73.27742 
L 277.2 73.252485 
" clip-path="url(#p069f5b0c1a)" style="fill: none; stroke: #0000ff; stroke-width: 1.5; stroke-linecap: square"/>
    <defs>
     <path id="mdf33f12568" d="M -3 0 
L 3 0 
M 0 3 
L 0 -3 
" style="stroke: #0000ff"/>
    </defs>
    <g clip-path="url(#p069f5b0c1a)">
     <use xlink:href="#mdf33f12568" x="63.2" y="14.03697" style="fill: #0000ff; stroke: #0000ff"/>
     <use xlink:href="#mdf33f12568" x="69.494118" y="14.03697" style="fill: #0000ff; stroke: #0000ff"/>
     <use xlink:href="#mdf33f12568" x="75.788235" y="15.721605" style="fill: #0000ff; stroke: #0000ff"/>
     <use xlink:href="#mdf33f12568" x="82.082353" y="18.231211" style="fill: #0000ff; stroke: #0000ff"/>
     <use xlink:href="#mdf33f12568" x="88.376471" y="20.706243" style="fill: #0000ff; stroke: #0000ff"/>
     <use xlink:href="#mdf33f12568" x="94.670588" y="23.147067" style="fill: #0000ff; stroke: #0000ff"/>
     <use xlink:href="#mdf33f12568" x="100.964706" y="25.554041" style="fill: #0000ff; stroke: #0000ff"/>
     <use xlink:href="#mdf33f12568" x="107.258824" y="27.927524" style="fill: #0000ff; stroke: #0000ff"/>
     <use xlink:href="#mdf33f12568" x="113.552941" y="30.267867" style="fill: #0000ff; stroke: #0000ff"/>
     <use xlink:href="#mdf33f12568" x="119.847059" y="32.575422" style="fill: #0000ff; stroke: #0000ff"/>
     <use xlink:href="#mdf33f12568" x="126.141176" y="34.850535" style="fill: #0000ff; stroke: #0000ff"/>
     <use xlink:href="#mdf33f12568" x="132.435294" y="37.09355" style="fill: #0000ff; stroke: #0000ff"/>
     <use xlink:href="#mdf33f12568" x="138.729412" y="39.304806" style="fill: #0000ff; stroke: #0000ff"/>
     <use xlink:href="#mdf33f12568" x="145.023529" y="41.484641" style="fill: #0000ff; stroke: #0000ff"/>
     <use xlink:href="#mdf33f12568" x="151.317647" y="43.633388" style="fill: #0000ff; stroke: #0000ff"/>
     <use xlink:href="#mdf33f12568" x="157.611765" y="45.751378" style="fill: #0000ff; stroke: #0000ff"/>
     <use xlink:href="#mdf33f12568" x="163.905882" y="47.838938" style="fill: #0000ff; stroke: #0000ff"/>
     <use xlink:href="#mdf33f12568" x="170.2" y="49.896392" style="fill: #0000ff; stroke: #0000ff"/>
     <use xlink:href="#mdf33f12568" x="176.494118" y="51.924061" style="fill: #0000ff; stroke: #0000ff"/>
     <use xlink:href="#mdf33f12568" x="182.788235" y="53.922263" style="fill: #0000ff; stroke: #0000ff"/>
     <use xlink:href="#mdf33f12568" x="189.082353" y="55.891314" style="fill: #0000ff; stroke: #0000ff"/>
     <use xlink:href="#mdf33f12568" x="195.376471" y="57.831525" style="fill: #0000ff; stroke: #0000ff"/>
     <use xlink:href="#mdf33f12568" x="201.670588" y="59.743204" style="fill: #0000ff; stroke: #0000ff"/>
     <use xlink:href="#mdf33f12568" x="207.964706" y="61.626659" style="fill: #0000ff; stroke: #0000ff"/>
     <use xlink:href="#mdf33f12568" x="214.258824" y="63.482192" style="fill: #0000ff; stroke: #0000ff"/>
     <use xlink:href="#mdf33f12568" x="220.552941" y="65.310103" style="fill: #0000ff; stroke: #0000ff"/>
     <use xlink:href="#mdf33f12568" x="226.847059" y="67.110689" style="fill: #0000ff; stroke: #0000ff"/>
     <use xlink:href="#mdf33f12568" x="233.141176" y="68.036104" style="fill: #0000ff; stroke: #0000ff"/>
     <use xlink:href="#mdf33f12568" x="239.435294" y="68.946427" style="fill: #0000ff; stroke: #0000ff"/>
     <use xlink:href="#mdf33f12568" x="245.729412" y="69.841824" style="fill: #0000ff; stroke: #0000ff"/>
     <use xlink:href="#mdf33f12568" x="252.023529" y="70.722459" style="fill: #0000ff; stroke: #0000ff"/>
     <use xlink:href="#mdf33f12568" x="258.317647" y="71.588496" style="fill: #0000ff; stroke: #0000ff"/>
     <use xlink:href="#mdf33f12568" x="264.611765" y="72.440097" style="fill: #0000ff; stroke: #0000ff"/>
     <use xlink:href="#mdf33f12568" x="270.905882" y="73.27742" style="fill: #0000ff; stroke: #0000ff"/>
     <use xlink:href="#mdf33f12568" x="277.2" y="73.252485" style="fill: #0000ff; stroke: #0000ff"/>
    </g>
   </g>
   <g id="patch_4">
    <path d="M 63.2 82.013333 
L 63.2 10.8 
" style="fill: none; stroke: #000000; stroke-width: 0.8; stroke-linejoin: miter; stroke-linecap: square"/>
   </g>
   <g id="patch_5">
    <path d="M 277.2 82.013333 
L 277.2 10.8 
" style="fill: none; stroke: #000000; stroke-width: 0.8; stroke-linejoin: miter; stroke-linecap: square"/>
   </g>
   <g id="patch_6">
    <path d="M 63.2 82.013333 
L 277.2 82.013333 
" style="fill: none; stroke: #000000; stroke-width: 0.8; stroke-linejoin: miter; stroke-linecap: square"/>
   </g>
   <g id="patch_7">
    <path d="M 63.2 10.8 
L 277.2 10.8 
" style="fill: none; stroke: #000000; stroke-width: 0.8; stroke-linejoin: miter; stroke-linecap: square"/>
   </g>
   <g id="legend_1">
    <g id="patch_8">
     <path d="M 226 33.478125 
L 270.2 33.478125 
Q 272.2 33.478125 272.2 31.478125 
L 272.2 17.8 
Q 272.2 15.8 270.2 15.8 
L 226 15.8 
Q 224 15.8 224 17.8 
L 224 31.478125 
Q 224 33.478125 226 33.478125 
z
" style="fill: #ffffff; opacity: 0.8; stroke: #cccccc; stroke-linejoin: miter"/>
    </g>
    <g id="line2d_5">
     <path d="M 228 23.898438 
L 238 23.898438 
L 248 23.898438 
" style="fill: none; stroke: #0000ff; stroke-width: 1.5; stroke-linecap: square"/>
     <g>
      <use xlink:href="#mdf33f12568" x="238" y="23.898438" style="fill: #0000ff; stroke: #0000ff"/>
     </g>
    </g>
    <g id="text_5">
     <!-- $\theta_w$ -->
     <g transform="translate(256 27.398438) scale(0.1 -0.1)">
      <defs>
       <path id="DejaVuSans-Oblique-77" d="M 544 3500 
L 1113 3500 
L 1259 684 
L 2566 3500 
L 3231 3500 
L 3425 684 
L 4666 3500 
L 5241 3500 
L 3641 0 
L 2969 0 
L 2797 2900 
L 1459 0 
L 781 0 
L 544 3500 
z
" transform="scale(0.015625)"/>
      </defs>
      <use xlink:href="#DejaVuSans-Oblique-3b8" transform="translate(0 0.234375)"/>
      <use xlink:href="#DejaVuSans-Oblique-77" transform="translate(61.181641 -16.171875) scale(0.7)"/>
     </g>
    </g>
   </g>
  </g>
  <g id="axes_2">
   <g id="patch_9">
    <path d="M 63.2 164.026667 
L 277.2 164.026667 
L 277.2 92.813333 
L 63.2 92.813333 
z
" style="fill: #ffffff"/>
   </g>
   <g id="patch_10">
    <path d="M 63.2 109.798374 
L 283.494118 109.798374 
L 283.494118 96.050303 
L 63.2 96.050303 
z
" clip-path="url(#pf3b72cd5a3)" style="fill: #ff0000; opacity: 0.2"/>
   </g>
   <g id="matplotlib.axis_3"/>
   <g id="matplotlib.axis_4">
    <g id="ytick_4">
     <g id="line2d_6">
      <g>
       <use xlink:href="#m0c1f496f4c" x="63.2" y="157.916624" style="stroke: #000000; stroke-width: 0.8"/>
      </g>
     </g>
     <g id="text_6">
      <!-- −40 -->
      <g transform="translate(35.095313 161.715842) scale(0.1 -0.1)">
       <defs>
        <path id="DejaVuSans-2212" d="M 678 2272 
L 4684 2272 
L 4684 1741 
L 678 1741 
L 678 2272 
z
" transform="scale(0.015625)"/>
       </defs>
       <use xlink:href="#DejaVuSans-2212"/>
       <use xlink:href="#DejaVuSans-34" x="83.789062"/>
       <use xlink:href="#DejaVuSans-30" x="147.412109"/>
      </g>
     </g>
    </g>
    <g id="ytick_5">
     <g id="line2d_7">
      <g>
       <use xlink:href="#m0c1f496f4c" x="63.2" y="130.420481" style="stroke: #000000; stroke-width: 0.8"/>
      </g>
     </g>
     <g id="text_7">
      <!-- −20 -->
      <g transform="translate(35.095313 134.2197) scale(0.1 -0.1)">
       <use xlink:href="#DejaVuSans-2212"/>
       <use xlink:href="#DejaVuSans-32" x="83.789062"/>
       <use xlink:href="#DejaVuSans-30" x="147.412109"/>
      </g>
     </g>
    </g>
    <g id="ytick_6">
     <g id="line2d_8">
      <g>
       <use xlink:href="#m0c1f496f4c" x="63.2" y="102.924339" style="stroke: #000000; stroke-width: 0.8"/>
      </g>
     </g>
     <g id="text_8">
      <!-- 0 -->
      <g transform="translate(49.8375 106.723557) scale(0.1 -0.1)">
       <use xlink:href="#DejaVuSans-30"/>
      </g>
     </g>
    </g>
    <g id="text_9">
     <!-- $\dot{\theta}$  [$^\circ$/s] -->
     <g transform="translate(29.015625 146.62) rotate(-90) scale(0.1 -0.1)">
      <defs>
       <path id="DejaVuSans-307" d="M -1894 4863 
L -1319 4863 
L -1319 4134 
L -1894 4134 
L -1894 4863 
z
M -1600 3584 
L -1600 3584 
z
" transform="scale(0.015625)"/>
       <path id="DejaVuSans-2f" d="M 1625 4666 
L 2156 4666 
L 531 -594 
L 0 -594 
L 1625 4666 
z
" transform="scale(0.015625)"/>
       <path id="DejaVuSans-73" d="M 2834 3397 
L 2834 2853 
Q 2591 2978 2328 3040 
Q 2066 3103 1784 3103 
Q 1356 3103 1142 2972 
Q 928 2841 928 2578 
Q 928 2378 1081 2264 
Q 1234 2150 1697 2047 
L 1894 2003 
Q 2506 1872 2764 1633 
Q 3022 1394 3022 966 
Q 3022 478 2636 193 
Q 2250 -91 1575 -91 
Q 1294 -91 989 -36 
Q 684 19 347 128 
L 347 722 
Q 666 556 975 473 
Q 1284 391 1588 391 
Q 1994 391 2212 530 
Q 2431 669 2431 922 
Q 2431 1156 2273 1281 
Q 2116 1406 1581 1522 
L 1381 1569 
Q 847 1681 609 1914 
Q 372 2147 372 2553 
Q 372 3047 722 3315 
Q 1072 3584 1716 3584 
Q 2034 3584 2315 3537 
Q 2597 3491 2834 3397 
z
" transform="scale(0.015625)"/>
      </defs>
      <use xlink:href="#DejaVuSans-307" transform="translate(62.88916 34.015625)"/>
      <use xlink:href="#DejaVuSans-Oblique-3b8" transform="translate(0 0.75)"/>
      <use xlink:href="#DejaVuSans-20" transform="translate(61.181641 0.75)"/>
      <use xlink:href="#DejaVuSans-20" transform="translate(92.96875 0.75)"/>
      <use xlink:href="#DejaVuSans-5b" transform="translate(124.755859 0.75)"/>
      <use xlink:href="#DejaVuSans-2218" transform="translate(178.364258 39.03125) scale(0.7)"/>
      <use xlink:href="#DejaVuSans-2f" transform="translate(238.554688 0.75)"/>
      <use xlink:href="#DejaVuSans-73" transform="translate(272.246094 0.75)"/>
      <use xlink:href="#DejaVuSans-5d" transform="translate(324.345703 0.75)"/>
     </g>
    </g>
   </g>
   <g id="line2d_9">
    <path d="M 63.2 122.480387 
L 69.494118 122.480387 
L 75.788235 141.767899 
L 82.082353 160.789697 
L 88.376471 159.992528 
L 94.670588 159.203746 
L 100.964706 158.423272 
L 107.258824 157.651025 
L 113.552941 156.886928 
L 119.847059 156.130902 
L 126.141176 155.382872 
L 132.435294 154.64276 
L 138.729412 153.91049 
L 145.023529 153.185989 
L 151.317647 152.469181 
L 157.611765 151.759992 
L 163.905882 151.058351 
L 170.2 150.364185 
L 176.494118 149.677421 
L 182.788235 148.99799 
L 189.082353 148.325821 
L 195.376471 147.660844 
L 201.670588 147.00299 
L 207.964706 146.35219 
L 214.258824 145.708378 
L 220.552941 145.071486 
L 226.847059 144.441446 
L 233.141176 124.262146 
L 239.435294 123.914153 
L 245.729412 123.569994 
L 252.023529 123.229633 
L 258.317647 122.893033 
L 264.611765 122.560156 
L 270.905882 122.230968 
L 277.2 102.349382 
" clip-path="url(#pf3b72cd5a3)" style="fill: none; stroke: #0000ff; stroke-width: 1.5; stroke-linecap: square"/>
   </g>
   <g id="patch_11">
    <path d="M 63.2 164.026667 
L 63.2 92.813333 
" style="fill: none; stroke: #000000; stroke-width: 0.8; stroke-linejoin: miter; stroke-linecap: square"/>
   </g>
   <g id="patch_12">
    <path d="M 277.2 164.026667 
L 277.2 92.813333 
" style="fill: none; stroke: #000000; stroke-width: 0.8; stroke-linejoin: miter; stroke-linecap: square"/>
   </g>
   <g id="patch_13">
    <path d="M 63.2 164.026667 
L 277.2 164.026667 
" style="fill: none; stroke: #000000; stroke-width: 0.8; stroke-linejoin: miter; stroke-linecap: square"/>
   </g>
   <g id="patch_14">
    <path d="M 63.2 92.813333 
L 277.2 92.813333 
" style="fill: none; stroke: #000000; stroke-width: 0.8; stroke-linejoin: miter; stroke-linecap: square"/>
   </g>
   <g id="legend_2">
    <g id="patch_15">
     <path d="M 148.7 138.82 
L 191.7 138.82 
Q 193.7 138.82 193.7 136.82 
L 193.7 120.02 
Q 193.7 118.02 191.7 118.02 
L 148.7 118.02 
Q 146.7 118.02 146.7 120.02 
L 146.7 136.82 
Q 146.7 138.82 148.7 138.82 
z
" style="fill: #ffffff; opacity: 0.8; stroke: #cccccc; stroke-linejoin: miter"/>
    </g>
    <g id="line2d_10">
     <path d="M 150.7 129.240312 
L 160.7 129.240312 
L 170.7 129.240312 
" style="fill: none; stroke: #0000ff; stroke-width: 1.5; stroke-linecap: square"/>
    </g>
    <g id="text_10">
     <!-- $\dot{\theta}_b$ -->
     <g transform="translate(178.7 132.740312) scale(0.1 -0.1)">
      <defs>
       <path id="DejaVuSans-Oblique-62" d="M 3169 2138 
Q 3169 2591 2961 2847 
Q 2753 3103 2388 3103 
Q 2122 3103 1889 2973 
Q 1656 2844 1484 2597 
Q 1303 2338 1198 1995 
Q 1094 1653 1094 1313 
Q 1094 881 1298 636 
Q 1503 391 1863 391 
Q 2134 391 2365 517 
Q 2597 644 2772 891 
Q 2950 1147 3059 1487 
Q 3169 1828 3169 2138 
z
M 1381 2969 
Q 1594 3256 1914 3420 
Q 2234 3584 2584 3584 
Q 3122 3584 3439 3221 
Q 3756 2859 3756 2241 
Q 3756 1734 3570 1259 
Q 3384 784 3041 416 
Q 2816 172 2522 40 
Q 2228 -91 1906 -91 
Q 1566 -91 1316 65 
Q 1066 222 909 531 
L 806 0 
L 231 0 
L 1178 4863 
L 1753 4863 
L 1381 2969 
z
" transform="scale(0.015625)"/>
      </defs>
      <use xlink:href="#DejaVuSans-307" transform="translate(62.88916 34.015625)"/>
      <use xlink:href="#DejaVuSans-Oblique-3b8" transform="translate(0 0.75)"/>
      <use xlink:href="#DejaVuSans-Oblique-62" transform="translate(62.138672 -15.65625) scale(0.7)"/>
     </g>
    </g>
   </g>
  </g>
  <g id="axes_3">
   <g id="patch_16">
    <path d="M 63.2 246.04 
L 277.2 246.04 
L 277.2 174.826667 
L 63.2 174.826667 
z
" style="fill: #ffffff"/>
   </g>
   <g id="matplotlib.axis_5">
    <g id="xtick_1">
     <g id="line2d_11">
      <defs>
       <path id="mb47e6b875a" d="M 0 0 
L 0 3.5 
" style="stroke: #000000; stroke-width: 0.8"/>
      </defs>
      <g>
       <use xlink:href="#mb47e6b875a" x="63.2" y="246.04" style="stroke: #000000; stroke-width: 0.8"/>
      </g>
     </g>
     <g id="text_11">
      <!-- 0.00 -->
      <g transform="translate(52.067188 260.638438) scale(0.1 -0.1)">
       <defs>
        <path id="DejaVuSans-2e" d="M 684 794 
L 1344 794 
L 1344 0 
L 684 0 
L 684 794 
z
" transform="scale(0.015625)"/>
       </defs>
       <use xlink:href="#DejaVuSans-30"/>
       <use xlink:href="#DejaVuSans-2e" x="63.623047"/>
       <use xlink:href="#DejaVuSans-30" x="95.410156"/>
       <use xlink:href="#DejaVuSans-30" x="159.033203"/>
      </g>
     </g>
    </g>
    <g id="xtick_2">
     <g id="line2d_12">
      <g>
       <use xlink:href="#mb47e6b875a" x="94.670588" y="246.04" style="stroke: #000000; stroke-width: 0.8"/>
      </g>
     </g>
     <g id="text_12">
      <!-- 0.25 -->
      <g transform="translate(83.537776 260.638438) scale(0.1 -0.1)">
       <defs>
        <path id="DejaVuSans-35" d="M 691 4666 
L 3169 4666 
L 3169 4134 
L 1269 4134 
L 1269 2991 
Q 1406 3038 1543 3061 
Q 1681 3084 1819 3084 
Q 2600 3084 3056 2656 
Q 3513 2228 3513 1497 
Q 3513 744 3044 326 
Q 2575 -91 1722 -91 
Q 1428 -91 1123 -41 
Q 819 9 494 109 
L 494 744 
Q 775 591 1075 516 
Q 1375 441 1709 441 
Q 2250 441 2565 725 
Q 2881 1009 2881 1497 
Q 2881 1984 2565 2268 
Q 2250 2553 1709 2553 
Q 1456 2553 1204 2497 
Q 953 2441 691 2322 
L 691 4666 
z
" transform="scale(0.015625)"/>
       </defs>
       <use xlink:href="#DejaVuSans-30"/>
       <use xlink:href="#DejaVuSans-2e" x="63.623047"/>
       <use xlink:href="#DejaVuSans-32" x="95.410156"/>
       <use xlink:href="#DejaVuSans-35" x="159.033203"/>
      </g>
     </g>
    </g>
    <g id="xtick_3">
     <g id="line2d_13">
      <g>
       <use xlink:href="#mb47e6b875a" x="126.141176" y="246.04" style="stroke: #000000; stroke-width: 0.8"/>
      </g>
     </g>
     <g id="text_13">
      <!-- 0.50 -->
      <g transform="translate(115.008364 260.638438) scale(0.1 -0.1)">
       <use xlink:href="#DejaVuSans-30"/>
       <use xlink:href="#DejaVuSans-2e" x="63.623047"/>
       <use xlink:href="#DejaVuSans-35" x="95.410156"/>
       <use xlink:href="#DejaVuSans-30" x="159.033203"/>
      </g>
     </g>
    </g>
    <g id="xtick_4">
     <g id="line2d_14">
      <g>
       <use xlink:href="#mb47e6b875a" x="157.611765" y="246.04" style="stroke: #000000; stroke-width: 0.8"/>
      </g>
     </g>
     <g id="text_14">
      <!-- 0.75 -->
      <g transform="translate(146.478952 260.638438) scale(0.1 -0.1)">
       <defs>
        <path id="DejaVuSans-37" d="M 525 4666 
L 3525 4666 
L 3525 4397 
L 1831 0 
L 1172 0 
L 2766 4134 
L 525 4134 
L 525 4666 
z
" transform="scale(0.015625)"/>
       </defs>
       <use xlink:href="#DejaVuSans-30"/>
       <use xlink:href="#DejaVuSans-2e" x="63.623047"/>
       <use xlink:href="#DejaVuSans-37" x="95.410156"/>
       <use xlink:href="#DejaVuSans-35" x="159.033203"/>
      </g>
     </g>
    </g>
    <g id="xtick_5">
     <g id="line2d_15">
      <g>
       <use xlink:href="#mb47e6b875a" x="189.082353" y="246.04" style="stroke: #000000; stroke-width: 0.8"/>
      </g>
     </g>
     <g id="text_15">
      <!-- 1.00 -->
      <g transform="translate(177.94954 260.638438) scale(0.1 -0.1)">
       <defs>
        <path id="DejaVuSans-31" d="M 794 531 
L 1825 531 
L 1825 4091 
L 703 3866 
L 703 4441 
L 1819 4666 
L 2450 4666 
L 2450 531 
L 3481 531 
L 3481 0 
L 794 0 
L 794 531 
z
" transform="scale(0.015625)"/>
       </defs>
       <use xlink:href="#DejaVuSans-31"/>
       <use xlink:href="#DejaVuSans-2e" x="63.623047"/>
       <use xlink:href="#DejaVuSans-30" x="95.410156"/>
       <use xlink:href="#DejaVuSans-30" x="159.033203"/>
      </g>
     </g>
    </g>
    <g id="xtick_6">
     <g id="line2d_16">
      <g>
       <use xlink:href="#mb47e6b875a" x="220.552941" y="246.04" style="stroke: #000000; stroke-width: 0.8"/>
      </g>
     </g>
     <g id="text_16">
      <!-- 1.25 -->
      <g transform="translate(209.420129 260.638438) scale(0.1 -0.1)">
       <use xlink:href="#DejaVuSans-31"/>
       <use xlink:href="#DejaVuSans-2e" x="63.623047"/>
       <use xlink:href="#DejaVuSans-32" x="95.410156"/>
       <use xlink:href="#DejaVuSans-35" x="159.033203"/>
      </g>
     </g>
    </g>
    <g id="xtick_7">
     <g id="line2d_17">
      <g>
       <use xlink:href="#mb47e6b875a" x="252.023529" y="246.04" style="stroke: #000000; stroke-width: 0.8"/>
      </g>
     </g>
     <g id="text_17">
      <!-- 1.50 -->
      <g transform="translate(240.890717 260.638438) scale(0.1 -0.1)">
       <use xlink:href="#DejaVuSans-31"/>
       <use xlink:href="#DejaVuSans-2e" x="63.623047"/>
       <use xlink:href="#DejaVuSans-35" x="95.410156"/>
       <use xlink:href="#DejaVuSans-30" x="159.033203"/>
      </g>
     </g>
    </g>
    <g id="text_18">
     <!-- Time [s] -->
     <g transform="translate(149.871094 274.316562) scale(0.1 -0.1)">
      <defs>
       <path id="DejaVuSans-54" d="M -19 4666 
L 3928 4666 
L 3928 4134 
L 2272 4134 
L 2272 0 
L 1638 0 
L 1638 4134 
L -19 4134 
L -19 4666 
z
" transform="scale(0.015625)"/>
       <path id="DejaVuSans-69" d="M 603 3500 
L 1178 3500 
L 1178 0 
L 603 0 
L 603 3500 
z
M 603 4863 
L 1178 4863 
L 1178 4134 
L 603 4134 
L 603 4863 
z
" transform="scale(0.015625)"/>
       <path id="DejaVuSans-6d" d="M 3328 2828 
Q 3544 3216 3844 3400 
Q 4144 3584 4550 3584 
Q 5097 3584 5394 3201 
Q 5691 2819 5691 2113 
L 5691 0 
L 5113 0 
L 5113 2094 
Q 5113 2597 4934 2840 
Q 4756 3084 4391 3084 
Q 3944 3084 3684 2787 
Q 3425 2491 3425 1978 
L 3425 0 
L 2847 0 
L 2847 2094 
Q 2847 2600 2669 2842 
Q 2491 3084 2119 3084 
Q 1678 3084 1418 2786 
Q 1159 2488 1159 1978 
L 1159 0 
L 581 0 
L 581 3500 
L 1159 3500 
L 1159 2956 
Q 1356 3278 1631 3431 
Q 1906 3584 2284 3584 
Q 2666 3584 2933 3390 
Q 3200 3197 3328 2828 
z
" transform="scale(0.015625)"/>
       <path id="DejaVuSans-65" d="M 3597 1894 
L 3597 1613 
L 953 1613 
Q 991 1019 1311 708 
Q 1631 397 2203 397 
Q 2534 397 2845 478 
Q 3156 559 3463 722 
L 3463 178 
Q 3153 47 2828 -22 
Q 2503 -91 2169 -91 
Q 1331 -91 842 396 
Q 353 884 353 1716 
Q 353 2575 817 3079 
Q 1281 3584 2069 3584 
Q 2775 3584 3186 3129 
Q 3597 2675 3597 1894 
z
M 3022 2063 
Q 3016 2534 2758 2815 
Q 2500 3097 2075 3097 
Q 1594 3097 1305 2825 
Q 1016 2553 972 2059 
L 3022 2063 
z
" transform="scale(0.015625)"/>
      </defs>
      <use xlink:href="#DejaVuSans-54"/>
      <use xlink:href="#DejaVuSans-69" x="57.958984"/>
      <use xlink:href="#DejaVuSans-6d" x="85.742188"/>
      <use xlink:href="#DejaVuSans-65" x="183.154297"/>
      <use xlink:href="#DejaVuSans-20" x="244.677734"/>
      <use xlink:href="#DejaVuSans-5b" x="276.464844"/>
      <use xlink:href="#DejaVuSans-73" x="315.478516"/>
      <use xlink:href="#DejaVuSans-5d" x="367.578125"/>
     </g>
    </g>
   </g>
   <g id="matplotlib.axis_6">
    <g id="ytick_7">
     <g id="line2d_18">
      <g>
       <use xlink:href="#m0c1f496f4c" x="63.2" y="232.6875" style="stroke: #000000; stroke-width: 0.8"/>
      </g>
     </g>
     <g id="text_19">
      <!-- −0.05 -->
      <g transform="translate(25.554688 236.486719) scale(0.1 -0.1)">
       <use xlink:href="#DejaVuSans-2212"/>
       <use xlink:href="#DejaVuSans-30" x="83.789062"/>
       <use xlink:href="#DejaVuSans-2e" x="147.412109"/>
       <use xlink:href="#DejaVuSans-30" x="179.199219"/>
       <use xlink:href="#DejaVuSans-35" x="242.822266"/>
      </g>
     </g>
    </g>
    <g id="ytick_8">
     <g id="line2d_19">
      <g>
       <use xlink:href="#m0c1f496f4c" x="63.2" y="210.433333" style="stroke: #000000; stroke-width: 0.8"/>
      </g>
     </g>
     <g id="text_20">
      <!-- 0.00 -->
      <g transform="translate(33.934375 214.232552) scale(0.1 -0.1)">
       <use xlink:href="#DejaVuSans-30"/>
       <use xlink:href="#DejaVuSans-2e" x="63.623047"/>
       <use xlink:href="#DejaVuSans-30" x="95.410156"/>
       <use xlink:href="#DejaVuSans-30" x="159.033203"/>
      </g>
     </g>
    </g>
    <g id="ytick_9">
     <g id="line2d_20">
      <g>
       <use xlink:href="#m0c1f496f4c" x="63.2" y="188.179167" style="stroke: #000000; stroke-width: 0.8"/>
      </g>
     </g>
     <g id="text_21">
      <!-- 0.05 -->
      <g transform="translate(33.934375 191.978385) scale(0.1 -0.1)">
       <use xlink:href="#DejaVuSans-30"/>
       <use xlink:href="#DejaVuSans-2e" x="63.623047"/>
       <use xlink:href="#DejaVuSans-30" x="95.410156"/>
       <use xlink:href="#DejaVuSans-35" x="159.033203"/>
      </g>
     </g>
    </g>
    <g id="text_22">
     <!-- $\tau$  [Nm] -->
     <g transform="translate(19.475 229.183333) rotate(-90) scale(0.1 -0.1)">
      <defs>
       <path id="DejaVuSans-Oblique-3c4" d="M 2103 638 
Q 2188 488 2525 488 
L 2800 488 
L 2706 0 
L 2363 0 
Q 1800 0 1600 300 
Q 1403 606 1534 1269 
L 1856 2925 
L 541 2925 
L 653 3500 
L 3881 3500 
L 3769 2925 
L 2444 2925 
L 2113 1234 
Q 2025 781 2103 638 
z
" transform="scale(0.015625)"/>
       <path id="DejaVuSans-4e" d="M 628 4666 
L 1478 4666 
L 3547 763 
L 3547 4666 
L 4159 4666 
L 4159 0 
L 3309 0 
L 1241 3903 
L 1241 0 
L 628 0 
L 628 4666 
z
" transform="scale(0.015625)"/>
      </defs>
      <use xlink:href="#DejaVuSans-Oblique-3c4" transform="translate(0 0.015625)"/>
      <use xlink:href="#DejaVuSans-20" transform="translate(60.205078 0.015625)"/>
      <use xlink:href="#DejaVuSans-20" transform="translate(91.992188 0.015625)"/>
      <use xlink:href="#DejaVuSans-5b" transform="translate(123.779297 0.015625)"/>
      <use xlink:href="#DejaVuSans-4e" transform="translate(162.792969 0.015625)"/>
      <use xlink:href="#DejaVuSans-6d" transform="translate(237.597656 0.015625)"/>
      <use xlink:href="#DejaVuSans-5d" transform="translate(335.009766 0.015625)"/>
     </g>
    </g>
   </g>
   <g id="line2d_21">
    <path d="M 63.2 179.2775 
L 63.2 179.2775 
L 69.494118 179.2775 
L 69.494118 179.2775 
L 75.788235 179.2775 
L 75.788235 210.433333 
L 82.082353 210.433333 
L 82.082353 210.433333 
L 88.376471 210.433333 
L 88.376471 210.433333 
L 94.670588 210.433333 
L 94.670588 210.433333 
L 100.964706 210.433333 
L 100.964706 210.433333 
L 107.258824 210.433333 
L 107.258824 210.433333 
L 113.552941 210.433333 
L 113.552941 210.433333 
L 119.847059 210.433333 
L 119.847059 210.433333 
L 126.141176 210.433333 
L 126.141176 210.433333 
L 132.435294 210.433333 
L 132.435294 210.433333 
L 138.729412 210.433333 
L 138.729412 210.433333 
L 145.023529 210.433333 
L 145.023529 210.433333 
L 151.317647 210.433333 
L 151.317647 210.433333 
L 157.611765 210.433333 
L 157.611765 210.433333 
L 163.905882 210.433333 
L 163.905882 210.433333 
L 170.2 210.433333 
L 170.2 210.433333 
L 176.494118 210.433333 
L 176.494118 210.433333 
L 182.788235 210.433333 
L 182.788235 210.433333 
L 189.082353 210.433333 
L 189.082353 210.433333 
L 195.376471 210.433333 
L 195.376471 210.433333 
L 201.670588 210.433333 
L 201.670588 210.433333 
L 207.964706 210.433333 
L 207.964706 210.433333 
L 214.258824 210.433333 
L 214.258824 210.433333 
L 220.552941 210.433333 
L 220.552941 241.589167 
L 226.847059 241.589167 
L 226.847059 210.433333 
L 233.141176 210.433333 
L 233.141176 210.433333 
L 239.435294 210.433333 
L 239.435294 210.433333 
L 245.729412 210.433333 
L 245.729412 210.433333 
L 252.023529 210.433333 
L 252.023529 210.433333 
L 258.317647 210.433333 
L 258.317647 210.433333 
L 264.611765 210.433333 
L 264.611765 241.589167 
L 270.905882 241.589167 
" clip-path="url(#p250ee1a22b)" style="fill: none; stroke: #000000; stroke-width: 1.5; stroke-linecap: square"/>
   </g>
   <g id="patch_17">
    <path d="M 63.2 246.04 
L 63.2 174.826667 
" style="fill: none; stroke: #000000; stroke-width: 0.8; stroke-linejoin: miter; stroke-linecap: square"/>
   </g>
   <g id="patch_18">
    <path d="M 277.2 246.04 
L 277.2 174.826667 
" style="fill: none; stroke: #000000; stroke-width: 0.8; stroke-linejoin: miter; stroke-linecap: square"/>
   </g>
   <g id="patch_19">
    <path d="M 63.2 246.04 
L 277.2 246.04 
" style="fill: none; stroke: #000000; stroke-width: 0.8; stroke-linejoin: miter; stroke-linecap: square"/>
   </g>
   <g id="patch_20">
    <path d="M 63.2 174.826667 
L 277.2 174.826667 
" style="fill: none; stroke: #000000; stroke-width: 0.8; stroke-linejoin: miter; stroke-linecap: square"/>
   </g>
  </g>
 </g>
 <defs>
  <clipPath id="p069f5b0c1a">
   <rect x="63.2" y="10.8" width="214" height="71.213333"/>
  </clipPath>
  <clipPath id="pf3b72cd5a3">
   <rect x="63.2" y="92.813333" width="214" height="71.213333"/>
  </clipPath>
  <clipPath id="p250ee1a22b">
   <rect x="63.2" y="174.826667" width="214" height="71.213333"/>
  </clipPath>
 </defs>
</svg>
