<?xml version="1.0" encoding="utf-8" standalone="no"?>
<!DOCTYPE svg PUBLIC "-//W3C//DTD SVG 1.1//EN"
  "http://www.w3.org/Graphics/SVG/1.1/DTD/svg11.dtd">
<svg xmlns:xlink="http://www.w3.org/1999/xlink" width="288pt" height="288pt" viewBox="0 0 288 288" xmlns="http://www.w3.org/2000/svg" version="1.1">
 <metadata>
  <rdf:RDF xmlns:dc="http://purl.org/dc/elements/1.1/" xmlns:cc="http://creativecommons.org/ns#" xmlns:rdf="http://www.w3.org/1999/02/22-rdf-syntax-ns#">
   <cc:Work>
    <dc:type rdf:resource="http://purl.org/dc/dcmitype/StillImage"/>
    <dc:date>2024-07-23T22:10:48.624084</dc:date>
    <dc:format>image/svg+xml</dc:format>
    <dc:creator>
     <cc:Agent>
      <dc:title>Matplotlib v3.7.2, https://matplotlib.org/</dc:title>
     </cc:Agent>
    </dc:creator>
   </cc:Work>
  </rdf:RDF>
 </metadata>
 <defs>
  <style type="text/css">*{stroke-linejoin: round; stroke-linecap: butt}</style>
 </defs>
 <g id="figure_1">
  <g id="patch_1">
   <path d="M 0 288 
L 288 288 
L 288 0 
L 0 0 
z
" style="fill: #ffffff"/>
  </g>
  <g id="axes_1">
   <g id="patch_2">
    <path d="M 63.2 81.544487 
L 277.2 81.544487 
L 277.2 10.8 
L 63.2 10.8 
z
" style="fill: #ffffff"/>
   </g>
   <g id="patch_3">
    <path d="M 63.2 78.328829 
L 283.684848 78.328829 
L 283.684848 74.825515 
L 63.2 74.825515 
z
" clip-path="url(#p87b9c4c3fa)" style="fill: #ff0000; opacity: 0.2"/>
   </g>
   <g id="matplotlib.axis_1"/>
   <g id="matplotlib.axis_2">
    <g id="ytick_1">
     <g id="line2d_1">
      <defs>
       <path id="md8f69da1e7" d="M 0 0 
L -3.5 0 
" style="stroke: #000000; stroke-width: 0.8"/>
      </defs>
      <g>
       <use xlink:href="#md8f69da1e7" x="63.2" y="76.577172" style="stroke: #000000; stroke-width: 0.8"/>
      </g>
     </g>
     <g id="text_1">
      <!-- 0 -->
      <g transform="translate(49.8375 80.37639) scale(0.1 -0.1)">
       <defs>
        <path id="DejaVuSans-30" d="M 2034 4250 
Q 1547 4250 1301 3770 
Q 1056 3291 1056 2328 
Q 1056 1369 1301 889 
Q 1547 409 2034 409 
Q 2525 409 2770 889 
Q 3016 1369 3016 2328 
Q 3016 3291 2770 3770 
Q 2525 4250 2034 4250 
z
M 2034 4750 
Q 2819 4750 3233 4129 
Q 3647 3509 3647 2328 
Q 3647 1150 3233 529 
Q 2819 -91 2034 -91 
Q 1250 -91 836 529 
Q 422 1150 422 2328 
Q 422 3509 836 4129 
Q 1250 4750 2034 4750 
z
" transform="scale(0.015625)"/>
       </defs>
       <use xlink:href="#DejaVuSans-30"/>
      </g>
     </g>
    </g>
    <g id="ytick_2">
     <g id="line2d_2">
      <g>
       <use xlink:href="#md8f69da1e7" x="63.2" y="41.544035" style="stroke: #000000; stroke-width: 0.8"/>
      </g>
     </g>
     <g id="text_2">
      <!-- 50 -->
      <g transform="translate(43.475 45.343254) scale(0.1 -0.1)">
       <defs>
        <path id="DejaVuSans-35" d="M 691 4666 
L 3169 4666 
L 3169 4134 
L 1269 4134 
L 1269 2991 
Q 1406 3038 1543 3061 
Q 1681 3084 1819 3084 
Q 2600 3084 3056 2656 
Q 3513 2228 3513 1497 
Q 3513 744 3044 326 
Q 2575 -91 1722 -91 
Q 1428 -91 1123 -41 
Q 819 9 494 109 
L 494 744 
Q 775 591 1075 516 
Q 1375 441 1709 441 
Q 2250 441 2565 725 
Q 2881 1009 2881 1497 
Q 2881 1984 2565 2268 
Q 2250 2553 1709 2553 
Q 1456 2553 1204 2497 
Q 953 2441 691 2322 
L 691 4666 
z
" transform="scale(0.015625)"/>
       </defs>
       <use xlink:href="#DejaVuSans-35"/>
       <use xlink:href="#DejaVuSans-30" x="63.623047"/>
      </g>
     </g>
    </g>
    <g id="text_3">
     <!-- $\theta$ [$^\circ$] -->
     <g transform="translate(37.395313 58.472244) rotate(-90) scale(0.1 -0.1)">
      <defs>
       <path id="DejaVuSans-Oblique-3b8" d="M 2913 2219 
L 925 2219 
Q 791 1284 928 888 
Q 1100 400 1566 400 
Q 2034 400 2391 891 
Q 2703 1322 2913 2219 
z
M 3009 2750 
Q 3094 3638 2984 3950 
Q 2813 4444 2353 4444 
Q 1875 4444 1525 3956 
Q 1250 3563 1034 2750 
L 3009 2750 
z
M 2444 4913 
Q 3194 4913 3494 4250 
Q 3794 3591 3566 2422 
Q 3341 1256 2781 594 
Q 2225 -72 1475 -72 
Q 722 -72 425 594 
Q 128 1256 353 2422 
Q 581 3591 1134 4250 
Q 1691 4913 2444 4913 
z
" transform="scale(0.015625)"/>
       <path id="DejaVuSans-20" transform="scale(0.015625)"/>
       <path id="DejaVuSans-5b" d="M 550 4863 
L 1875 4863 
L 1875 4416 
L 1125 4416 
L 1125 -397 
L 1875 -397 
L 1875 -844 
L 550 -844 
L 550 4863 
z
" transform="scale(0.015625)"/>
       <path id="DejaVuSans-2218" d="M 2003 2603 
Q 1753 2603 1581 2429 
Q 1409 2256 1409 2006 
Q 1409 1759 1581 1589 
Q 1753 1419 2003 1419 
Q 2253 1419 2425 1589 
Q 2597 1759 2597 2006 
Q 2597 2253 2423 2428 
Q 2250 2603 2003 2603 
z
M 2003 3006 
Q 2203 3006 2387 2929 
Q 2572 2853 2706 2709 
Q 2850 2569 2922 2390 
Q 2994 2212 2994 2006 
Q 2994 1594 2705 1308 
Q 2416 1022 1997 1022 
Q 1575 1022 1294 1303 
Q 1013 1584 1013 2006 
Q 1013 2425 1300 2715 
Q 1588 3006 2003 3006 
z
" transform="scale(0.015625)"/>
       <path id="DejaVuSans-5d" d="M 1947 4863 
L 1947 -844 
L 622 -844 
L 622 -397 
L 1369 -397 
L 1369 4416 
L 622 4416 
L 622 4863 
L 1947 4863 
z
" transform="scale(0.015625)"/>
      </defs>
      <use xlink:href="#DejaVuSans-Oblique-3b8" transform="translate(0 0.234375)"/>
      <use xlink:href="#DejaVuSans-20" transform="translate(61.181641 0.234375)"/>
      <use xlink:href="#DejaVuSans-5b" transform="translate(92.96875 0.234375)"/>
      <use xlink:href="#DejaVuSans-2218" transform="translate(146.577148 38.515625) scale(0.7)"/>
      <use xlink:href="#DejaVuSans-5d" transform="translate(206.767578 0.234375)"/>
     </g>
    </g>
   </g>
   <g id="line2d_3">
    <path d="M 63.2 14.015659 
L 69.684848 14.015659 
L 76.169697 15.007944 
L 82.654545 16.490431 
L 89.139394 18.459203 
L 95.624242 20.910373 
L 102.109091 23.840084 
L 108.593939 27.244511 
L 115.078788 31.119859 
L 121.563636 35.462364 
L 128.048485 40.26829 
L 134.533333 45.533933 
L 141.018182 50.259349 
L 147.50303 54.448857 
L 153.987879 58.106736 
L 160.472727 61.237235 
L 166.957576 63.844566 
L 173.442424 65.932912 
L 179.927273 67.506418 
L 186.412121 69.565464 
L 192.89697 71.109904 
L 199.381818 72.14385 
L 205.866667 72.671381 
L 212.351515 73.69281 
L 218.836364 74.207924 
L 225.321212 74.220769 
L 231.806061 74.731626 
L 238.290909 74.740247 
L 244.775758 75.246912 
L 251.260606 75.251376 
L 257.745455 75.753918 
L 264.230303 75.754291 
L 270.715152 76.252775 
L 277.2 76.249121 
" clip-path="url(#p87b9c4c3fa)" style="fill: none; stroke: #0000ff; stroke-width: 1.5; stroke-linecap: square"/>
    <defs>
     <path id="me602babc6b" d="M -3 0 
L 3 0 
M 0 3 
L 0 -3 
" style="stroke: #0000ff"/>
    </defs>
    <g clip-path="url(#p87b9c4c3fa)">
     <use xlink:href="#me602babc6b" x="63.2" y="14.015659" style="fill: #0000ff; stroke: #0000ff"/>
     <use xlink:href="#me602babc6b" x="69.684848" y="14.015659" style="fill: #0000ff; stroke: #0000ff"/>
     <use xlink:href="#me602babc6b" x="76.169697" y="15.007944" style="fill: #0000ff; stroke: #0000ff"/>
     <use xlink:href="#me602babc6b" x="82.654545" y="16.490431" style="fill: #0000ff; stroke: #0000ff"/>
     <use xlink:href="#me602babc6b" x="89.139394" y="18.459203" style="fill: #0000ff; stroke: #0000ff"/>
     <use xlink:href="#me602babc6b" x="95.624242" y="20.910373" style="fill: #0000ff; stroke: #0000ff"/>
     <use xlink:href="#me602babc6b" x="102.109091" y="23.840084" style="fill: #0000ff; stroke: #0000ff"/>
     <use xlink:href="#me602babc6b" x="108.593939" y="27.244511" style="fill: #0000ff; stroke: #0000ff"/>
     <use xlink:href="#me602babc6b" x="115.078788" y="31.119859" style="fill: #0000ff; stroke: #0000ff"/>
     <use xlink:href="#me602babc6b" x="121.563636" y="35.462364" style="fill: #0000ff; stroke: #0000ff"/>
     <use xlink:href="#me602babc6b" x="128.048485" y="40.26829" style="fill: #0000ff; stroke: #0000ff"/>
     <use xlink:href="#me602babc6b" x="134.533333" y="45.533933" style="fill: #0000ff; stroke: #0000ff"/>
     <use xlink:href="#me602babc6b" x="141.018182" y="50.259349" style="fill: #0000ff; stroke: #0000ff"/>
     <use xlink:href="#me602babc6b" x="147.50303" y="54.448857" style="fill: #0000ff; stroke: #0000ff"/>
     <use xlink:href="#me602babc6b" x="153.987879" y="58.106736" style="fill: #0000ff; stroke: #0000ff"/>
     <use xlink:href="#me602babc6b" x="160.472727" y="61.237235" style="fill: #0000ff; stroke: #0000ff"/>
     <use xlink:href="#me602babc6b" x="166.957576" y="63.844566" style="fill: #0000ff; stroke: #0000ff"/>
     <use xlink:href="#me602babc6b" x="173.442424" y="65.932912" style="fill: #0000ff; stroke: #0000ff"/>
     <use xlink:href="#me602babc6b" x="179.927273" y="67.506418" style="fill: #0000ff; stroke: #0000ff"/>
     <use xlink:href="#me602babc6b" x="186.412121" y="69.565464" style="fill: #0000ff; stroke: #0000ff"/>
     <use xlink:href="#me602babc6b" x="192.89697" y="71.109904" style="fill: #0000ff; stroke: #0000ff"/>
     <use xlink:href="#me602babc6b" x="199.381818" y="72.14385" style="fill: #0000ff; stroke: #0000ff"/>
     <use xlink:href="#me602babc6b" x="205.866667" y="72.671381" style="fill: #0000ff; stroke: #0000ff"/>
     <use xlink:href="#me602babc6b" x="212.351515" y="73.69281" style="fill: #0000ff; stroke: #0000ff"/>
     <use xlink:href="#me602babc6b" x="218.836364" y="74.207924" style="fill: #0000ff; stroke: #0000ff"/>
     <use xlink:href="#me602babc6b" x="225.321212" y="74.220769" style="fill: #0000ff; stroke: #0000ff"/>
     <use xlink:href="#me602babc6b" x="231.806061" y="74.731626" style="fill: #0000ff; stroke: #0000ff"/>
     <use xlink:href="#me602babc6b" x="238.290909" y="74.740247" style="fill: #0000ff; stroke: #0000ff"/>
     <use xlink:href="#me602babc6b" x="244.775758" y="75.246912" style="fill: #0000ff; stroke: #0000ff"/>
     <use xlink:href="#me602babc6b" x="251.260606" y="75.251376" style="fill: #0000ff; stroke: #0000ff"/>
     <use xlink:href="#me602babc6b" x="257.745455" y="75.753918" style="fill: #0000ff; stroke: #0000ff"/>
     <use xlink:href="#me602babc6b" x="264.230303" y="75.754291" style="fill: #0000ff; stroke: #0000ff"/>
     <use xlink:href="#me602babc6b" x="270.715152" y="76.252775" style="fill: #0000ff; stroke: #0000ff"/>
     <use xlink:href="#me602babc6b" x="277.2" y="76.249121" style="fill: #0000ff; stroke: #0000ff"/>
    </g>
   </g>
   <g id="patch_4">
    <path d="M 63.2 81.544487 
L 63.2 10.8 
" style="fill: none; stroke: #000000; stroke-width: 0.8; stroke-linejoin: miter; stroke-linecap: square"/>
   </g>
   <g id="patch_5">
    <path d="M 277.2 81.544487 
L 277.2 10.8 
" style="fill: none; stroke: #000000; stroke-width: 0.8; stroke-linejoin: miter; stroke-linecap: square"/>
   </g>
   <g id="patch_6">
    <path d="M 63.2 81.544487 
L 277.2 81.544487 
" style="fill: none; stroke: #000000; stroke-width: 0.8; stroke-linejoin: miter; stroke-linecap: square"/>
   </g>
   <g id="patch_7">
    <path d="M 63.2 10.8 
L 277.2 10.8 
" style="fill: none; stroke: #000000; stroke-width: 0.8; stroke-linejoin: miter; stroke-linecap: square"/>
   </g>
   <g id="legend_1">
    <g id="patch_8">
     <path d="M 226 33.478125 
L 270.2 33.478125 
Q 272.2 33.478125 272.2 31.478125 
L 272.2 17.8 
Q 272.2 15.8 270.2 15.8 
L 226 15.8 
Q 224 15.8 224 17.8 
L 224 31.478125 
Q 224 33.478125 226 33.478125 
z
" style="fill: #ffffff; opacity: 0.8; stroke: #cccccc; stroke-linejoin: miter"/>
    </g>
    <g id="line2d_4">
     <path d="M 228 23.898438 
L 238 23.898438 
L 248 23.898438 
" style="fill: none; stroke: #0000ff; stroke-width: 1.5; stroke-linecap: square"/>
     <g>
      <use xlink:href="#me602babc6b" x="238" y="23.898438" style="fill: #0000ff; stroke: #0000ff"/>
     </g>
    </g>
    <g id="text_4">
     <!-- $\theta_w$ -->
     <g transform="translate(256 27.398438) scale(0.1 -0.1)">
      <defs>
       <path id="DejaVuSans-Oblique-77" d="M 544 3500 
L 1113 3500 
L 1259 684 
L 2566 3500 
L 3231 3500 
L 3425 684 
L 4666 3500 
L 5241 3500 
L 3641 0 
L 2969 0 
L 2797 2900 
L 1459 0 
L 781 0 
L 544 3500 
z
" transform="scale(0.015625)"/>
      </defs>
      <use xlink:href="#DejaVuSans-Oblique-3b8" transform="translate(0 0.234375)"/>
      <use xlink:href="#DejaVuSans-Oblique-77" transform="translate(61.181641 -16.171875) scale(0.7)"/>
     </g>
    </g>
   </g>
  </g>
  <g id="axes_2">
   <g id="patch_9">
    <path d="M 63.2 163.792244 
L 277.2 163.792244 
L 277.2 93.047756 
L 63.2 93.047756 
z
" style="fill: #ffffff"/>
   </g>
   <g id="patch_10">
    <path d="M 63.2 158.286108 
L 283.684848 158.286108 
L 283.684848 158.208625 
L 63.2 158.208625 
z
" clip-path="url(#p91e0d65bba)" style="fill: #ff0000; opacity: 0.2"/>
   </g>
   <g id="matplotlib.axis_3"/>
   <g id="matplotlib.axis_4">
    <g id="ytick_3">
     <g id="line2d_5">
      <g>
       <use xlink:href="#md8f69da1e7" x="63.2" y="158.247367" style="stroke: #000000; stroke-width: 0.8"/>
      </g>
     </g>
     <g id="text_5">
      <!-- 0 -->
      <g transform="translate(49.8375 162.046585) scale(0.1 -0.1)">
       <use xlink:href="#DejaVuSans-30"/>
      </g>
     </g>
    </g>
    <g id="ytick_4">
     <g id="line2d_6">
      <g>
       <use xlink:href="#md8f69da1e7" x="63.2" y="127.254063" style="stroke: #000000; stroke-width: 0.8"/>
      </g>
     </g>
     <g id="text_6">
      <!-- 2000 -->
      <g transform="translate(30.75 131.053282) scale(0.1 -0.1)">
       <defs>
        <path id="DejaVuSans-32" d="M 1228 531 
L 3431 531 
L 3431 0 
L 469 0 
L 469 531 
Q 828 903 1448 1529 
Q 2069 2156 2228 2338 
Q 2531 2678 2651 2914 
Q 2772 3150 2772 3378 
Q 2772 3750 2511 3984 
Q 2250 4219 1831 4219 
Q 1534 4219 1204 4116 
Q 875 4013 500 3803 
L 500 4441 
Q 881 4594 1212 4672 
Q 1544 4750 1819 4750 
Q 2544 4750 2975 4387 
Q 3406 4025 3406 3419 
Q 3406 3131 3298 2873 
Q 3191 2616 2906 2266 
Q 2828 2175 2409 1742 
Q 1991 1309 1228 531 
z
" transform="scale(0.015625)"/>
       </defs>
       <use xlink:href="#DejaVuSans-32"/>
       <use xlink:href="#DejaVuSans-30" x="63.623047"/>
       <use xlink:href="#DejaVuSans-30" x="127.246094"/>
       <use xlink:href="#DejaVuSans-30" x="190.869141"/>
      </g>
     </g>
    </g>
    <g id="ytick_5">
     <g id="line2d_7">
      <g>
       <use xlink:href="#md8f69da1e7" x="63.2" y="96.26076" style="stroke: #000000; stroke-width: 0.8"/>
      </g>
     </g>
     <g id="text_7">
      <!-- 4000 -->
      <g transform="translate(30.75 100.059979) scale(0.1 -0.1)">
       <defs>
        <path id="DejaVuSans-34" d="M 2419 4116 
L 825 1625 
L 2419 1625 
L 2419 4116 
z
M 2253 4666 
L 3047 4666 
L 3047 1625 
L 3713 1625 
L 3713 1100 
L 3047 1100 
L 3047 0 
L 2419 0 
L 2419 1100 
L 313 1100 
L 313 1709 
L 2253 4666 
z
" transform="scale(0.015625)"/>
       </defs>
       <use xlink:href="#DejaVuSans-34"/>
       <use xlink:href="#DejaVuSans-30" x="63.623047"/>
       <use xlink:href="#DejaVuSans-30" x="127.246094"/>
       <use xlink:href="#DejaVuSans-30" x="190.869141"/>
      </g>
     </g>
    </g>
    <g id="text_8">
     <!-- $\dot{\theta}$  [$^\circ$/s] -->
     <g transform="translate(24.670313 146.62) rotate(-90) scale(0.1 -0.1)">
      <defs>
       <path id="DejaVuSans-307" d="M -1894 4863 
L -1319 4863 
L -1319 4134 
L -1894 4134 
L -1894 4863 
z
M -1600 3584 
L -1600 3584 
z
" transform="scale(0.015625)"/>
       <path id="DejaVuSans-2f" d="M 1625 4666 
L 2156 4666 
L 531 -594 
L 0 -594 
L 1625 4666 
z
" transform="scale(0.015625)"/>
       <path id="DejaVuSans-73" d="M 2834 3397 
L 2834 2853 
Q 2591 2978 2328 3040 
Q 2066 3103 1784 3103 
Q 1356 3103 1142 2972 
Q 928 2841 928 2578 
Q 928 2378 1081 2264 
Q 1234 2150 1697 2047 
L 1894 2003 
Q 2506 1872 2764 1633 
Q 3022 1394 3022 966 
Q 3022 478 2636 193 
Q 2250 -91 1575 -91 
Q 1294 -91 989 -36 
Q 684 19 347 128 
L 347 722 
Q 666 556 975 473 
Q 1284 391 1588 391 
Q 1994 391 2212 530 
Q 2431 669 2431 922 
Q 2431 1156 2273 1281 
Q 2116 1406 1581 1522 
L 1381 1569 
Q 847 1681 609 1914 
Q 372 2147 372 2553 
Q 372 3047 722 3315 
Q 1072 3584 1716 3584 
Q 2034 3584 2315 3537 
Q 2597 3491 2834 3397 
z
" transform="scale(0.015625)"/>
      </defs>
      <use xlink:href="#DejaVuSans-307" transform="translate(62.88916 34.015625)"/>
      <use xlink:href="#DejaVuSans-Oblique-3b8" transform="translate(0 0.75)"/>
      <use xlink:href="#DejaVuSans-20" transform="translate(61.181641 0.75)"/>
      <use xlink:href="#DejaVuSans-20" transform="translate(92.96875 0.75)"/>
      <use xlink:href="#DejaVuSans-5b" transform="translate(124.755859 0.75)"/>
      <use xlink:href="#DejaVuSans-2218" transform="translate(178.364258 39.03125) scale(0.7)"/>
      <use xlink:href="#DejaVuSans-2f" transform="translate(238.554688 0.75)"/>
      <use xlink:href="#DejaVuSans-73" transform="translate(272.246094 0.75)"/>
      <use xlink:href="#DejaVuSans-5d" transform="translate(324.345703 0.75)"/>
     </g>
    </g>
   </g>
   <g id="line2d_8">
    <path d="M 63.2 158.467712 
L 69.684848 158.467712 
L 76.169697 158.686297 
L 82.654545 158.903134 
L 89.139394 159.118239 
L 95.624242 159.331624 
L 102.109091 159.543303 
L 108.593939 159.75329 
L 115.078788 159.961599 
L 121.563636 160.168242 
L 128.048485 160.373233 
L 134.533333 160.576585 
L 141.018182 160.33762 
L 147.50303 160.100564 
L 153.987879 159.865403 
L 160.472727 159.63212 
L 166.957576 159.400701 
L 173.442424 159.171131 
L 179.927273 158.943395 
L 186.412121 159.158171 
L 192.89697 158.930538 
L 199.381818 158.704725 
L 205.866667 158.480716 
L 212.351515 158.699188 
L 218.836364 158.475224 
L 225.321212 158.253048 
L 231.806061 158.47334 
L 238.290909 158.25118 
L 244.775758 158.471487 
L 251.260606 158.249341 
L 257.745455 158.469662 
L 264.230303 158.247532 
L 270.715152 158.467867 
L 277.2 158.245751 
" clip-path="url(#p91e0d65bba)" style="fill: none; stroke: #0000ff; stroke-width: 1.5; stroke-linecap: square"/>
   </g>
   <g id="line2d_9">
    <path d="M 63.2 152.38483 
L 69.684848 152.38483 
L 76.169697 146.568915 
L 82.654545 140.79925 
L 89.139394 135.075468 
L 95.624242 129.397203 
L 102.109091 123.764094 
L 108.593939 118.175782 
L 115.078788 112.63191 
L 121.563636 107.132124 
L 128.048485 101.676075 
L 134.533333 96.263415 
L 141.018182 102.61887 
L 147.50303 108.923785 
L 153.987879 115.17856 
L 160.472727 121.383596 
L 166.957576 127.539286 
L 173.442424 133.646024 
L 179.927273 139.7042 
L 186.412121 133.989125 
L 192.89697 140.044572 
L 199.381818 146.051864 
L 205.866667 152.011383 
L 212.351515 146.198437 
L 218.836364 152.156791 
L 225.321212 158.067762 
L 231.806061 152.206654 
L 238.290909 158.117228 
L 244.775758 152.255727 
L 251.260606 158.165911 
L 257.745455 152.304022 
L 264.230303 158.213822 
L 270.715152 152.351552 
L 277.2 158.260974 
" clip-path="url(#p91e0d65bba)" style="fill: none; stroke: #ff0000; stroke-width: 1.5; stroke-linecap: square"/>
   </g>
   <g id="patch_11">
    <path d="M 63.2 163.792244 
L 63.2 93.047756 
" style="fill: none; stroke: #000000; stroke-width: 0.8; stroke-linejoin: miter; stroke-linecap: square"/>
   </g>
   <g id="patch_12">
    <path d="M 277.2 163.792244 
L 277.2 93.047756 
" style="fill: none; stroke: #000000; stroke-width: 0.8; stroke-linejoin: miter; stroke-linecap: square"/>
   </g>
   <g id="patch_13">
    <path d="M 63.2 163.792244 
L 277.2 163.792244 
" style="fill: none; stroke: #000000; stroke-width: 0.8; stroke-linejoin: miter; stroke-linecap: square"/>
   </g>
   <g id="patch_14">
    <path d="M 63.2 93.047756 
L 277.2 93.047756 
" style="fill: none; stroke: #000000; stroke-width: 0.8; stroke-linejoin: miter; stroke-linecap: square"/>
   </g>
   <g id="legend_2">
    <g id="patch_15">
     <path d="M 166.9 118.847756 
L 270.2 118.847756 
Q 272.2 118.847756 272.2 116.847756 
L 272.2 100.047756 
Q 272.2 98.047756 270.2 98.047756 
L 166.9 98.047756 
Q 164.9 98.047756 164.9 100.047756 
L 164.9 116.847756 
Q 164.9 118.847756 166.9 118.847756 
z
" style="fill: #ffffff; opacity: 0.8; stroke: #cccccc; stroke-linejoin: miter"/>
    </g>
    <g id="line2d_10">
     <path d="M 168.9 109.268069 
L 178.9 109.268069 
L 188.9 109.268069 
" style="fill: none; stroke: #0000ff; stroke-width: 1.5; stroke-linecap: square"/>
    </g>
    <g id="text_9">
     <!-- $\dot{\theta}_w$ -->
     <g transform="translate(196.9 112.768069) scale(0.1 -0.1)">
      <use xlink:href="#DejaVuSans-307" transform="translate(62.88916 34.015625)"/>
      <use xlink:href="#DejaVuSans-Oblique-3b8" transform="translate(0 0.75)"/>
      <use xlink:href="#DejaVuSans-Oblique-77" transform="translate(62.138672 -15.65625) scale(0.7)"/>
     </g>
    </g>
    <g id="line2d_11">
     <path d="M 229.2 109.268069 
L 239.2 109.268069 
L 249.2 109.268069 
" style="fill: none; stroke: #ff0000; stroke-width: 1.5; stroke-linecap: square"/>
    </g>
    <g id="text_10">
     <!-- $\dot{\theta}_b$ -->
     <g transform="translate(257.2 112.768069) scale(0.1 -0.1)">
      <defs>
       <path id="DejaVuSans-Oblique-62" d="M 3169 2138 
Q 3169 2591 2961 2847 
Q 2753 3103 2388 3103 
Q 2122 3103 1889 2973 
Q 1656 2844 1484 2597 
Q 1303 2338 1198 1995 
Q 1094 1653 1094 1313 
Q 1094 881 1298 636 
Q 1503 391 1863 391 
Q 2134 391 2365 517 
Q 2597 644 2772 891 
Q 2950 1147 3059 1487 
Q 3169 1828 3169 2138 
z
M 1381 2969 
Q 1594 3256 1914 3420 
Q 2234 3584 2584 3584 
Q 3122 3584 3439 3221 
Q 3756 2859 3756 2241 
Q 3756 1734 3570 1259 
Q 3384 784 3041 416 
Q 2816 172 2522 40 
Q 2228 -91 1906 -91 
Q 1566 -91 1316 65 
Q 1066 222 909 531 
L 806 0 
L 231 0 
L 1178 4863 
L 1753 4863 
L 1381 2969 
z
" transform="scale(0.015625)"/>
      </defs>
      <use xlink:href="#DejaVuSans-307" transform="translate(62.88916 34.015625)"/>
      <use xlink:href="#DejaVuSans-Oblique-3b8" transform="translate(0 0.75)"/>
      <use xlink:href="#DejaVuSans-Oblique-62" transform="translate(62.138672 -15.65625) scale(0.7)"/>
     </g>
    </g>
   </g>
  </g>
  <g id="axes_3">
   <g id="patch_16">
    <path d="M 63.2 246.04 
L 277.2 246.04 
L 277.2 175.295513 
L 63.2 175.295513 
z
" style="fill: #ffffff"/>
   </g>
   <g id="matplotlib.axis_5">
    <g id="xtick_1">
     <g id="line2d_12">
      <defs>
       <path id="m04255e7c33" d="M 0 0 
L 0 3.5 
" style="stroke: #000000; stroke-width: 0.8"/>
      </defs>
      <g>
       <use xlink:href="#m04255e7c33" x="63.2" y="246.04" style="stroke: #000000; stroke-width: 0.8"/>
      </g>
     </g>
     <g id="text_11">
      <!-- 0.00 -->
      <g transform="translate(52.067188 260.638438) scale(0.1 -0.1)">
       <defs>
        <path id="DejaVuSans-2e" d="M 684 794 
L 1344 794 
L 1344 0 
L 684 0 
L 684 794 
z
" transform="scale(0.015625)"/>
       </defs>
       <use xlink:href="#DejaVuSans-30"/>
       <use xlink:href="#DejaVuSans-2e" x="63.623047"/>
       <use xlink:href="#DejaVuSans-30" x="95.410156"/>
       <use xlink:href="#DejaVuSans-30" x="159.033203"/>
      </g>
     </g>
    </g>
    <g id="xtick_2">
     <g id="line2d_13">
      <g>
       <use xlink:href="#m04255e7c33" x="95.624242" y="246.04" style="stroke: #000000; stroke-width: 0.8"/>
      </g>
     </g>
     <g id="text_12">
      <!-- 0.25 -->
      <g transform="translate(84.49143 260.638438) scale(0.1 -0.1)">
       <use xlink:href="#DejaVuSans-30"/>
       <use xlink:href="#DejaVuSans-2e" x="63.623047"/>
       <use xlink:href="#DejaVuSans-32" x="95.410156"/>
       <use xlink:href="#DejaVuSans-35" x="159.033203"/>
      </g>
     </g>
    </g>
    <g id="xtick_3">
     <g id="line2d_14">
      <g>
       <use xlink:href="#m04255e7c33" x="128.048485" y="246.04" style="stroke: #000000; stroke-width: 0.8"/>
      </g>
     </g>
     <g id="text_13">
      <!-- 0.50 -->
      <g transform="translate(116.915672 260.638438) scale(0.1 -0.1)">
       <use xlink:href="#DejaVuSans-30"/>
       <use xlink:href="#DejaVuSans-2e" x="63.623047"/>
       <use xlink:href="#DejaVuSans-35" x="95.410156"/>
       <use xlink:href="#DejaVuSans-30" x="159.033203"/>
      </g>
     </g>
    </g>
    <g id="xtick_4">
     <g id="line2d_15">
      <g>
       <use xlink:href="#m04255e7c33" x="160.472727" y="246.04" style="stroke: #000000; stroke-width: 0.8"/>
      </g>
     </g>
     <g id="text_14">
      <!-- 0.75 -->
      <g transform="translate(149.339915 260.638438) scale(0.1 -0.1)">
       <defs>
        <path id="DejaVuSans-37" d="M 525 4666 
L 3525 4666 
L 3525 4397 
L 1831 0 
L 1172 0 
L 2766 4134 
L 525 4134 
L 525 4666 
z
" transform="scale(0.015625)"/>
       </defs>
       <use xlink:href="#DejaVuSans-30"/>
       <use xlink:href="#DejaVuSans-2e" x="63.623047"/>
       <use xlink:href="#DejaVuSans-37" x="95.410156"/>
       <use xlink:href="#DejaVuSans-35" x="159.033203"/>
      </g>
     </g>
    </g>
    <g id="xtick_5">
     <g id="line2d_16">
      <g>
       <use xlink:href="#m04255e7c33" x="192.89697" y="246.04" style="stroke: #000000; stroke-width: 0.8"/>
      </g>
     </g>
     <g id="text_15">
      <!-- 1.00 -->
      <g transform="translate(181.764157 260.638438) scale(0.1 -0.1)">
       <defs>
        <path id="DejaVuSans-31" d="M 794 531 
L 1825 531 
L 1825 4091 
L 703 3866 
L 703 4441 
L 1819 4666 
L 2450 4666 
L 2450 531 
L 3481 531 
L 3481 0 
L 794 0 
L 794 531 
z
" transform="scale(0.015625)"/>
       </defs>
       <use xlink:href="#DejaVuSans-31"/>
       <use xlink:href="#DejaVuSans-2e" x="63.623047"/>
       <use xlink:href="#DejaVuSans-30" x="95.410156"/>
       <use xlink:href="#DejaVuSans-30" x="159.033203"/>
      </g>
     </g>
    </g>
    <g id="xtick_6">
     <g id="line2d_17">
      <g>
       <use xlink:href="#m04255e7c33" x="225.321212" y="246.04" style="stroke: #000000; stroke-width: 0.8"/>
      </g>
     </g>
     <g id="text_16">
      <!-- 1.25 -->
      <g transform="translate(214.1884 260.638438) scale(0.1 -0.1)">
       <use xlink:href="#DejaVuSans-31"/>
       <use xlink:href="#DejaVuSans-2e" x="63.623047"/>
       <use xlink:href="#DejaVuSans-32" x="95.410156"/>
       <use xlink:href="#DejaVuSans-35" x="159.033203"/>
      </g>
     </g>
    </g>
    <g id="xtick_7">
     <g id="line2d_18">
      <g>
       <use xlink:href="#m04255e7c33" x="257.745455" y="246.04" style="stroke: #000000; stroke-width: 0.8"/>
      </g>
     </g>
     <g id="text_17">
      <!-- 1.50 -->
      <g transform="translate(246.612642 260.638438) scale(0.1 -0.1)">
       <use xlink:href="#DejaVuSans-31"/>
       <use xlink:href="#DejaVuSans-2e" x="63.623047"/>
       <use xlink:href="#DejaVuSans-35" x="95.410156"/>
       <use xlink:href="#DejaVuSans-30" x="159.033203"/>
      </g>
     </g>
    </g>
    <g id="text_18">
     <!-- Time [s] -->
     <g transform="translate(149.871094 274.316562) scale(0.1 -0.1)">
      <defs>
       <path id="DejaVuSans-54" d="M -19 4666 
L 3928 4666 
L 3928 4134 
L 2272 4134 
L 2272 0 
L 1638 0 
L 1638 4134 
L -19 4134 
L -19 4666 
z
" transform="scale(0.015625)"/>
       <path id="DejaVuSans-69" d="M 603 3500 
L 1178 3500 
L 1178 0 
L 603 0 
L 603 3500 
z
M 603 4863 
L 1178 4863 
L 1178 4134 
L 603 4134 
L 603 4863 
z
" transform="scale(0.015625)"/>
       <path id="DejaVuSans-6d" d="M 3328 2828 
Q 3544 3216 3844 3400 
Q 4144 3584 4550 3584 
Q 5097 3584 5394 3201 
Q 5691 2819 5691 2113 
L 5691 0 
L 5113 0 
L 5113 2094 
Q 5113 2597 4934 2840 
Q 4756 3084 4391 3084 
Q 3944 3084 3684 2787 
Q 3425 2491 3425 1978 
L 3425 0 
L 2847 0 
L 2847 2094 
Q 2847 2600 2669 2842 
Q 2491 3084 2119 3084 
Q 1678 3084 1418 2786 
Q 1159 2488 1159 1978 
L 1159 0 
L 581 0 
L 581 3500 
L 1159 3500 
L 1159 2956 
Q 1356 3278 1631 3431 
Q 1906 3584 2284 3584 
Q 2666 3584 2933 3390 
Q 3200 3197 3328 2828 
z
" transform="scale(0.015625)"/>
       <path id="DejaVuSans-65" d="M 3597 1894 
L 3597 1613 
L 953 1613 
Q 991 1019 1311 708 
Q 1631 397 2203 397 
Q 2534 397 2845 478 
Q 3156 559 3463 722 
L 3463 178 
Q 3153 47 2828 -22 
Q 2503 -91 2169 -91 
Q 1331 -91 842 396 
Q 353 884 353 1716 
Q 353 2575 817 3079 
Q 1281 3584 2069 3584 
Q 2775 3584 3186 3129 
Q 3597 2675 3597 1894 
z
M 3022 2063 
Q 3016 2534 2758 2815 
Q 2500 3097 2075 3097 
Q 1594 3097 1305 2825 
Q 1016 2553 972 2059 
L 3022 2063 
z
" transform="scale(0.015625)"/>
      </defs>
      <use xlink:href="#DejaVuSans-54"/>
      <use xlink:href="#DejaVuSans-69" x="57.958984"/>
      <use xlink:href="#DejaVuSans-6d" x="85.742188"/>
      <use xlink:href="#DejaVuSans-65" x="183.154297"/>
      <use xlink:href="#DejaVuSans-20" x="244.677734"/>
      <use xlink:href="#DejaVuSans-5b" x="276.464844"/>
      <use xlink:href="#DejaVuSans-73" x="315.478516"/>
      <use xlink:href="#DejaVuSans-5d" x="367.578125"/>
     </g>
    </g>
   </g>
   <g id="matplotlib.axis_6">
    <g id="ytick_6">
     <g id="line2d_19">
      <g>
       <use xlink:href="#md8f69da1e7" x="63.2" y="235.933645" style="stroke: #000000; stroke-width: 0.8"/>
      </g>
     </g>
     <g id="text_19">
      <!-- −0.05 -->
      <g transform="translate(25.554688 239.732863) scale(0.1 -0.1)">
       <defs>
        <path id="DejaVuSans-2212" d="M 678 2272 
L 4684 2272 
L 4684 1741 
L 678 1741 
L 678 2272 
z
" transform="scale(0.015625)"/>
       </defs>
       <use xlink:href="#DejaVuSans-2212"/>
       <use xlink:href="#DejaVuSans-30" x="83.789062"/>
       <use xlink:href="#DejaVuSans-2e" x="147.412109"/>
       <use xlink:href="#DejaVuSans-30" x="179.199219"/>
       <use xlink:href="#DejaVuSans-35" x="242.822266"/>
      </g>
     </g>
    </g>
    <g id="ytick_7">
     <g id="line2d_20">
      <g>
       <use xlink:href="#md8f69da1e7" x="63.2" y="210.667756" style="stroke: #000000; stroke-width: 0.8"/>
      </g>
     </g>
     <g id="text_20">
      <!-- 0.00 -->
      <g transform="translate(33.934375 214.466975) scale(0.1 -0.1)">
       <use xlink:href="#DejaVuSans-30"/>
       <use xlink:href="#DejaVuSans-2e" x="63.623047"/>
       <use xlink:href="#DejaVuSans-30" x="95.410156"/>
       <use xlink:href="#DejaVuSans-30" x="159.033203"/>
      </g>
     </g>
    </g>
    <g id="ytick_8">
     <g id="line2d_21">
      <g>
       <use xlink:href="#md8f69da1e7" x="63.2" y="185.401868" style="stroke: #000000; stroke-width: 0.8"/>
      </g>
     </g>
     <g id="text_21">
      <!-- 0.05 -->
      <g transform="translate(33.934375 189.201087) scale(0.1 -0.1)">
       <use xlink:href="#DejaVuSans-30"/>
       <use xlink:href="#DejaVuSans-2e" x="63.623047"/>
       <use xlink:href="#DejaVuSans-30" x="95.410156"/>
       <use xlink:href="#DejaVuSans-35" x="159.033203"/>
      </g>
     </g>
    </g>
    <g id="text_22">
     <!-- $\tau$  [Nm] -->
     <g transform="translate(19.475 229.417756) rotate(-90) scale(0.1 -0.1)">
      <defs>
       <path id="DejaVuSans-Oblique-3c4" d="M 2103 638 
Q 2188 488 2525 488 
L 2800 488 
L 2706 0 
L 2363 0 
Q 1800 0 1600 300 
Q 1403 606 1534 1269 
L 1856 2925 
L 541 2925 
L 653 3500 
L 3881 3500 
L 3769 2925 
L 2444 2925 
L 2113 1234 
Q 2025 781 2103 638 
z
" transform="scale(0.015625)"/>
       <path id="DejaVuSans-4e" d="M 628 4666 
L 1478 4666 
L 3547 763 
L 3547 4666 
L 4159 4666 
L 4159 0 
L 3309 0 
L 1241 3903 
L 1241 0 
L 628 0 
L 628 4666 
z
" transform="scale(0.015625)"/>
      </defs>
      <use xlink:href="#DejaVuSans-Oblique-3c4" transform="translate(0 0.015625)"/>
      <use xlink:href="#DejaVuSans-20" transform="translate(60.205078 0.015625)"/>
      <use xlink:href="#DejaVuSans-20" transform="translate(91.992188 0.015625)"/>
      <use xlink:href="#DejaVuSans-5b" transform="translate(123.779297 0.015625)"/>
      <use xlink:href="#DejaVuSans-4e" transform="translate(162.792969 0.015625)"/>
      <use xlink:href="#DejaVuSans-6d" transform="translate(237.597656 0.015625)"/>
      <use xlink:href="#DejaVuSans-5d" transform="translate(335.009766 0.015625)"/>
     </g>
    </g>
   </g>
   <g id="line2d_22">
    <path d="M 63.2 180.348691 
L 63.2 180.348691 
L 69.684848 180.348691 
L 69.684848 180.348691 
L 76.169697 180.348691 
L 76.169697 180.348691 
L 82.654545 180.348691 
L 82.654545 180.348691 
L 89.139394 180.348691 
L 89.139394 180.348691 
L 95.624242 180.348691 
L 95.624242 180.348691 
L 102.109091 180.348691 
L 102.109091 180.348691 
L 108.593939 180.348691 
L 108.593939 180.348691 
L 115.078788 180.348691 
L 115.078788 180.348691 
L 121.563636 180.348691 
L 121.563636 180.348691 
L 128.048485 180.348691 
L 128.048485 240.986822 
L 134.533333 240.986822 
L 134.533333 240.986822 
L 141.018182 240.986822 
L 141.018182 240.986822 
L 147.50303 240.986822 
L 147.50303 240.986822 
L 153.987879 240.986822 
L 153.987879 240.986822 
L 160.472727 240.986822 
L 160.472727 240.986822 
L 166.957576 240.986822 
L 166.957576 240.986822 
L 173.442424 240.986822 
L 173.442424 180.348691 
L 179.927273 180.348691 
L 179.927273 240.986822 
L 186.412121 240.986822 
L 186.412121 240.986822 
L 192.89697 240.986822 
L 192.89697 240.986822 
L 199.381818 240.986822 
L 199.381818 180.348691 
L 205.866667 180.348691 
L 205.866667 240.986822 
L 212.351515 240.986822 
L 212.351515 240.986822 
L 218.836364 240.986822 
L 218.836364 180.348691 
L 225.321212 180.348691 
L 225.321212 240.986822 
L 231.806061 240.986822 
L 231.806061 180.348691 
L 238.290909 180.348691 
L 238.290909 240.986822 
L 244.775758 240.986822 
L 244.775758 180.348691 
L 251.260606 180.348691 
L 251.260606 240.986822 
L 257.745455 240.986822 
L 257.745455 180.348691 
L 264.230303 180.348691 
L 264.230303 240.986822 
L 270.715152 240.986822 
" clip-path="url(#p5553226a0f)" style="fill: none; stroke: #000000; stroke-width: 1.5; stroke-linecap: square"/>
   </g>
   <g id="patch_17">
    <path d="M 63.2 246.04 
L 63.2 175.295513 
" style="fill: none; stroke: #000000; stroke-width: 0.8; stroke-linejoin: miter; stroke-linecap: square"/>
   </g>
   <g id="patch_18">
    <path d="M 277.2 246.04 
L 277.2 175.295513 
" style="fill: none; stroke: #000000; stroke-width: 0.8; stroke-linejoin: miter; stroke-linecap: square"/>
   </g>
   <g id="patch_19">
    <path d="M 63.2 246.04 
L 277.2 246.04 
" style="fill: none; stroke: #000000; stroke-width: 0.8; stroke-linejoin: miter; stroke-linecap: square"/>
   </g>
   <g id="patch_20">
    <path d="M 63.2 175.295513 
L 277.2 175.295513 
" style="fill: none; stroke: #000000; stroke-width: 0.8; stroke-linejoin: miter; stroke-linecap: square"/>
   </g>
  </g>
 </g>
 <defs>
  <clipPath id="p87b9c4c3fa">
   <rect x="63.2" y="10.8" width="214" height="70.744487"/>
  </clipPath>
  <clipPath id="p91e0d65bba">
   <rect x="63.2" y="93.047756" width="214" height="70.744487"/>
  </clipPath>
  <clipPath id="p5553226a0f">
   <rect x="63.2" y="175.295513" width="214" height="70.744487"/>
  </clipPath>
 </defs>
</svg>
