<?xml version="1.0" encoding="utf-8" standalone="no"?>
<!DOCTYPE svg PUBLIC "-//W3C//DTD SVG 1.1//EN"
  "http://www.w3.org/Graphics/SVG/1.1/DTD/svg11.dtd">
<svg xmlns:xlink="http://www.w3.org/1999/xlink" width="288pt" height="288pt" viewBox="0 0 288 288" xmlns="http://www.w3.org/2000/svg" version="1.1">
 <metadata>
  <rdf:RDF xmlns:dc="http://purl.org/dc/elements/1.1/" xmlns:cc="http://creativecommons.org/ns#" xmlns:rdf="http://www.w3.org/1999/02/22-rdf-syntax-ns#">
   <cc:Work>
    <dc:type rdf:resource="http://purl.org/dc/dcmitype/StillImage"/>
    <dc:date>2024-09-02T23:21:00.206423</dc:date>
    <dc:format>image/svg+xml</dc:format>
    <dc:creator>
     <cc:Agent>
      <dc:title>Matplotlib v3.7.5, https://matplotlib.org/</dc:title>
     </cc:Agent>
    </dc:creator>
   </cc:Work>
  </rdf:RDF>
 </metadata>
 <defs>
  <style type="text/css">*{stroke-linejoin: round; stroke-linecap: butt}</style>
 </defs>
 <g id="figure_1">
  <g id="patch_1">
   <path d="M 0 288 
L 288 288 
L 288 0 
L 0 0 
z
" style="fill: #ffffff"/>
  </g>
  <g id="axes_1">
   <g id="patch_2">
    <path d="M 69.535 78.354221 
L 277.2 78.354221 
L 277.2 10.8 
L 69.535 10.8 
z
" style="fill: #ffffff"/>
   </g>
   <g id="patch_3">
    <path d="M 69.535 41.628141 
L 282.029419 41.628141 
L 282.029419 24.800424 
L 69.535 24.800424 
z
" clip-path="url(#p1da2fb484b)" style="fill: #ff0000; opacity: 0.2"/>
   </g>
   <g id="matplotlib.axis_1"/>
   <g id="matplotlib.axis_2">
    <g id="ytick_1">
     <g id="line2d_1">
      <defs>
       <path id="mf070409bab" d="M 0 0 
L -3.5 0 
" style="stroke: #000000; stroke-width: 0.8"/>
      </defs>
      <g>
       <use xlink:href="#mf070409bab" x="69.535" y="75.283575" style="stroke: #000000; stroke-width: 0.8"/>
      </g>
     </g>
     <g id="text_1">
      <!-- −5 -->
      <g transform="translate(47.792813 79.082793) scale(0.1 -0.1)">
       <defs>
        <path id="DejaVuSans-2212" d="M 678 2272 
L 4684 2272 
L 4684 1741 
L 678 1741 
L 678 2272 
z
" transform="scale(0.015625)"/>
        <path id="DejaVuSans-35" d="M 691 4666 
L 3169 4666 
L 3169 4134 
L 1269 4134 
L 1269 2991 
Q 1406 3038 1543 3061 
Q 1681 3084 1819 3084 
Q 2600 3084 3056 2656 
Q 3513 2228 3513 1497 
Q 3513 744 3044 326 
Q 2575 -91 1722 -91 
Q 1428 -91 1123 -41 
Q 819 9 494 109 
L 494 744 
Q 775 591 1075 516 
Q 1375 441 1709 441 
Q 2250 441 2565 725 
Q 2881 1009 2881 1497 
Q 2881 1984 2565 2268 
Q 2250 2553 1709 2553 
Q 1456 2553 1204 2497 
Q 953 2441 691 2322 
L 691 4666 
z
" transform="scale(0.015625)"/>
       </defs>
       <use xlink:href="#DejaVuSans-2212"/>
       <use xlink:href="#DejaVuSans-35" x="83.789062"/>
      </g>
     </g>
    </g>
    <g id="ytick_2">
     <g id="line2d_2">
      <g>
       <use xlink:href="#mf070409bab" x="69.535" y="33.214282" style="stroke: #000000; stroke-width: 0.8"/>
      </g>
     </g>
     <g id="text_2">
      <!-- 0 -->
      <g transform="translate(56.1725 37.013501) scale(0.1 -0.1)">
       <defs>
        <path id="DejaVuSans-30" d="M 2034 4250 
Q 1547 4250 1301 3770 
Q 1056 3291 1056 2328 
Q 1056 1369 1301 889 
Q 1547 409 2034 409 
Q 2525 409 2770 889 
Q 3016 1369 3016 2328 
Q 3016 3291 2770 3770 
Q 2525 4250 2034 4250 
z
M 2034 4750 
Q 2819 4750 3233 4129 
Q 3647 3509 3647 2328 
Q 3647 1150 3233 529 
Q 2819 -91 2034 -91 
Q 1250 -91 836 529 
Q 422 1150 422 2328 
Q 422 3509 836 4129 
Q 1250 4750 2034 4750 
z
" transform="scale(0.015625)"/>
       </defs>
       <use xlink:href="#DejaVuSans-30"/>
      </g>
     </g>
    </g>
    <g id="text_3">
     <!-- $\theta$ [$^\circ$] -->
     <g transform="translate(41.713125 56.877111) rotate(-90) scale(0.1 -0.1)">
      <defs>
       <path id="DejaVuSans-Oblique-3b8" d="M 2913 2219 
L 925 2219 
Q 791 1284 928 888 
Q 1100 400 1566 400 
Q 2034 400 2391 891 
Q 2703 1322 2913 2219 
z
M 3009 2750 
Q 3094 3638 2984 3950 
Q 2813 4444 2353 4444 
Q 1875 4444 1525 3956 
Q 1250 3563 1034 2750 
L 3009 2750 
z
M 2444 4913 
Q 3194 4913 3494 4250 
Q 3794 3591 3566 2422 
Q 3341 1256 2781 594 
Q 2225 -72 1475 -72 
Q 722 -72 425 594 
Q 128 1256 353 2422 
Q 581 3591 1134 4250 
Q 1691 4913 2444 4913 
z
" transform="scale(0.015625)"/>
       <path id="DejaVuSans-20" transform="scale(0.015625)"/>
       <path id="DejaVuSans-5b" d="M 550 4863 
L 1875 4863 
L 1875 4416 
L 1125 4416 
L 1125 -397 
L 1875 -397 
L 1875 -844 
L 550 -844 
L 550 4863 
z
" transform="scale(0.015625)"/>
       <path id="DejaVuSans-2218" d="M 2000 2619 
Q 1750 2619 1578 2445 
Q 1406 2272 1406 2022 
Q 1406 1775 1578 1605 
Q 1750 1435 2000 1435 
Q 2250 1435 2422 1605 
Q 2594 1775 2594 2022 
Q 2594 2269 2420 2444 
Q 2247 2619 2000 2619 
z
M 2000 3022 
Q 2200 3022 2384 2945 
Q 2569 2869 2703 2725 
Q 2847 2585 2919 2406 
Q 2991 2228 2991 2022 
Q 2991 1610 2702 1324 
Q 2413 1038 1994 1038 
Q 1572 1038 1290 1319 
Q 1009 1600 1009 2022 
Q 1009 2441 1296 2731 
Q 1584 3022 2000 3022 
z
" transform="scale(0.015625)"/>
       <path id="DejaVuSans-5d" d="M 1947 4863 
L 1947 -844 
L 622 -844 
L 622 -397 
L 1369 -397 
L 1369 4416 
L 622 4416 
L 622 4863 
L 1947 4863 
z
" transform="scale(0.015625)"/>
      </defs>
      <use xlink:href="#DejaVuSans-Oblique-3b8" transform="translate(0 0.234375)"/>
      <use xlink:href="#DejaVuSans-20" transform="translate(61.181641 0.234375)"/>
      <use xlink:href="#DejaVuSans-5b" transform="translate(92.96875 0.234375)"/>
      <use xlink:href="#DejaVuSans-2218" transform="translate(146.577148 38.515625) scale(0.7)"/>
      <use xlink:href="#DejaVuSans-5d" transform="translate(206.767578 0.234375)"/>
     </g>
    </g>
   </g>
   <g id="line2d_3">
    <path d="M 69.535 75.283575 
L 74.364419 74.982648 
L 79.193837 74.3793 
L 84.023256 73.468428 
L 88.852674 72.241266 
L 93.682093 70.685292 
L 98.511512 68.784079 
L 103.34093 66.51711 
L 108.170349 63.859536 
L 112.999767 60.781888 
L 117.829186 57.249729 
L 122.658605 53.223251 
L 127.488023 48.656806 
L 132.317442 45.106664 
L 137.14686 40.91822 
L 141.976279 37.652476 
L 146.805698 35.266732 
L 151.635116 32.120635 
L 156.464535 29.787952 
L 161.293953 26.629123 
L 166.123372 24.21792 
L 170.952791 22.522292 
L 175.782209 21.518839 
L 180.611628 19.584215 
L 185.441047 18.307113 
L 190.270465 17.669286 
L 195.099884 17.660187 
L 199.929302 16.668531 
L 204.758721 16.294429 
L 209.58814 16.530544 
L 214.417558 15.768574 
L 219.246977 15.611418 
L 224.076395 14.446076 
L 228.905814 13.870646 
L 233.735233 13.875452 
L 238.564651 14.457784 
L 243.39407 15.621858 
L 248.223488 17.378842 
L 253.052907 19.746979 
L 257.882326 21.143499 
L 262.711744 23.197093 
L 267.541163 24.321121 
L 272.370581 26.140913 
L 277.2 27.066944 
" clip-path="url(#p1da2fb484b)" style="fill: none; stroke: #0000ff; stroke-width: 1.5; stroke-linecap: square"/>
    <defs>
     <path id="mbc37ade857" d="M -3 0 
L 3 0 
M 0 3 
L 0 -3 
" style="stroke: #0000ff"/>
    </defs>
    <g clip-path="url(#p1da2fb484b)">
     <use xlink:href="#mbc37ade857" x="69.535" y="75.283575" style="fill: #0000ff; stroke: #0000ff"/>
     <use xlink:href="#mbc37ade857" x="74.364419" y="74.982648" style="fill: #0000ff; stroke: #0000ff"/>
     <use xlink:href="#mbc37ade857" x="79.193837" y="74.3793" style="fill: #0000ff; stroke: #0000ff"/>
     <use xlink:href="#mbc37ade857" x="84.023256" y="73.468428" style="fill: #0000ff; stroke: #0000ff"/>
     <use xlink:href="#mbc37ade857" x="88.852674" y="72.241266" style="fill: #0000ff; stroke: #0000ff"/>
     <use xlink:href="#mbc37ade857" x="93.682093" y="70.685292" style="fill: #0000ff; stroke: #0000ff"/>
     <use xlink:href="#mbc37ade857" x="98.511512" y="68.784079" style="fill: #0000ff; stroke: #0000ff"/>
     <use xlink:href="#mbc37ade857" x="103.34093" y="66.51711" style="fill: #0000ff; stroke: #0000ff"/>
     <use xlink:href="#mbc37ade857" x="108.170349" y="63.859536" style="fill: #0000ff; stroke: #0000ff"/>
     <use xlink:href="#mbc37ade857" x="112.999767" y="60.781888" style="fill: #0000ff; stroke: #0000ff"/>
     <use xlink:href="#mbc37ade857" x="117.829186" y="57.249729" style="fill: #0000ff; stroke: #0000ff"/>
     <use xlink:href="#mbc37ade857" x="122.658605" y="53.223251" style="fill: #0000ff; stroke: #0000ff"/>
     <use xlink:href="#mbc37ade857" x="127.488023" y="48.656806" style="fill: #0000ff; stroke: #0000ff"/>
     <use xlink:href="#mbc37ade857" x="132.317442" y="45.106664" style="fill: #0000ff; stroke: #0000ff"/>
     <use xlink:href="#mbc37ade857" x="137.14686" y="40.91822" style="fill: #0000ff; stroke: #0000ff"/>
     <use xlink:href="#mbc37ade857" x="141.976279" y="37.652476" style="fill: #0000ff; stroke: #0000ff"/>
     <use xlink:href="#mbc37ade857" x="146.805698" y="35.266732" style="fill: #0000ff; stroke: #0000ff"/>
     <use xlink:href="#mbc37ade857" x="151.635116" y="32.120635" style="fill: #0000ff; stroke: #0000ff"/>
     <use xlink:href="#mbc37ade857" x="156.464535" y="29.787952" style="fill: #0000ff; stroke: #0000ff"/>
     <use xlink:href="#mbc37ade857" x="161.293953" y="26.629123" style="fill: #0000ff; stroke: #0000ff"/>
     <use xlink:href="#mbc37ade857" x="166.123372" y="24.21792" style="fill: #0000ff; stroke: #0000ff"/>
     <use xlink:href="#mbc37ade857" x="170.952791" y="22.522292" style="fill: #0000ff; stroke: #0000ff"/>
     <use xlink:href="#mbc37ade857" x="175.782209" y="21.518839" style="fill: #0000ff; stroke: #0000ff"/>
     <use xlink:href="#mbc37ade857" x="180.611628" y="19.584215" style="fill: #0000ff; stroke: #0000ff"/>
     <use xlink:href="#mbc37ade857" x="185.441047" y="18.307113" style="fill: #0000ff; stroke: #0000ff"/>
     <use xlink:href="#mbc37ade857" x="190.270465" y="17.669286" style="fill: #0000ff; stroke: #0000ff"/>
     <use xlink:href="#mbc37ade857" x="195.099884" y="17.660187" style="fill: #0000ff; stroke: #0000ff"/>
     <use xlink:href="#mbc37ade857" x="199.929302" y="16.668531" style="fill: #0000ff; stroke: #0000ff"/>
     <use xlink:href="#mbc37ade857" x="204.758721" y="16.294429" style="fill: #0000ff; stroke: #0000ff"/>
     <use xlink:href="#mbc37ade857" x="209.58814" y="16.530544" style="fill: #0000ff; stroke: #0000ff"/>
     <use xlink:href="#mbc37ade857" x="214.417558" y="15.768574" style="fill: #0000ff; stroke: #0000ff"/>
     <use xlink:href="#mbc37ade857" x="219.246977" y="15.611418" style="fill: #0000ff; stroke: #0000ff"/>
     <use xlink:href="#mbc37ade857" x="224.076395" y="14.446076" style="fill: #0000ff; stroke: #0000ff"/>
     <use xlink:href="#mbc37ade857" x="228.905814" y="13.870646" style="fill: #0000ff; stroke: #0000ff"/>
     <use xlink:href="#mbc37ade857" x="233.735233" y="13.875452" style="fill: #0000ff; stroke: #0000ff"/>
     <use xlink:href="#mbc37ade857" x="238.564651" y="14.457784" style="fill: #0000ff; stroke: #0000ff"/>
     <use xlink:href="#mbc37ade857" x="243.39407" y="15.621858" style="fill: #0000ff; stroke: #0000ff"/>
     <use xlink:href="#mbc37ade857" x="248.223488" y="17.378842" style="fill: #0000ff; stroke: #0000ff"/>
     <use xlink:href="#mbc37ade857" x="253.052907" y="19.746979" style="fill: #0000ff; stroke: #0000ff"/>
     <use xlink:href="#mbc37ade857" x="257.882326" y="21.143499" style="fill: #0000ff; stroke: #0000ff"/>
     <use xlink:href="#mbc37ade857" x="262.711744" y="23.197093" style="fill: #0000ff; stroke: #0000ff"/>
     <use xlink:href="#mbc37ade857" x="267.541163" y="24.321121" style="fill: #0000ff; stroke: #0000ff"/>
     <use xlink:href="#mbc37ade857" x="272.370581" y="26.140913" style="fill: #0000ff; stroke: #0000ff"/>
     <use xlink:href="#mbc37ade857" x="277.2" y="27.066944" style="fill: #0000ff; stroke: #0000ff"/>
    </g>
   </g>
   <g id="patch_4">
    <path d="M 69.535 78.354221 
L 69.535 10.8 
" style="fill: none; stroke: #000000; stroke-width: 0.8; stroke-linejoin: miter; stroke-linecap: square"/>
   </g>
   <g id="patch_5">
    <path d="M 277.2 78.354221 
L 277.2 10.8 
" style="fill: none; stroke: #000000; stroke-width: 0.8; stroke-linejoin: miter; stroke-linecap: square"/>
   </g>
   <g id="patch_6">
    <path d="M 69.535 78.354221 
L 277.2 78.354221 
" style="fill: none; stroke: #000000; stroke-width: 0.8; stroke-linejoin: miter; stroke-linecap: square"/>
   </g>
   <g id="patch_7">
    <path d="M 69.535 10.8 
L 277.2 10.8 
" style="fill: none; stroke: #000000; stroke-width: 0.8; stroke-linejoin: miter; stroke-linecap: square"/>
   </g>
   <g id="legend_1">
    <g id="patch_8">
     <path d="M 226 73.354221 
L 270.2 73.354221 
Q 272.2 73.354221 272.2 71.354221 
L 272.2 57.676096 
Q 272.2 55.676096 270.2 55.676096 
L 226 55.676096 
Q 224 55.676096 224 57.676096 
L 224 71.354221 
Q 224 73.354221 226 73.354221 
z
" style="fill: #ffffff; opacity: 0.8; stroke: #cccccc; stroke-linejoin: miter"/>
    </g>
    <g id="line2d_4">
     <path d="M 228 63.774534 
L 238 63.774534 
L 248 63.774534 
" style="fill: none; stroke: #0000ff; stroke-width: 1.5; stroke-linecap: square"/>
     <g>
      <use xlink:href="#mbc37ade857" x="238" y="63.774534" style="fill: #0000ff; stroke: #0000ff"/>
     </g>
    </g>
    <g id="text_4">
     <!-- $\theta_w$ -->
     <g transform="translate(256 67.274534) scale(0.1 -0.1)">
      <defs>
       <path id="DejaVuSans-Oblique-77" d="M 544 3500 
L 1113 3500 
L 1259 684 
L 2566 3500 
L 3231 3500 
L 3425 684 
L 4666 3500 
L 5241 3500 
L 3641 0 
L 2969 0 
L 2797 2900 
L 1459 0 
L 781 0 
L 544 3500 
z
" transform="scale(0.015625)"/>
      </defs>
      <use xlink:href="#DejaVuSans-Oblique-3b8" transform="translate(0 0.234375)"/>
      <use xlink:href="#DejaVuSans-Oblique-77" transform="translate(61.181641 -16.171875) scale(0.7)"/>
     </g>
    </g>
   </g>
  </g>
  <g id="axes_2">
   <g id="patch_9">
    <path d="M 69.535 162.197111 
L 277.2 162.197111 
L 277.2 94.642889 
L 69.535 94.642889 
z
" style="fill: #ffffff"/>
   </g>
   <g id="patch_10">
    <path d="M 69.535 100.717233 
L 282.029419 100.717233 
L 282.029419 100.65627 
L 69.535 100.65627 
z
" clip-path="url(#p8a3ba3de63)" style="fill: #ff0000; opacity: 0.2"/>
   </g>
   <g id="matplotlib.axis_3"/>
   <g id="matplotlib.axis_4">
    <g id="ytick_3">
     <g id="line2d_5">
      <g>
       <use xlink:href="#mf070409bab" x="69.535" y="161.649971" style="stroke: #000000; stroke-width: 0.8"/>
      </g>
     </g>
     <g id="text_5">
      <!-- −2000 -->
      <g transform="translate(28.705313 165.44919) scale(0.1 -0.1)">
       <defs>
        <path id="DejaVuSans-32" d="M 1228 531 
L 3431 531 
L 3431 0 
L 469 0 
L 469 531 
Q 828 903 1448 1529 
Q 2069 2156 2228 2338 
Q 2531 2678 2651 2914 
Q 2772 3150 2772 3378 
Q 2772 3750 2511 3984 
Q 2250 4219 1831 4219 
Q 1534 4219 1204 4116 
Q 875 4013 500 3803 
L 500 4441 
Q 881 4594 1212 4672 
Q 1544 4750 1819 4750 
Q 2544 4750 2975 4387 
Q 3406 4025 3406 3419 
Q 3406 3131 3298 2873 
Q 3191 2616 2906 2266 
Q 2828 2175 2409 1742 
Q 1991 1309 1228 531 
z
" transform="scale(0.015625)"/>
       </defs>
       <use xlink:href="#DejaVuSans-2212"/>
       <use xlink:href="#DejaVuSans-32" x="83.789062"/>
       <use xlink:href="#DejaVuSans-30" x="147.412109"/>
       <use xlink:href="#DejaVuSans-30" x="211.035156"/>
       <use xlink:href="#DejaVuSans-30" x="274.658203"/>
      </g>
     </g>
    </g>
    <g id="ytick_4">
     <g id="line2d_6">
      <g>
       <use xlink:href="#mf070409bab" x="69.535" y="131.168361" style="stroke: #000000; stroke-width: 0.8"/>
      </g>
     </g>
     <g id="text_6">
      <!-- −1000 -->
      <g transform="translate(28.705313 134.96758) scale(0.1 -0.1)">
       <defs>
        <path id="DejaVuSans-31" d="M 794 531 
L 1825 531 
L 1825 4091 
L 703 3866 
L 703 4441 
L 1819 4666 
L 2450 4666 
L 2450 531 
L 3481 531 
L 3481 0 
L 794 0 
L 794 531 
z
" transform="scale(0.015625)"/>
       </defs>
       <use xlink:href="#DejaVuSans-2212"/>
       <use xlink:href="#DejaVuSans-31" x="83.789062"/>
       <use xlink:href="#DejaVuSans-30" x="147.412109"/>
       <use xlink:href="#DejaVuSans-30" x="211.035156"/>
       <use xlink:href="#DejaVuSans-30" x="274.658203"/>
      </g>
     </g>
    </g>
    <g id="ytick_5">
     <g id="line2d_7">
      <g>
       <use xlink:href="#mf070409bab" x="69.535" y="100.686751" style="stroke: #000000; stroke-width: 0.8"/>
      </g>
     </g>
     <g id="text_7">
      <!-- 0 -->
      <g transform="translate(56.1725 104.48597) scale(0.1 -0.1)">
       <use xlink:href="#DejaVuSans-30"/>
      </g>
     </g>
    </g>
    <g id="text_8">
     <!-- $\dot{\theta}$  [$^\circ$/s] -->
     <g transform="translate(22.625625 146.62) rotate(-90) scale(0.1 -0.1)">
      <defs>
       <path id="DejaVuSans-307" d="M -1894 4863 
L -1319 4863 
L -1319 4134 
L -1894 4134 
L -1894 4863 
z
M -1600 3584 
L -1600 3584 
z
" transform="scale(0.015625)"/>
       <path id="DejaVuSans-2f" d="M 1625 4666 
L 2156 4666 
L 531 -594 
L 0 -594 
L 1625 4666 
z
" transform="scale(0.015625)"/>
       <path id="DejaVuSans-73" d="M 2834 3397 
L 2834 2853 
Q 2591 2978 2328 3040 
Q 2066 3103 1784 3103 
Q 1356 3103 1142 2972 
Q 928 2841 928 2578 
Q 928 2378 1081 2264 
Q 1234 2150 1697 2047 
L 1894 2003 
Q 2506 1872 2764 1633 
Q 3022 1394 3022 966 
Q 3022 478 2636 193 
Q 2250 -91 1575 -91 
Q 1294 -91 989 -36 
Q 684 19 347 128 
L 347 722 
Q 666 556 975 473 
Q 1284 391 1588 391 
Q 1994 391 2212 530 
Q 2431 669 2431 922 
Q 2431 1156 2273 1281 
Q 2116 1406 1581 1522 
L 1381 1569 
Q 847 1681 609 1914 
Q 372 2147 372 2553 
Q 372 3047 722 3315 
Q 1072 3584 1716 3584 
Q 2034 3584 2315 3537 
Q 2597 3491 2834 3397 
z
" transform="scale(0.015625)"/>
      </defs>
      <use xlink:href="#DejaVuSans-307" transform="translate(62.88916 34.015625)"/>
      <use xlink:href="#DejaVuSans-Oblique-3b8" transform="translate(0 0.75)"/>
      <use xlink:href="#DejaVuSans-20" transform="translate(61.181641 0.75)"/>
      <use xlink:href="#DejaVuSans-20" transform="translate(92.96875 0.75)"/>
      <use xlink:href="#DejaVuSans-5b" transform="translate(124.755859 0.75)"/>
      <use xlink:href="#DejaVuSans-2218" transform="translate(178.364258 39.03125) scale(0.7)"/>
      <use xlink:href="#DejaVuSans-2f" transform="translate(238.554688 0.75)"/>
      <use xlink:href="#DejaVuSans-73" transform="translate(272.246094 0.75)"/>
      <use xlink:href="#DejaVuSans-5d" transform="translate(324.345703 0.75)"/>
     </g>
    </g>
   </g>
   <g id="line2d_8">
    <path d="M 69.535 100.686751 
L 74.364419 100.577732 
L 79.193837 100.468171 
L 84.023256 100.356762 
L 88.852674 100.242177 
L 93.682093 100.123055 
L 98.511512 99.997983 
L 103.34093 99.865477 
L 108.170349 99.723969 
L 112.999767 99.571785 
L 117.829186 99.407126 
L 122.658605 99.228045 
L 127.488023 99.032426 
L 132.317442 99.400611 
L 137.14686 99.169368 
L 141.976279 99.503642 
L 146.805698 99.822447 
L 151.635116 99.546988 
L 156.464535 99.84167 
L 161.293953 99.542375 
L 166.123372 99.813224 
L 170.952791 100.072462 
L 175.782209 100.323222 
L 180.611628 99.985879 
L 185.441047 100.224085 
L 190.270465 100.45568 
L 195.099884 100.683455 
L 199.929302 100.327496 
L 204.758721 100.551222 
L 209.58814 100.772291 
L 214.417558 100.410706 
L 219.246977 100.629817 
L 224.076395 100.264573 
L 228.905814 100.478286 
L 233.735233 100.688492 
L 238.564651 100.897718 
L 243.39407 101.108471 
L 248.223488 101.323269 
L 253.052907 101.544677 
L 257.882326 101.192681 
L 262.711744 101.430724 
L 267.541163 101.093963 
L 272.370581 101.346023 
L 277.2 101.022233 
" clip-path="url(#p8a3ba3de63)" style="fill: none; stroke: #0000ff; stroke-width: 1.5; stroke-linecap: square"/>
   </g>
   <g id="line2d_9">
    <path d="M 69.535 100.686751 
L 74.364419 105.574068 
L 79.193837 110.453502 
L 84.023256 115.326374 
L 88.852674 120.194022 
L 93.682093 125.057817 
L 98.511512 129.919179 
L 103.34093 134.779595 
L 108.170349 139.640635 
L 112.999767 144.503972 
L 117.829186 149.371403 
L 122.658605 154.244865 
L 127.488023 159.126464 
L 132.317442 153.879252 
L 137.14686 158.797106 
L 141.976279 153.584371 
L 146.805698 148.396091 
L 151.635116 153.367613 
L 156.464535 148.203829 
L 161.293953 153.199518 
L 166.123372 148.059858 
L 170.952791 142.940667 
L 175.782209 137.838778 
L 180.611628 142.890381 
L 185.441047 137.801133 
L 190.270465 132.727267 
L 195.099884 127.665968 
L 199.929302 132.753721 
L 204.758721 127.696425 
L 209.58814 122.650504 
L 214.417558 127.752528 
L 219.246977 122.708467 
L 224.076395 127.81405 
L 228.905814 122.775282 
L 233.735233 117.748705 
L 238.564651 112.731773 
L 243.39407 107.721962 
L 248.223488 102.71674 
L 253.052907 97.713536 
L 257.882326 102.848954 
L 262.711744 97.828886 
L 267.541163 102.948871 
L 272.370581 97.914614 
L 277.2 103.02148 
" clip-path="url(#p8a3ba3de63)" style="fill: none; stroke: #ff0000; stroke-width: 1.5; stroke-linecap: square"/>
   </g>
   <g id="patch_11">
    <path d="M 69.535 162.197111 
L 69.535 94.642889 
" style="fill: none; stroke: #000000; stroke-width: 0.8; stroke-linejoin: miter; stroke-linecap: square"/>
   </g>
   <g id="patch_12">
    <path d="M 277.2 162.197111 
L 277.2 94.642889 
" style="fill: none; stroke: #000000; stroke-width: 0.8; stroke-linejoin: miter; stroke-linecap: square"/>
   </g>
   <g id="patch_13">
    <path d="M 69.535 162.197111 
L 277.2 162.197111 
" style="fill: none; stroke: #000000; stroke-width: 0.8; stroke-linejoin: miter; stroke-linecap: square"/>
   </g>
   <g id="patch_14">
    <path d="M 69.535 94.642889 
L 277.2 94.642889 
" style="fill: none; stroke: #000000; stroke-width: 0.8; stroke-linejoin: miter; stroke-linecap: square"/>
   </g>
   <g id="legend_2">
    <g id="patch_15">
     <path d="M 166.9 157.197111 
L 270.2 157.197111 
Q 272.2 157.197111 272.2 155.197111 
L 272.2 138.397111 
Q 272.2 136.397111 270.2 136.397111 
L 166.9 136.397111 
Q 164.9 136.397111 164.9 138.397111 
L 164.9 155.197111 
Q 164.9 157.197111 166.9 157.197111 
z
" style="fill: #ffffff; opacity: 0.8; stroke: #cccccc; stroke-linejoin: miter"/>
    </g>
    <g id="line2d_10">
     <path d="M 168.9 147.617423 
L 178.9 147.617423 
L 188.9 147.617423 
" style="fill: none; stroke: #0000ff; stroke-width: 1.5; stroke-linecap: square"/>
    </g>
    <g id="text_9">
     <!-- $\dot{\theta}_b$ -->
     <g transform="translate(196.9 151.117423) scale(0.1 -0.1)">
      <defs>
       <path id="DejaVuSans-Oblique-62" d="M 3169 2138 
Q 3169 2591 2961 2847 
Q 2753 3103 2388 3103 
Q 2122 3103 1889 2973 
Q 1656 2844 1484 2597 
Q 1303 2338 1198 1995 
Q 1094 1653 1094 1313 
Q 1094 881 1298 636 
Q 1503 391 1863 391 
Q 2134 391 2365 517 
Q 2597 644 2772 891 
Q 2950 1147 3059 1487 
Q 3169 1828 3169 2138 
z
M 1381 2969 
Q 1594 3256 1914 3420 
Q 2234 3584 2584 3584 
Q 3122 3584 3439 3221 
Q 3756 2859 3756 2241 
Q 3756 1734 3570 1259 
Q 3384 784 3041 416 
Q 2816 172 2522 40 
Q 2228 -91 1906 -91 
Q 1566 -91 1316 65 
Q 1066 222 909 531 
L 806 0 
L 231 0 
L 1178 4863 
L 1753 4863 
L 1381 2969 
z
" transform="scale(0.015625)"/>
      </defs>
      <use xlink:href="#DejaVuSans-307" transform="translate(62.88916 34.015625)"/>
      <use xlink:href="#DejaVuSans-Oblique-3b8" transform="translate(0 0.75)"/>
      <use xlink:href="#DejaVuSans-Oblique-62" transform="translate(62.138672 -15.65625) scale(0.7)"/>
     </g>
    </g>
    <g id="line2d_11">
     <path d="M 227.9 147.617423 
L 237.9 147.617423 
L 247.9 147.617423 
" style="fill: none; stroke: #ff0000; stroke-width: 1.5; stroke-linecap: square"/>
    </g>
    <g id="text_10">
     <!-- $\dot{\theta}_w$ -->
     <g transform="translate(255.9 151.117423) scale(0.1 -0.1)">
      <use xlink:href="#DejaVuSans-307" transform="translate(62.88916 34.015625)"/>
      <use xlink:href="#DejaVuSans-Oblique-3b8" transform="translate(0 0.75)"/>
      <use xlink:href="#DejaVuSans-Oblique-77" transform="translate(62.138672 -15.65625) scale(0.7)"/>
     </g>
    </g>
   </g>
  </g>
  <g id="axes_3">
   <g id="patch_16">
    <path d="M 69.535 246.04 
L 277.2 246.04 
L 277.2 178.485779 
L 69.535 178.485779 
z
" style="fill: #ffffff"/>
   </g>
   <g id="matplotlib.axis_5">
    <g id="xtick_1">
     <g id="line2d_12">
      <defs>
       <path id="m798ea09aed" d="M 0 0 
L 0 3.5 
" style="stroke: #000000; stroke-width: 0.8"/>
      </defs>
      <g>
       <use xlink:href="#m798ea09aed" x="69.535" y="246.04" style="stroke: #000000; stroke-width: 0.8"/>
      </g>
     </g>
     <g id="text_11">
      <!-- 0.0 -->
      <g transform="translate(61.583438 260.638437) scale(0.1 -0.1)">
       <defs>
        <path id="DejaVuSans-2e" d="M 684 794 
L 1344 794 
L 1344 0 
L 684 0 
L 684 794 
z
" transform="scale(0.015625)"/>
       </defs>
       <use xlink:href="#DejaVuSans-30"/>
       <use xlink:href="#DejaVuSans-2e" x="63.623047"/>
       <use xlink:href="#DejaVuSans-30" x="95.410156"/>
      </g>
     </g>
    </g>
    <g id="xtick_2">
     <g id="line2d_13">
      <g>
       <use xlink:href="#m798ea09aed" x="117.829186" y="246.04" style="stroke: #000000; stroke-width: 0.8"/>
      </g>
     </g>
     <g id="text_12">
      <!-- 0.1 -->
      <g transform="translate(109.877624 260.638437) scale(0.1 -0.1)">
       <use xlink:href="#DejaVuSans-30"/>
       <use xlink:href="#DejaVuSans-2e" x="63.623047"/>
       <use xlink:href="#DejaVuSans-31" x="95.410156"/>
      </g>
     </g>
    </g>
    <g id="xtick_3">
     <g id="line2d_14">
      <g>
       <use xlink:href="#m798ea09aed" x="166.123372" y="246.04" style="stroke: #000000; stroke-width: 0.8"/>
      </g>
     </g>
     <g id="text_13">
      <!-- 0.2 -->
      <g transform="translate(158.17181 260.638437) scale(0.1 -0.1)">
       <use xlink:href="#DejaVuSans-30"/>
       <use xlink:href="#DejaVuSans-2e" x="63.623047"/>
       <use xlink:href="#DejaVuSans-32" x="95.410156"/>
      </g>
     </g>
    </g>
    <g id="xtick_4">
     <g id="line2d_15">
      <g>
       <use xlink:href="#m798ea09aed" x="214.417558" y="246.04" style="stroke: #000000; stroke-width: 0.8"/>
      </g>
     </g>
     <g id="text_14">
      <!-- 0.3 -->
      <g transform="translate(206.465996 260.638437) scale(0.1 -0.1)">
       <defs>
        <path id="DejaVuSans-33" d="M 2597 2516 
Q 3050 2419 3304 2112 
Q 3559 1806 3559 1356 
Q 3559 666 3084 287 
Q 2609 -91 1734 -91 
Q 1441 -91 1130 -33 
Q 819 25 488 141 
L 488 750 
Q 750 597 1062 519 
Q 1375 441 1716 441 
Q 2309 441 2620 675 
Q 2931 909 2931 1356 
Q 2931 1769 2642 2001 
Q 2353 2234 1838 2234 
L 1294 2234 
L 1294 2753 
L 1863 2753 
Q 2328 2753 2575 2939 
Q 2822 3125 2822 3475 
Q 2822 3834 2567 4026 
Q 2313 4219 1838 4219 
Q 1578 4219 1281 4162 
Q 984 4106 628 3988 
L 628 4550 
Q 988 4650 1302 4700 
Q 1616 4750 1894 4750 
Q 2613 4750 3031 4423 
Q 3450 4097 3450 3541 
Q 3450 3153 3228 2886 
Q 3006 2619 2597 2516 
z
" transform="scale(0.015625)"/>
       </defs>
       <use xlink:href="#DejaVuSans-30"/>
       <use xlink:href="#DejaVuSans-2e" x="63.623047"/>
       <use xlink:href="#DejaVuSans-33" x="95.410156"/>
      </g>
     </g>
    </g>
    <g id="xtick_5">
     <g id="line2d_16">
      <g>
       <use xlink:href="#m798ea09aed" x="262.711744" y="246.04" style="stroke: #000000; stroke-width: 0.8"/>
      </g>
     </g>
     <g id="text_15">
      <!-- 0.4 -->
      <g transform="translate(254.760182 260.638437) scale(0.1 -0.1)">
       <defs>
        <path id="DejaVuSans-34" d="M 2419 4116 
L 825 1625 
L 2419 1625 
L 2419 4116 
z
M 2253 4666 
L 3047 4666 
L 3047 1625 
L 3713 1625 
L 3713 1100 
L 3047 1100 
L 3047 0 
L 2419 0 
L 2419 1100 
L 313 1100 
L 313 1709 
L 2253 4666 
z
" transform="scale(0.015625)"/>
       </defs>
       <use xlink:href="#DejaVuSans-30"/>
       <use xlink:href="#DejaVuSans-2e" x="63.623047"/>
       <use xlink:href="#DejaVuSans-34" x="95.410156"/>
      </g>
     </g>
    </g>
    <g id="text_16">
     <!-- Time [s] -->
     <g transform="translate(153.038594 274.316562) scale(0.1 -0.1)">
      <defs>
       <path id="DejaVuSans-54" d="M -19 4666 
L 3928 4666 
L 3928 4134 
L 2272 4134 
L 2272 0 
L 1638 0 
L 1638 4134 
L -19 4134 
L -19 4666 
z
" transform="scale(0.015625)"/>
       <path id="DejaVuSans-69" d="M 603 3500 
L 1178 3500 
L 1178 0 
L 603 0 
L 603 3500 
z
M 603 4863 
L 1178 4863 
L 1178 4134 
L 603 4134 
L 603 4863 
z
" transform="scale(0.015625)"/>
       <path id="DejaVuSans-6d" d="M 3328 2828 
Q 3544 3216 3844 3400 
Q 4144 3584 4550 3584 
Q 5097 3584 5394 3201 
Q 5691 2819 5691 2113 
L 5691 0 
L 5113 0 
L 5113 2094 
Q 5113 2597 4934 2840 
Q 4756 3084 4391 3084 
Q 3944 3084 3684 2787 
Q 3425 2491 3425 1978 
L 3425 0 
L 2847 0 
L 2847 2094 
Q 2847 2600 2669 2842 
Q 2491 3084 2119 3084 
Q 1678 3084 1418 2786 
Q 1159 2488 1159 1978 
L 1159 0 
L 581 0 
L 581 3500 
L 1159 3500 
L 1159 2956 
Q 1356 3278 1631 3431 
Q 1906 3584 2284 3584 
Q 2666 3584 2933 3390 
Q 3200 3197 3328 2828 
z
" transform="scale(0.015625)"/>
       <path id="DejaVuSans-65" d="M 3597 1894 
L 3597 1613 
L 953 1613 
Q 991 1019 1311 708 
Q 1631 397 2203 397 
Q 2534 397 2845 478 
Q 3156 559 3463 722 
L 3463 178 
Q 3153 47 2828 -22 
Q 2503 -91 2169 -91 
Q 1331 -91 842 396 
Q 353 884 353 1716 
Q 353 2575 817 3079 
Q 1281 3584 2069 3584 
Q 2775 3584 3186 3129 
Q 3597 2675 3597 1894 
z
M 3022 2063 
Q 3016 2534 2758 2815 
Q 2500 3097 2075 3097 
Q 1594 3097 1305 2825 
Q 1016 2553 972 2059 
L 3022 2063 
z
" transform="scale(0.015625)"/>
      </defs>
      <use xlink:href="#DejaVuSans-54"/>
      <use xlink:href="#DejaVuSans-69" x="57.958984"/>
      <use xlink:href="#DejaVuSans-6d" x="85.742188"/>
      <use xlink:href="#DejaVuSans-65" x="183.154297"/>
      <use xlink:href="#DejaVuSans-20" x="244.677734"/>
      <use xlink:href="#DejaVuSans-5b" x="276.464844"/>
      <use xlink:href="#DejaVuSans-73" x="315.478516"/>
      <use xlink:href="#DejaVuSans-5d" x="367.578125"/>
     </g>
    </g>
   </g>
   <g id="matplotlib.axis_6">
    <g id="ytick_6">
     <g id="line2d_17">
      <g>
       <use xlink:href="#mf070409bab" x="69.535" y="234.780963" style="stroke: #000000; stroke-width: 0.8"/>
      </g>
     </g>
     <g id="text_17">
      <!-- −0.02 -->
      <g transform="translate(31.889688 238.580182) scale(0.1 -0.1)">
       <use xlink:href="#DejaVuSans-2212"/>
       <use xlink:href="#DejaVuSans-30" x="83.789062"/>
       <use xlink:href="#DejaVuSans-2e" x="147.412109"/>
       <use xlink:href="#DejaVuSans-30" x="179.199219"/>
       <use xlink:href="#DejaVuSans-32" x="242.822266"/>
      </g>
     </g>
    </g>
    <g id="ytick_7">
     <g id="line2d_18">
      <g>
       <use xlink:href="#mf070409bab" x="69.535" y="212.262889" style="stroke: #000000; stroke-width: 0.8"/>
      </g>
     </g>
     <g id="text_18">
      <!-- 0.00 -->
      <g transform="translate(40.269375 216.062108) scale(0.1 -0.1)">
       <use xlink:href="#DejaVuSans-30"/>
       <use xlink:href="#DejaVuSans-2e" x="63.623047"/>
       <use xlink:href="#DejaVuSans-30" x="95.410156"/>
       <use xlink:href="#DejaVuSans-30" x="159.033203"/>
      </g>
     </g>
    </g>
    <g id="ytick_8">
     <g id="line2d_19">
      <g>
       <use xlink:href="#mf070409bab" x="69.535" y="189.744816" style="stroke: #000000; stroke-width: 0.8"/>
      </g>
     </g>
     <g id="text_19">
      <!-- 0.02 -->
      <g transform="translate(40.269375 193.544035) scale(0.1 -0.1)">
       <use xlink:href="#DejaVuSans-30"/>
       <use xlink:href="#DejaVuSans-2e" x="63.623047"/>
       <use xlink:href="#DejaVuSans-30" x="95.410156"/>
       <use xlink:href="#DejaVuSans-32" x="159.033203"/>
      </g>
     </g>
    </g>
    <g id="text_20">
     <!-- $\tau$  [Nm] -->
     <g transform="translate(25.81 231.012889) rotate(-90) scale(0.1 -0.1)">
      <defs>
       <path id="DejaVuSans-Oblique-3c4" d="M 2103 638 
Q 2188 488 2525 488 
L 2800 488 
L 2706 0 
L 2363 0 
Q 1800 0 1600 300 
Q 1403 606 1534 1269 
L 1856 2925 
L 541 2925 
L 653 3500 
L 3881 3500 
L 3769 2925 
L 2444 2925 
L 2113 1234 
Q 2025 781 2103 638 
z
" transform="scale(0.015625)"/>
       <path id="DejaVuSans-4e" d="M 628 4666 
L 1478 4666 
L 3547 763 
L 3547 4666 
L 4159 4666 
L 4159 0 
L 3309 0 
L 1241 3903 
L 1241 0 
L 628 0 
L 628 4666 
z
" transform="scale(0.015625)"/>
      </defs>
      <use xlink:href="#DejaVuSans-Oblique-3c4" transform="translate(0 0.015625)"/>
      <use xlink:href="#DejaVuSans-20" transform="translate(60.205078 0.015625)"/>
      <use xlink:href="#DejaVuSans-20" transform="translate(91.992188 0.015625)"/>
      <use xlink:href="#DejaVuSans-5b" transform="translate(123.779297 0.015625)"/>
      <use xlink:href="#DejaVuSans-4e" transform="translate(162.792969 0.015625)"/>
      <use xlink:href="#DejaVuSans-6d" transform="translate(237.597656 0.015625)"/>
      <use xlink:href="#DejaVuSans-5d" transform="translate(335.009766 0.015625)"/>
     </g>
    </g>
   </g>
   <g id="line2d_20">
    <path d="M 69.535 234.780963 
L 69.535 234.780963 
L 74.364419 234.780963 
L 74.364419 234.780963 
L 79.193837 234.780963 
L 79.193837 234.780963 
L 84.023256 234.780963 
L 84.023256 234.780963 
L 88.852674 234.780963 
L 88.852674 234.780963 
L 93.682093 234.780963 
L 93.682093 234.780963 
L 98.511512 234.780963 
L 98.511512 234.780963 
L 103.34093 234.780963 
L 103.34093 234.780963 
L 108.170349 234.780963 
L 108.170349 234.780963 
L 112.999767 234.780963 
L 112.999767 234.780963 
L 117.829186 234.780963 
L 117.829186 234.780963 
L 122.658605 234.780963 
L 122.658605 189.744816 
L 127.488023 189.744816 
L 127.488023 234.780963 
L 132.317442 234.780963 
L 132.317442 189.744816 
L 137.14686 189.744816 
L 137.14686 189.744816 
L 141.976279 189.744816 
L 141.976279 234.780963 
L 146.805698 234.780963 
L 146.805698 189.744816 
L 151.635116 189.744816 
L 151.635116 234.780963 
L 156.464535 234.780963 
L 156.464535 189.744816 
L 161.293953 189.744816 
L 161.293953 189.744816 
L 166.123372 189.744816 
L 166.123372 189.744816 
L 170.952791 189.744816 
L 170.952791 234.780963 
L 175.782209 234.780963 
L 175.782209 189.744816 
L 180.611628 189.744816 
L 180.611628 189.744816 
L 185.441047 189.744816 
L 185.441047 189.744816 
L 190.270465 189.744816 
L 190.270465 234.780963 
L 195.099884 234.780963 
L 195.099884 189.744816 
L 199.929302 189.744816 
L 199.929302 189.744816 
L 204.758721 189.744816 
L 204.758721 234.780963 
L 209.58814 234.780963 
L 209.58814 189.744816 
L 214.417558 189.744816 
L 214.417558 234.780963 
L 219.246977 234.780963 
L 219.246977 189.744816 
L 224.076395 189.744816 
L 224.076395 189.744816 
L 228.905814 189.744816 
L 228.905814 189.744816 
L 233.735233 189.744816 
L 233.735233 189.744816 
L 238.564651 189.744816 
L 238.564651 189.744816 
L 243.39407 189.744816 
L 243.39407 189.744816 
L 248.223488 189.744816 
L 248.223488 234.780963 
L 253.052907 234.780963 
L 253.052907 189.744816 
L 257.882326 189.744816 
L 257.882326 234.780963 
L 262.711744 234.780963 
L 262.711744 189.744816 
L 267.541163 189.744816 
L 267.541163 234.780963 
L 272.370581 234.780963 
" clip-path="url(#p9f86f05599)" style="fill: none; stroke: #000000; stroke-width: 1.5; stroke-linecap: square"/>
   </g>
   <g id="patch_17">
    <path d="M 69.535 246.04 
L 69.535 178.485779 
" style="fill: none; stroke: #000000; stroke-width: 0.8; stroke-linejoin: miter; stroke-linecap: square"/>
   </g>
   <g id="patch_18">
    <path d="M 277.2 246.04 
L 277.2 178.485779 
" style="fill: none; stroke: #000000; stroke-width: 0.8; stroke-linejoin: miter; stroke-linecap: square"/>
   </g>
   <g id="patch_19">
    <path d="M 69.535 246.04 
L 277.2 246.04 
" style="fill: none; stroke: #000000; stroke-width: 0.8; stroke-linejoin: miter; stroke-linecap: square"/>
   </g>
   <g id="patch_20">
    <path d="M 69.535 178.485779 
L 277.2 178.485779 
" style="fill: none; stroke: #000000; stroke-width: 0.8; stroke-linejoin: miter; stroke-linecap: square"/>
   </g>
  </g>
 </g>
 <defs>
  <clipPath id="p1da2fb484b">
   <rect x="69.535" y="10.8" width="207.665" height="67.554221"/>
  </clipPath>
  <clipPath id="p8a3ba3de63">
   <rect x="69.535" y="94.642889" width="207.665" height="67.554221"/>
  </clipPath>
  <clipPath id="p9f86f05599">
   <rect x="69.535" y="178.485779" width="207.665" height="67.554221"/>
  </clipPath>
 </defs>
</svg>
